<svg width="273" height="255" viewBox="0 0 273 255" fill="none" xmlns="http://www.w3.org/2000/svg">
<path d="M210.414 118.126L235.652 108.705C234.579 107.118 220.436 72.6888 207.13 65.8232C195.509 57.7645 173.929 59.2502 149.538 61.0397C141.714 61.4485 133.999 63.1345 126.671 66.037C99.1783 77.4947 95.2509 115.481 95.2509 115.481L120.543 124.631C120.543 124.631 116.433 176.236 112.56 203.215C112.56 203.215 144.248 222.787 213.332 210.789C213.332 210.834 210.532 125.757 210.414 118.126Z" fill="#6C63FF"/>
<path d="M148.143 82.6721L159.646 141.165L178.93 73.6343L148.143 82.6721Z" fill="#231F20"/>
<path d="M159.646 141.728C159.527 141.721 159.413 141.673 159.322 141.592C159.231 141.51 159.168 141.4 159.142 141.277L147.639 82.7508C147.612 82.6124 147.635 82.4685 147.705 82.3475C147.774 82.2266 147.885 82.1376 148.014 82.098L178.801 73.0939C178.893 73.0657 178.99 73.0644 179.083 73.0902C179.176 73.116 179.26 73.1679 179.327 73.2402C179.396 73.3098 179.445 73.3987 179.467 73.4963C179.49 73.594 179.486 73.6965 179.455 73.7917L160.14 141.323C160.108 141.436 160.044 141.536 159.955 141.609C159.867 141.681 159.759 141.723 159.646 141.728ZM148.765 83.0772L159.743 138.88L178.135 74.4445L148.765 83.0772Z" fill="#231F20"/>
<path d="M173.232 2.61435C171.085 2.29921 169.637 3.13209 167.694 3.62732C165.141 4.28011 165.859 4.34764 163.585 2.80569C158.219 -0.795956 151.244 0.824784 145.267 3.03079C139.29 5.2368 132.927 7.92677 126.842 6.10344C128.938 8.51751 131.848 9.97921 134.955 10.1778C129.954 13.2392 122.679 10.8756 118.515 15.1075C122.488 20.3629 126.913 25.2231 131.736 29.6267C128.142 29.0361 124.65 27.8986 121.37 26.2501C127.449 33.2101 134.886 38.7149 143.175 42.39C149.227 45.1813 155.783 47.1847 162.383 46.7232C172.995 45.9691 183.844 37.2239 184.681 25.7324C185.25 17.8876 182.406 3.95371 173.232 2.61435Z" fill="white"/>
<path d="M160.451 47.3872C155.172 47.3872 149.431 45.924 142.96 42.8852C134.598 39.1854 127.098 33.6337 120.973 26.6102C120.889 26.5141 120.84 26.3908 120.834 26.2611C120.827 26.1315 120.864 26.0035 120.937 25.8988C121.01 25.7942 121.116 25.7193 121.236 25.6869C121.356 25.6545 121.483 25.6666 121.595 25.7211C124.265 27.0372 127.075 28.0158 129.965 28.6362C125.667 24.5638 121.697 20.1254 118.097 15.3664C118.008 15.263 117.958 15.1286 117.958 14.9893C117.958 14.85 118.008 14.7157 118.097 14.6123C120.522 12.1474 123.924 11.7985 127.218 11.4608C129.181 11.3265 131.123 10.9487 133.002 10.3353C130.455 9.76773 128.145 8.36906 126.402 6.33975C126.332 6.24486 126.294 6.12801 126.294 6.00772C126.294 5.88743 126.332 5.77058 126.402 5.67569C126.462 5.57021 126.553 5.4886 126.662 5.44375C126.771 5.39891 126.891 5.3934 127.003 5.42808C132.476 7.06007 138.217 4.9216 143.775 2.85065L145.106 2.36668C150.386 0.408287 158.09 -1.71893 163.885 2.19786L164.743 2.79438C165.666 3.45843 165.656 3.44717 166.89 3.13203L167.619 2.9407C168.124 2.81689 168.596 2.67057 169.057 2.513C170.424 1.96573 171.894 1.76145 173.35 1.91648C182.514 3.40216 185.851 17.0321 185.207 25.8111C184.306 38.1918 172.673 46.5881 162.415 47.3197C161.771 47.3647 161.106 47.3872 160.451 47.3872ZM123.505 27.8596C129.214 33.8341 135.965 38.6026 143.389 41.906C150.514 45.1925 156.717 46.5881 162.34 46.1942C174.948 45.2938 183.469 34.8715 184.145 25.7323C184.756 17.3698 181.687 4.41512 173.156 3.13203C171.851 2.99853 170.535 3.19139 169.315 3.69479C168.843 3.85236 168.338 4.00993 167.812 4.14499L167.104 4.32508C165.538 4.74152 165.377 4.71901 164.132 3.82985L163.295 3.24458C157.929 -0.402079 150.525 1.65761 145.449 3.52596L144.119 4.02119C139.043 5.91205 133.796 7.85919 128.624 7.04882C130.447 8.55755 132.668 9.44165 134.987 9.58122C135.102 9.5874 135.212 9.63235 135.301 9.70938C135.39 9.78642 135.453 9.89145 135.481 10.0089C135.509 10.1274 135.499 10.2526 135.453 10.3646C135.406 10.4767 135.325 10.5693 135.223 10.6279C132.873 12.0686 130.072 12.3612 127.357 12.6314C124.288 12.9578 121.38 13.2504 119.245 15.13C123.131 20.2038 127.44 24.9045 132.122 29.1764C132.21 29.2542 132.272 29.3601 132.297 29.4781C132.322 29.596 132.31 29.7194 132.261 29.8292C132.213 29.9412 132.132 30.0338 132.029 30.0927C131.927 30.1516 131.808 30.1737 131.693 30.1556C128.891 29.7101 126.145 28.9401 123.505 27.8596Z" fill="#231F20"/>
<path d="M148.905 63.2682L148.143 82.6721C148.143 82.6721 155.59 93.6459 167.008 88.5698C178.425 83.4937 178.93 73.6342 178.93 73.6342L175.26 36.6499C175.26 36.6499 165.666 33.2733 165.098 12.7214C156.066 18.7902 145.642 22.1959 134.923 22.5809C134.923 22.5809 132.948 45.2938 135.91 54.7031C138.871 64.1124 148.905 63.2682 148.905 63.2682Z" fill="white"/>
<path d="M161.063 90.4607C152.886 90.4607 147.767 83.0886 147.703 82.9985C147.634 82.897 147.6 82.774 147.606 82.6496L148.347 63.8536C146.072 63.8536 138.024 63.2345 135.395 54.8495C132.444 45.4402 134.322 23.4364 134.386 22.5134C134.396 22.3759 134.455 22.2472 134.55 22.1518C134.645 22.0563 134.77 22.0008 134.901 21.9957C145.513 21.596 155.83 18.2311 164.786 12.2488C164.864 12.1855 164.958 12.1464 165.056 12.1361C165.154 12.1257 165.253 12.1445 165.341 12.1903C165.429 12.236 165.504 12.307 165.556 12.3949C165.607 12.4829 165.635 12.5843 165.634 12.6877C165.924 23.0762 168.585 28.8838 170.763 31.9452C171.935 33.7445 173.548 35.1792 175.431 36.0984C175.529 36.1322 175.615 36.1948 175.68 36.2786C175.745 36.3624 175.785 36.4639 175.796 36.5711L179.412 73.578C179.412 73.7693 178.769 83.9327 167.179 89.0876C165.249 89.9725 163.169 90.4395 161.063 90.4607ZM148.69 82.5258C149.645 83.8539 156.513 92.6555 166.804 88.0746C177.781 83.1899 178.382 73.7243 178.393 73.623L174.766 37.0663C173.038 36.2672 165.366 31.7201 164.593 13.7682C155.767 19.398 145.735 22.614 135.416 23.1212C135.148 26.4978 133.774 46.093 136.414 54.5231C139.204 63.3921 148.465 62.7393 148.873 62.7055C148.947 62.7005 149.022 62.7119 149.092 62.7391C149.163 62.7662 149.227 62.8085 149.28 62.8631C149.334 62.9185 149.377 62.9852 149.404 63.0589C149.432 63.1326 149.445 63.2116 149.441 63.2908L148.69 82.5258Z" fill="#231F20"/>
<path d="M170.291 46.4194C172.766 47.0684 175.386 46.6637 177.577 45.2938C179.068 44.2914 180.287 42.9033 181.118 41.2632C181.949 39.6231 182.363 37.7862 182.32 35.9296C182.394 34.5566 182.174 33.1838 181.677 31.9115C181.42 31.2796 181.037 30.7126 180.554 30.2487C180.071 29.7847 179.499 29.4345 178.876 29.2215C177.309 28.9537 175.701 29.2262 174.294 29.9981C172.148 30.8985 171.987 32.1479 170.624 33.8586C170.774 33.7123 170.914 33.2396 171.053 33.0933" fill="white"/>
<path d="M172.663 47.2973C171.819 47.2974 170.979 47.1839 170.162 46.9596C170.092 46.9411 170.026 46.9083 169.967 46.8629C169.909 46.8176 169.86 46.7606 169.822 46.6953C169.785 46.63 169.76 46.5576 169.75 46.4822C169.739 46.4069 169.742 46.3301 169.76 46.2562C169.778 46.1823 169.809 46.1127 169.852 46.0515C169.895 45.9903 169.95 45.9386 170.012 45.8994C170.074 45.8602 170.143 45.8343 170.215 45.8231C170.287 45.8119 170.36 45.8156 170.431 45.8341C171.584 46.1465 172.785 46.2159 173.963 46.0381C175.142 45.8604 176.276 45.4391 177.298 44.7986C178.714 43.8489 179.872 42.5308 180.658 40.9726C181.444 39.4144 181.832 37.6692 181.784 35.9071C181.859 34.6187 181.653 33.3293 181.183 32.1366C180.958 31.5791 180.622 31.0781 180.199 30.6668C179.775 30.2554 179.273 29.9431 178.726 29.7505C177.427 29.3678 176.043 29.8743 174.498 30.5046C173.438 30.91 172.559 31.7117 172.03 32.7556C171.741 33.226 171.429 33.6806 171.096 34.1175L170.999 34.23C170.9 34.3275 170.769 34.3817 170.633 34.3819C170.498 34.3821 170.367 34.3281 170.267 34.2309C170.168 34.1337 170.107 34.0006 170.098 33.8584C170.088 33.7161 170.13 33.5754 170.216 33.4647C170.216 33.4647 170.291 33.3184 170.323 33.2396C170.401 33.0418 170.51 32.8592 170.645 32.6993C170.707 32.644 170.775 32.5985 170.849 32.5643L171.107 32.1816C171.752 30.9367 172.803 29.9776 174.068 29.4804C175.582 28.6673 177.307 28.3909 178.983 28.6925C179.681 28.9271 180.322 29.3157 180.864 29.8321C181.407 30.3486 181.837 30.9808 182.127 31.6864C182.667 33.0377 182.906 34.5006 182.825 35.9633C182.868 37.9141 182.431 39.8435 181.555 41.5649C180.679 43.2863 179.394 44.7413 177.824 45.7891C176.265 46.7707 174.481 47.2918 172.663 47.2973Z" fill="#231F20"/>
<path d="M148.508 73.5216C150.621 73.5808 152.716 73.0993 154.612 72.1188C156.507 71.1383 158.147 69.6882 159.389 67.894C163.799 61.6925 162.694 57.3142 162.694 57.3142C162.694 57.3142 156.964 63.5833 148.905 63.2907L148.508 73.5216Z" fill="#231F20"/>
<path d="M149.034 74.0506C148.701 74.0506 148.508 74.0506 148.454 74.0506C148.318 74.0363 148.191 73.9677 148.102 73.8588C148.012 73.7499 147.965 73.6091 147.971 73.4653L148.379 63.2681C148.379 63.1942 148.393 63.1211 148.421 63.0533C148.449 62.9854 148.49 62.9243 148.541 62.8737C148.592 62.823 148.653 62.784 148.719 62.7589C148.786 62.7338 148.856 62.7233 148.926 62.7279C156.652 62.9755 162.243 56.9878 162.308 56.9315C162.373 56.8601 162.455 56.808 162.545 56.7803C162.635 56.7527 162.731 56.7505 162.823 56.7739C162.915 56.8011 162.999 56.8526 163.066 56.9235C163.134 56.9945 163.183 57.0825 163.209 57.1791C163.209 57.3592 164.282 61.8837 159.818 68.2316C158.578 70.0166 156.956 71.4725 155.084 72.4829C153.211 73.4932 151.139 74.0301 149.034 74.0506ZM149.42 63.8421L149.066 72.925C150.998 72.8804 152.895 72.3712 154.611 71.4365C156.326 70.5018 157.814 69.1666 158.96 67.5338C161.921 63.3807 162.297 60.0717 162.275 58.4734C158.735 61.781 154.201 63.6809 149.463 63.8421H149.42Z" fill="#231F20"/>
<path d="M150.439 32.4741C150.439 32.4741 145.385 43.1215 147.081 44.6297C148.776 46.1379 152.8 44.4383 152.8 44.4383" fill="white"/>
<path d="M149.109 45.8114C148.244 45.8647 147.39 45.5978 146.694 45.0573C144.816 43.3915 148.69 34.8151 149.913 32.2152C149.98 32.0847 150.092 31.9862 150.226 31.94C150.359 31.8939 150.505 31.9038 150.632 31.9676C150.696 32 150.753 32.0452 150.799 32.1007C150.846 32.1562 150.882 32.2208 150.905 32.2908C150.928 32.3609 150.938 32.435 150.933 32.509C150.929 32.5829 150.91 32.6552 150.879 32.7216C148.529 37.6739 146.587 43.4703 147.381 44.1906C148.572 45.2486 151.523 44.3482 152.564 43.9093C152.697 43.8569 152.843 43.8605 152.973 43.9193C153.103 43.978 153.207 44.0874 153.261 44.2244C153.288 44.2931 153.301 44.3666 153.3 44.4406C153.299 44.5145 153.284 44.5876 153.256 44.6555C153.228 44.7235 153.188 44.785 153.137 44.8366C153.086 44.8881 153.027 44.9287 152.961 44.956C151.732 45.4683 150.43 45.7575 149.109 45.8114Z" fill="#231F20"/>
<path d="M158.317 32.9874C159.157 32.7965 159.629 31.6321 159.371 30.3867C159.114 29.1414 158.225 28.2866 157.385 28.4775C156.545 28.6685 156.073 29.8328 156.33 31.0782C156.587 32.3235 157.477 33.1783 158.317 32.9874Z" fill="#231F20"/>
<path d="M146.023 32.4474C146.132 31.1731 145.524 30.0743 144.665 29.9932C143.805 29.9121 143.02 30.8793 142.911 32.1536C142.802 33.4279 143.41 34.5267 144.269 34.6078C145.128 34.6889 145.913 33.7217 146.023 32.4474Z" fill="#231F20"/>
<path d="M149.806 59.2276C148.556 59.2738 147.331 58.8418 146.362 58.012C143.239 55.097 143.539 49.3681 143.55 49.1317C143.557 48.9994 143.608 48.8737 143.694 48.7769C143.781 48.6802 143.897 48.6185 144.022 48.6028C158.144 46.8695 158.284 47.0045 158.509 47.2184C158.566 47.2726 158.611 47.3386 158.643 47.4122C158.674 47.4858 158.691 47.5654 158.691 47.6461C158.7 49.9268 158.189 52.1767 157.2 54.2078C156.6 55.4565 155.738 56.546 154.679 57.3942C153.619 58.2423 152.39 58.8269 151.083 59.1038C150.662 59.1837 150.235 59.2251 149.806 59.2276ZM144.613 49.672C144.613 51.0339 144.816 55.0632 147.048 57.1566C147.589 57.587 148.214 57.886 148.879 58.032C149.543 58.178 150.23 58.1673 150.89 58.0008C152.037 57.7541 153.115 57.238 154.045 56.4914C154.974 55.7448 155.73 54.787 156.255 53.6901C157.082 51.989 157.54 50.1173 157.597 48.2088C155.74 48.3439 149.109 49.1205 144.613 49.672Z" fill="#231F20"/>
<path d="M156.728 53.9601C154.184 58.9349 148.926 59.5877 146.716 57.5955C147.445 55.6597 148.626 53.7013 150.547 53.1498C152.633 52.6419 154.824 52.9292 156.728 53.9601Z" fill="#231F20"/>
<path d="M149.806 59.2277C148.556 59.2688 147.334 58.8374 146.362 58.0121C146.279 57.9377 146.221 57.8377 146.196 57.7264C146.171 57.6152 146.18 57.4985 146.222 57.3931C147.209 54.7369 148.626 53.1274 150.407 52.6097C152.616 52.0767 154.933 52.3755 156.953 53.4538C157.02 53.4821 157.08 53.5263 157.129 53.5829C157.177 53.6395 157.212 53.707 157.232 53.7802C157.261 53.8493 157.276 53.9241 157.276 53.9997C157.276 54.0753 157.261 54.1501 157.232 54.2192C156.633 55.4678 155.771 56.5574 154.711 57.4055C153.651 58.2537 152.422 58.8382 151.115 59.1151C150.683 59.1932 150.245 59.2309 149.806 59.2277ZM147.36 57.4156C148.423 58.0724 149.684 58.2853 150.89 58.0121C151.942 57.7889 152.938 57.3357 153.813 56.6823C154.687 56.0288 155.421 55.1895 155.966 54.2192C154.307 53.4472 152.454 53.2616 150.686 53.6902C149.366 54.0841 148.207 55.3334 147.36 57.4156Z" fill="#231F20"/>
<path d="M128.484 81.2314C128.613 82.4132 120.543 124.631 120.543 124.631L128.484 81.2314Z" fill="#231F20"/>
<path d="M120.543 125.183H120.393C120.324 125.171 120.258 125.144 120.198 125.104C120.139 125.064 120.089 125.012 120.049 124.951C120.01 124.89 119.983 124.821 119.971 124.749C119.958 124.676 119.959 124.602 119.975 124.53C123.194 107.827 127.915 82.5369 127.915 81.2764C127.906 81.2036 127.912 81.1297 127.931 81.0592C127.95 80.9886 127.983 80.9229 128.027 80.866C128.071 80.8092 128.126 80.7623 128.188 80.7284C128.25 80.6944 128.318 80.6741 128.388 80.6686C128.529 80.6559 128.67 80.7017 128.781 80.7963C128.891 80.8908 128.961 81.0267 128.978 81.1751C129.096 82.3906 122.368 117.687 121.015 124.744C120.994 124.861 120.936 124.968 120.851 125.048C120.766 125.127 120.657 125.175 120.543 125.183Z" fill="#231F20"/>
<path d="M191.904 28.2224L173.871 26.3244C171.907 26.1177 170.155 27.6198 169.958 29.6794L165.917 71.9217C165.72 73.9813 167.152 75.8184 169.116 76.0251L187.15 77.9231C189.113 78.1297 190.865 76.6276 191.062 74.568L195.103 32.3258C195.3 30.2662 193.868 28.429 191.904 28.2224Z" fill="#231F20"/>
<path d="M187.503 78.5301H187.085L169.057 76.628C167.973 76.5142 166.976 75.9535 166.286 75.0692C165.596 74.1849 165.269 73.0493 165.377 71.912L169.422 29.6265C169.533 28.4905 170.068 27.4469 170.911 26.7235C171.753 26.0002 172.835 25.6559 173.918 25.766L191.946 27.6681C192.484 27.7244 193.006 27.8914 193.482 28.1595C193.958 28.4277 194.379 28.7917 194.721 29.2308C195.063 29.6699 195.319 30.1755 195.474 30.7185C195.63 31.2615 195.681 31.8313 195.627 32.3953L191.581 74.647C191.48 75.7089 191.007 76.6937 190.254 77.4109C189.501 78.1282 188.521 78.527 187.503 78.5301ZM173.553 26.8915C172.852 26.8874 172.172 27.1424 171.633 27.6118C171.018 28.1518 170.633 28.9245 170.559 29.7616L166.514 72.0021C166.436 72.8435 166.679 73.683 167.19 74.3369C167.701 74.9908 168.438 75.4058 169.24 75.4912L187.267 77.3933C187.665 77.4353 188.066 77.3946 188.449 77.2735C188.831 77.1525 189.187 76.9535 189.496 76.6879C189.805 76.4223 190.061 76.0954 190.25 75.7259C190.438 75.3564 190.555 74.9515 190.594 74.5345L194.639 32.3052C194.717 31.4626 194.475 30.6218 193.964 29.9661C193.453 29.3104 192.716 28.893 191.914 28.8049L173.886 26.9028L173.553 26.8915Z" fill="#231F20"/>
<path d="M235.652 108.705C235.652 108.705 243.067 124.992 244.495 131.384C248.926 151.193 231.972 177.373 211.433 164.204C204.694 159.894 200.176 152.555 197.183 144.902C190.798 128.593 187.6 110.529 186.452 92.9932C185.926 85.1146 187.321 71.7435 178.06 68.4344C175.077 67.3089 171.622 70.7643 170.924 69.3461C169.755 66.9037 173.886 61.1749 180.4 64.3038C180.4 64.3038 175.871 59.4078 171.214 60.7922C166.557 62.1766 168.553 57.2919 171.504 56.2001C174.176 55.2097 180.4 56.0538 182.578 60.6346C182.578 60.6346 180.528 53.4764 176.912 52.6885C173.296 51.9006 172.094 50.8877 172.309 49.7509C172.673 47.7588 176.011 48.2202 177.985 48.6254C179.96 49.0306 185.207 52.0807 186.57 56.065C186.57 56.065 184.81 49.7622 180.378 46.8358C177.61 45.0012 175.345 45.2489 175.925 44.3034C176.504 43.358 179.724 40.9269 183.801 44.0446C187.879 47.1622 193.277 57.1343 193.277 57.1343C193.277 57.1343 193.277 50.2461 193.856 50.3812C196.979 51.2028 198.599 59.2165 199.028 61.8052C200.037 67.9392 201.915 72.2162 204.63 77.9338C209.684 88.6149 215.693 103.573 220.222 114.479" fill="white"/>
<path d="M222.529 168.324C218.489 168.24 214.551 166.981 211.154 164.688C205.123 160.828 200.262 154.244 196.689 145.116C190.83 130.18 187.203 112.656 185.904 93.0381C185.819 91.7663 185.786 90.3707 185.744 88.8963C185.55 81.1977 185.314 71.6309 177.878 68.9634C176.451 68.4569 174.82 69.1322 173.5 69.6725C172.18 70.2127 170.957 70.7192 170.431 69.6049C169.905 68.4907 170.323 66.4648 171.686 64.9903C172.483 64.1508 173.46 63.5236 174.535 63.1613C175.611 62.7991 176.753 62.7123 177.867 62.9081C176.204 61.7826 173.768 60.6571 171.343 61.3324C168.918 62.0077 168.124 61.0961 167.973 60.4545C167.501 58.9126 169.218 56.4477 171.311 55.6711C172.924 55.2403 174.609 55.1844 176.245 55.5071C177.882 55.8298 179.431 56.5234 180.786 57.5394C179.874 55.6711 178.511 53.6114 176.783 53.24C174.444 52.7223 171.418 51.7993 171.772 49.6383C172.266 46.9033 176.644 47.7812 178.071 48.0626C180.17 48.7129 182.113 49.8257 183.769 51.3266C182.807 49.7237 181.535 48.3509 180.035 47.2973C179.028 46.656 177.946 46.1565 176.816 45.8116C175.989 45.5302 175.442 45.3501 175.27 44.8437C175.227 44.6997 175.217 44.547 175.241 44.3982C175.265 44.2494 175.323 44.1088 175.41 43.9883C176.215 42.94 177.362 42.2421 178.629 42.0299C179.577 41.8845 180.544 41.9475 181.467 42.2149C182.391 42.4822 183.252 42.9482 183.994 43.5831C187.106 45.9804 190.873 52.0807 192.579 55.0971C192.676 50.46 193.105 50.1111 193.277 49.9647C193.435 49.8569 193.626 49.8129 193.813 49.8409C197.301 50.7639 198.953 59.1602 199.372 61.7151C200.37 67.7816 202.215 71.9798 204.919 77.6974C208.997 86.3076 213.644 97.574 217.732 107.501L220.533 114.254C220.561 114.322 220.576 114.395 220.578 114.469C220.579 114.544 220.566 114.617 220.541 114.686C220.515 114.755 220.476 114.818 220.427 114.872C220.377 114.925 220.319 114.968 220.254 114.997C220.123 115.054 219.975 115.055 219.843 115.001C219.711 114.946 219.604 114.84 219.545 114.704L216.755 107.951C212.667 98.0242 208.031 86.7915 203.964 78.1926C201.217 72.3962 199.339 68.1305 198.32 61.9064C197.58 57.4832 196.013 52.1707 193.92 51.079C193.697 53.0848 193.6 55.1038 193.631 57.123C193.627 57.2449 193.586 57.3623 193.514 57.4576C193.441 57.5528 193.341 57.6208 193.228 57.6513C193.116 57.6817 192.997 57.673 192.889 57.6265C192.782 57.5799 192.692 57.498 192.633 57.3931C192.579 57.3031 187.267 47.5224 183.297 44.4947C182.683 43.9606 181.971 43.5642 181.205 43.3299C180.439 43.0957 179.635 43.0286 178.844 43.1329C177.917 43.2971 177.064 43.7661 176.408 44.4722L177.148 44.7424C178.361 45.1172 179.522 45.6544 180.603 46.3406C185.153 49.3457 186.945 55.6261 187.042 55.8849C187.086 56.0342 187.072 56.1957 187.002 56.334C186.933 56.4722 186.814 56.5759 186.672 56.6222C186.529 56.6684 186.375 56.6535 186.244 56.5807C186.112 56.5079 186.013 56.3831 185.969 56.2339C184.724 52.4634 179.648 49.4808 177.846 49.1769C174.777 48.5579 172.985 48.7942 172.791 49.8522C172.631 50.7076 174.122 51.5067 176.976 52.1032C180.872 52.9474 182.964 60.1394 183.05 60.4433C183.078 60.5743 183.06 60.7113 183 60.8296C182.939 60.948 182.841 61.0399 182.722 61.0887C182.603 61.1376 182.471 61.1403 182.35 61.0962C182.229 61.0522 182.127 60.9643 182.063 60.8485C180.045 56.6165 174.165 55.7611 171.643 56.6953C169.959 57.3256 168.725 59.2952 168.961 60.0719C169.089 60.4883 169.883 60.5446 171.021 60.2069C175.936 58.755 180.539 63.6622 180.743 63.8648C180.821 63.9669 180.864 64.094 180.864 64.225C180.864 64.356 180.821 64.4831 180.743 64.5852C180.673 64.6931 180.569 64.7716 180.449 64.8066C180.329 64.8417 180.201 64.831 180.088 64.7765C175.7 62.6605 173.081 64.9678 172.373 65.7332C171.364 66.8587 170.914 68.2206 171.3 69.0534C171.504 69.1998 172.459 68.8058 173.028 68.5695C174.423 67.9955 176.343 67.2189 178.135 67.8604C186.28 70.7755 186.538 80.7813 186.72 88.8175C186.72 90.2806 186.795 91.665 186.881 92.9143C188.169 112.408 191.774 129.82 197.612 144.688C201.099 153.591 205.821 159.995 211.648 163.732C218.998 168.436 226.596 168.335 233.034 163.439C241.672 156.889 246.448 142.865 243.904 131.508C242.509 125.25 235.17 109.11 235.105 108.998C235.074 108.931 235.056 108.859 235.052 108.785C235.047 108.711 235.057 108.637 235.08 108.567C235.103 108.497 235.138 108.433 235.185 108.377C235.232 108.322 235.289 108.276 235.352 108.244C235.415 108.211 235.484 108.192 235.555 108.188C235.625 108.183 235.696 108.193 235.763 108.217C235.829 108.241 235.891 108.279 235.944 108.328C235.997 108.377 236.04 108.436 236.071 108.503C236.371 109.178 243.529 124.913 244.956 131.294C247.628 143.247 242.81 157.485 233.667 164.396C230.446 166.912 226.545 168.288 222.529 168.324Z" fill="#231F20"/>
<path d="M182.331 36.6835C183.439 36.6835 184.338 35.7412 184.338 34.5788C184.338 33.4164 183.439 32.4741 182.331 32.4741C181.223 32.4741 180.324 33.4164 180.324 34.5788C180.324 35.7412 181.223 36.6835 182.331 36.6835Z" fill="white"/>
<path d="M182.331 37.2576C181.826 37.2598 181.331 37.1046 180.909 36.8116C180.488 36.5186 180.159 36.101 179.964 35.6118C179.769 35.1225 179.717 34.5836 179.814 34.0632C179.912 33.5428 180.154 33.0645 180.511 32.6887C180.867 32.313 181.322 32.0567 181.818 31.9524C182.314 31.8482 182.828 31.9006 183.295 32.103C183.763 32.3054 184.162 32.6487 184.443 33.0895C184.724 33.5302 184.874 34.0486 184.874 34.5789C184.872 35.2864 184.603 35.9644 184.127 36.4658C183.651 36.9672 183.006 37.2517 182.331 37.2576ZM182.331 33.0369C182.037 33.0347 181.75 33.1242 181.504 33.294C181.259 33.4638 181.068 33.7062 180.954 33.9905C180.841 34.2748 180.811 34.588 180.868 34.8903C180.924 35.1927 181.066 35.4705 181.273 35.6884C181.481 35.9062 181.746 36.0544 182.034 36.114C182.322 36.1735 182.621 36.1418 182.892 36.0229C183.163 35.9039 183.394 35.7031 183.556 35.446C183.718 35.1888 183.803 34.887 183.801 34.5789C183.806 34.3735 183.771 34.1694 183.699 33.9784C183.627 33.7874 183.519 33.6134 183.382 33.4666C183.245 33.3198 183.082 33.2032 182.901 33.1236C182.721 33.0441 182.527 33.0031 182.331 33.0031V33.0369Z" fill="#231F20"/>
<path d="M229.193 137.406C229.088 137.406 228.985 137.374 228.898 137.314C228.81 137.254 228.741 137.169 228.699 137.068L218.805 112.633C218.774 112.565 218.757 112.49 218.755 112.415C218.752 112.339 218.764 112.263 218.79 112.193C218.815 112.122 218.854 112.057 218.905 112.003C218.955 111.948 219.015 111.905 219.081 111.875C219.148 111.846 219.219 111.831 219.291 111.831C219.364 111.831 219.435 111.846 219.502 111.876C219.568 111.906 219.628 111.949 219.678 112.004C219.728 112.059 219.767 112.123 219.792 112.194L229.686 136.629C229.74 136.765 229.741 136.918 229.689 137.055C229.637 137.191 229.536 137.301 229.407 137.361C229.34 137.392 229.266 137.407 229.193 137.406Z" fill="#231F20"/>
<path d="M95.2509 115.481L90.0035 142.797L71.9222 120.501C71.9222 120.501 68.821 115.076 66.8358 114.288C64.475 113.365 54.7207 112.746 51.4693 109.955C48.2179 107.163 46.4473 106.578 46.1039 108.716C45.7605 110.855 54.6885 116.46 54.6885 116.46C54.6885 116.46 47.5848 118.632 46.1039 118.013C44.6231 117.394 40.9961 109.358 39.5152 109.358C38.7533 109.358 37.1544 111.058 38.646 114.592C37.3691 111.215 35.5448 107.411 33.9996 107.411C32.4544 107.411 32.5295 110.258 33.4952 114.051C33.4952 114.051 29.6 107.4 28.1298 111.497C26.7348 115.256 36.9935 128.548 39.3543 129.167C41.715 129.786 57.382 124.823 57.382 124.823C57.382 124.823 76.3969 181.74 103.996 189.168C110.864 191.014 120.543 124.631 120.543 124.631L95.2509 115.481Z" fill="white"/>
<path d="M104.297 189.765C104.152 189.768 104.007 189.749 103.868 189.708C92.2784 186.591 80.8394 174.739 69.8833 154.491C64.9112 145.194 60.6312 135.509 57.0815 125.52C54.0983 126.455 41.5218 130.293 39.2576 129.707C37.2402 129.19 31.4134 121.919 28.8595 116.741C27.6254 114.243 27.2284 112.453 27.6576 111.294C27.7574 110.865 27.9755 110.476 28.2846 110.175C28.5937 109.875 28.9803 109.677 29.396 109.606C30.4691 109.516 31.6066 110.517 32.4972 111.575C32.186 109.572 32.3041 108.199 32.8299 107.467C32.9748 107.27 33.162 107.111 33.3764 107.003C33.5908 106.895 33.8263 106.842 34.0639 106.848C35.137 106.848 36.3925 108.188 37.6909 110.81C37.7749 110.457 37.9165 110.122 38.1094 109.82C38.2579 109.537 38.469 109.297 38.7249 109.119C38.9809 108.94 39.274 108.829 39.5795 108.795C40.6526 108.795 41.7901 110.63 43.6143 113.624C44.5586 115.166 45.8463 117.27 46.3614 117.484C47.1448 117.822 50.6537 117.045 53.4115 116.269C50.6215 114.434 45.3634 110.641 45.6424 108.638C45.6506 108.28 45.7559 107.932 45.946 107.635C46.1361 107.338 46.403 107.104 46.7155 106.961C47.7886 106.533 49.2802 107.298 51.8663 109.516C53.9481 111.305 59.0559 112.194 62.7902 112.892C64.2403 113.091 65.6748 113.4 67.0826 113.815C69.1751 114.648 72.1046 119.69 72.4479 120.264L89.7567 141.649L94.7894 115.47C94.8049 115.391 94.8358 115.316 94.8801 115.25C94.9244 115.184 94.9812 115.129 95.047 115.087C95.1166 115.056 95.1914 115.04 95.267 115.04C95.3425 115.04 95.4173 115.056 95.4869 115.087L120.779 124.237C120.898 124.281 120.999 124.366 121.064 124.479C121.128 124.593 121.153 124.726 121.134 124.856C120.779 127.299 112.334 184.767 105.456 189.528C105.102 189.73 104.697 189.812 104.297 189.765ZM57.3926 124.26C57.5046 124.259 57.6139 124.296 57.7046 124.364C57.7953 124.433 57.8627 124.531 57.897 124.643C58.0902 125.205 77.1373 181.357 104.136 188.628C104.254 188.651 104.376 188.646 104.493 188.615C104.609 188.584 104.718 188.527 104.812 188.448C109.963 184.88 116.927 145.678 119.953 125.003L95.6586 116.224L90.54 142.91C90.5212 143.014 90.4736 143.11 90.403 143.186C90.3323 143.262 90.2419 143.315 90.143 143.337C90.0466 143.367 89.9441 143.365 89.8485 143.333C89.7529 143.301 89.6687 143.24 89.6065 143.157L71.5251 120.861C70.6344 119.33 68.1342 115.402 66.6533 114.817C65.3146 114.43 63.9522 114.141 62.5756 113.95C58.5086 113.241 53.4437 112.363 51.1366 110.382C48.3573 107.996 47.3916 107.872 47.0589 108.007C46.7263 108.142 46.737 108.48 46.6941 108.795C46.5438 109.865 50.8791 113.376 55.0104 115.976C55.1003 116.032 55.1724 116.115 55.218 116.214C55.2636 116.313 55.2806 116.424 55.2669 116.533C55.2532 116.641 55.2094 116.744 55.141 116.827C55.0725 116.91 54.9824 116.97 54.8816 117C53.6691 117.372 47.5203 119.251 45.9536 118.531C45.1595 118.193 44.2045 116.674 42.7344 114.232C41.7794 112.656 40.1697 110.022 39.5903 109.921C39.349 110.013 39.1473 110.193 39.0215 110.427C38.7705 110.951 38.6398 111.529 38.6398 112.116C38.6398 112.702 38.7705 113.28 39.0215 113.804C39.1074 114.006 39.1825 114.209 39.2576 114.412C39.3068 114.548 39.3038 114.698 39.2493 114.832C39.1948 114.966 39.093 115.072 38.9653 115.129C38.8376 115.186 38.6939 115.189 38.5643 115.137C38.4348 115.085 38.3294 114.982 38.2704 114.851C38.1738 114.625 38.0987 114.412 38.0236 114.209C36.253 109.639 34.8043 107.996 34.1068 107.996C34.0333 107.991 33.9597 108.004 33.8923 108.036C33.825 108.067 33.766 108.115 33.7205 108.176C33.5381 108.424 33.023 109.583 34.1283 113.928C34.1594 114.059 34.1453 114.198 34.0883 114.319C34.0314 114.441 33.9353 114.537 33.8171 114.592C33.6989 114.644 33.5668 114.65 33.4447 114.608C33.3227 114.567 33.2188 114.481 33.1518 114.367C32.2397 112.813 30.512 110.63 29.5248 110.754C29.2136 110.754 28.9346 111.114 28.6985 111.722C28.4625 112.329 28.4517 113.399 29.8575 116.224C32.4865 121.547 38.1309 128.244 39.5152 128.604C41.1462 129.032 51.0186 126.252 57.2532 124.282C57.2947 124.268 57.3381 124.26 57.3819 124.26H57.3926Z" fill="#231F20"/>
<path d="M42.0584 120.219C41.972 120.222 41.8865 120.201 41.8096 120.16C41.7327 120.119 41.667 120.058 41.6184 119.983L38.2167 114.918C38.1758 114.858 38.1467 114.791 38.131 114.719C38.1154 114.648 38.1135 114.574 38.1255 114.501C38.1374 114.429 38.1631 114.36 38.2009 114.298C38.2387 114.236 38.2878 114.183 38.3455 114.141C38.4018 114.097 38.4661 114.065 38.5346 114.048C38.6031 114.03 38.6742 114.028 38.7436 114.041C38.813 114.053 38.8792 114.081 38.9381 114.121C38.997 114.162 39.0473 114.215 39.0859 114.276L42.4876 119.33C42.5288 119.391 42.5581 119.459 42.5739 119.531C42.5897 119.604 42.5917 119.679 42.5797 119.752C42.5678 119.825 42.5421 119.895 42.5042 119.958C42.4662 120.021 42.4168 120.075 42.3588 120.118C42.2716 120.184 42.1663 120.22 42.0584 120.219Z" fill="#231F20"/>
<path d="M33.5381 114.04C34.7272 115.994 36.0242 117.873 37.4227 119.668L33.5381 114.04Z" fill="white"/>
<path d="M37.4226 120.219C37.3481 120.22 37.2741 120.205 37.2056 120.174C37.1372 120.143 37.0758 120.097 37.0256 120.039C35.603 118.231 34.2878 116.333 33.0874 114.355C33.0098 114.231 32.982 114.08 33.0101 113.934C33.0382 113.789 33.12 113.661 33.2376 113.579C33.3589 113.498 33.5057 113.47 33.6462 113.502C33.7868 113.533 33.9098 113.621 33.9888 113.747C35.1609 115.664 36.4363 117.509 37.8089 119.274C37.8848 119.351 37.9364 119.452 37.9571 119.561C37.9777 119.67 37.9664 119.783 37.9246 119.885C37.8828 119.987 37.8125 120.074 37.7229 120.134C37.6333 120.193 37.5287 120.223 37.4226 120.219Z" fill="#231F20"/>
<path d="M33.5596 186.625H239.419L272.448 254.437H0.530273L33.5596 186.625Z" fill="white"/>
<path d="M272.448 255H0.530252C0.437654 255 0.346491 254.976 0.265633 254.928C0.184776 254.881 0.116977 254.812 0.0688276 254.729C0.0237039 254.645 0 254.55 0 254.454C0 254.357 0.0237039 254.262 0.0688276 254.178L33.1089 186.366C33.1518 186.273 33.2191 186.195 33.3027 186.142C33.3864 186.088 33.4829 186.06 33.5811 186.062H239.419C239.517 186.06 239.614 186.088 239.697 186.142C239.781 186.195 239.848 186.273 239.891 186.366L272.931 254.178C272.976 254.262 273 254.357 273 254.454C273 254.55 272.976 254.645 272.931 254.729C272.881 254.816 272.81 254.886 272.725 254.934C272.64 254.981 272.544 255.004 272.448 255ZM1.41018 253.874H271.568L239.086 187.199H33.8923L1.41018 253.874Z" fill="#D1D3D4"/>
<path d="M191.785 224.779C207.721 224.779 220.64 220.698 220.64 215.663C220.64 210.628 207.721 206.546 191.785 206.546C175.849 206.546 162.93 210.628 162.93 215.663C162.93 220.698 175.849 224.779 191.785 224.779Z" fill="white"/>
<path d="M191.785 225.342C177.341 225.342 162.393 221.718 162.393 215.663C162.393 209.608 177.341 205.995 191.785 205.995C206.229 205.995 221.187 209.608 221.187 215.663C221.187 221.718 206.239 225.342 191.785 225.342ZM191.785 207.12C174.841 207.12 163.466 211.532 163.466 215.663C163.466 219.793 174.841 224.217 191.785 224.217C208.729 224.217 220.114 219.793 220.114 215.663C220.114 211.532 208.729 207.12 191.785 207.12Z" fill="#D1D3D4"/>
<path d="M52.596 216.923L52.8857 220.379L127.025 231.746L126.274 228.122L52.596 216.923Z" fill="white"/>
<path d="M127.025 232.309H126.939L52.7891 220.964C52.6709 220.944 52.5623 220.884 52.4807 220.792C52.399 220.7 52.3489 220.583 52.3384 220.458L52.038 217.002C52.032 216.918 52.0433 216.833 52.0711 216.753C52.0988 216.674 52.1424 216.601 52.1989 216.541C52.2601 216.485 52.3318 216.443 52.4095 216.417C52.4871 216.392 52.5689 216.384 52.6496 216.394L126.327 227.582C126.436 227.599 126.537 227.651 126.617 227.729C126.697 227.807 126.753 227.909 126.778 228.021L127.518 231.645C127.539 231.734 127.537 231.827 127.515 231.915C127.493 232.004 127.449 232.085 127.39 232.152C127.291 232.251 127.161 232.307 127.025 232.309ZM53.3901 219.929L126.359 231.116L125.855 228.663L53.1862 217.587L53.3901 219.929Z" fill="#231F20"/>
<path d="M52.596 216.935C52.596 216.935 69.4648 201.751 70.0335 201.898C70.6023 202.044 146.405 211.555 146.405 211.555L126.274 228.122L52.596 216.935Z" fill="white"/>
<path d="M126.274 228.685H126.198L52.5209 217.497C52.4175 217.483 52.3205 217.437 52.2422 217.365C52.1638 217.293 52.1077 217.198 52.0809 217.092C52.0494 216.991 52.0479 216.882 52.0766 216.779C52.1053 216.677 52.1629 216.586 52.2419 216.518C69.336 201.144 69.8189 201.268 70.1515 201.358C71.289 201.56 145.718 210.913 146.469 211.003C146.576 211.02 146.675 211.068 146.757 211.141C146.839 211.215 146.899 211.312 146.93 211.42C146.956 211.526 146.952 211.639 146.917 211.743C146.883 211.847 146.82 211.938 146.737 212.005L126.606 228.572C126.51 228.647 126.393 228.687 126.274 228.685ZM53.8622 216.552L126.145 227.526L145.074 211.96C130.351 210.114 73.8 202.956 70.1194 202.483C68.8853 203.215 59.8929 211.116 53.8622 216.552Z" fill="#231F20"/>
<path d="M127.025 231.746L146.705 215.01L146.405 211.555L126.274 228.122L127.025 231.746Z" fill="white"/>
<path d="M127.025 232.309C126.964 232.321 126.903 232.321 126.842 232.309C126.756 232.276 126.679 232.221 126.619 232.148C126.559 232.075 126.517 231.987 126.499 231.893L125.748 228.268C125.728 228.165 125.735 228.058 125.769 227.959C125.803 227.859 125.862 227.772 125.941 227.706L146.083 211.149C146.158 211.085 146.248 211.043 146.344 211.029C146.44 211.015 146.538 211.03 146.627 211.07C146.716 211.111 146.792 211.177 146.848 211.26C146.903 211.344 146.935 211.442 146.941 211.543L147.242 214.987C147.247 215.08 147.232 215.172 147.199 215.258C147.165 215.344 147.114 215.42 147.048 215.483L127.357 232.219C127.259 232.286 127.142 232.317 127.025 232.309ZM126.864 228.347L127.357 230.733L146.147 214.762L145.965 212.635L126.864 228.347Z" fill="#231F20"/>
<path d="M52.596 216.923L38.3455 166.86L116.487 180.839L126.274 228.122L52.596 216.923Z" fill="white"/>
<path d="M126.274 228.685H126.198L52.5209 217.497C52.4194 217.482 52.3239 217.438 52.246 217.368C52.168 217.298 52.1107 217.206 52.0809 217.103L37.8412 167.04C37.8153 166.948 37.8116 166.85 37.8303 166.756C37.8491 166.662 37.8896 166.574 37.9485 166.5C38.0093 166.428 38.0866 166.374 38.173 166.343C38.2594 166.311 38.352 166.303 38.4421 166.32L116.584 180.288C116.689 180.308 116.786 180.36 116.862 180.438C116.939 180.517 116.991 180.617 117.013 180.727L126.799 227.998C126.817 228.081 126.817 228.166 126.799 228.249C126.781 228.331 126.745 228.408 126.694 228.474C126.644 228.54 126.58 228.594 126.507 228.63C126.434 228.666 126.354 228.685 126.274 228.685ZM53.0145 216.462L125.587 227.48L116.036 181.334L39.1074 167.581L53.0145 216.462Z" fill="#231F20"/>
<path d="M170.034 189.652L169.347 189.776C167.249 190.095 165.338 191.218 163.981 192.927C163.228 194.138 162.811 195.546 162.779 196.991C162.747 198.437 163.1 199.863 163.799 201.11C166.868 206.906 174.347 208.504 180.088 209.067C180.896 209.202 181.723 209.136 182.503 208.876C182.87 208.78 183.199 208.564 183.443 208.26C183.686 207.956 183.832 207.578 183.858 207.182C183.884 206.786 183.79 206.391 183.589 206.054C183.388 205.717 183.09 205.456 182.739 205.308C182.134 205.007 181.484 204.817 180.818 204.745C177.255 204.126 173.478 203.62 170.205 201.943C168.306 200.93 165.645 198.566 166.986 196.113C167.474 195.316 168.176 194.689 169.003 194.312C172.287 192.668 175.442 193.918 178.661 194.931C178.895 195.018 179.143 195.056 179.391 195.043C179.698 194.951 179.964 194.746 180.137 194.464C180.311 194.182 180.381 193.844 180.335 193.513C180.228 192.027 178.811 191.048 177.492 190.507C175.115 189.565 172.549 189.271 170.034 189.652Z" fill="white"/>
<path d="M181.086 209.709C180.732 209.709 180.389 209.709 180.067 209.709C171.311 208.853 165.849 206.152 163.37 201.459C162.614 200.121 162.234 198.586 162.272 197.031C162.309 195.476 162.765 193.964 163.585 192.669C165.012 190.855 167.024 189.653 169.24 189.292L169.959 189.168C172.585 188.75 175.27 189.056 177.749 190.057C178.876 190.508 180.797 191.566 180.968 193.535C181.028 194.01 180.917 194.49 180.657 194.884C180.397 195.277 180.007 195.555 179.563 195.662C179.239 195.694 178.912 195.648 178.608 195.527L177.76 195.268C174.884 194.346 172.158 193.479 169.347 194.897C168.615 195.222 167.992 195.766 167.555 196.462C167.401 196.723 167.302 197.016 167.265 197.321C167.228 197.625 167.254 197.935 167.34 198.229C167.994 199.698 169.14 200.863 170.56 201.504C173.461 202.836 176.541 203.69 179.691 204.036L181.022 204.261C181.741 204.343 182.441 204.552 183.093 204.88C183.474 205.077 183.802 205.371 184.047 205.735C184.293 206.098 184.448 206.52 184.499 206.963C184.5 207.511 184.338 208.046 184.036 208.493C183.734 208.941 183.307 209.279 182.814 209.461C182.259 209.662 181.672 209.746 181.086 209.709ZM170.12 190.226L169.454 190.35C167.5 190.66 165.719 191.704 164.443 193.288C163.745 194.41 163.362 195.715 163.338 197.054C163.313 198.393 163.648 199.713 164.303 200.862C166.6 205.196 171.815 207.705 180.164 208.527C180.881 208.645 181.615 208.591 182.31 208.369C182.59 208.273 182.836 208.09 183.015 207.846C183.195 207.601 183.301 207.305 183.318 206.996C183.275 206.752 183.176 206.523 183.03 206.327C182.885 206.131 182.697 205.975 182.481 205.871C181.929 205.601 181.338 205.43 180.732 205.364L179.423 205.15C176.16 204.791 172.97 203.899 169.969 202.506C168.488 201.718 166.75 200.255 166.246 198.555C166.117 198.114 166.079 197.649 166.134 197.191C166.19 196.733 166.337 196.292 166.568 195.899C167.107 195 167.892 194.294 168.821 193.873C172.04 192.286 175.056 193.254 178.007 194.188L178.844 194.458C179.009 194.518 179.183 194.549 179.359 194.548C179.659 194.548 179.863 194.019 179.831 193.625C179.734 192.218 178.05 191.374 177.331 191.104C175.025 190.178 172.53 189.891 170.087 190.271L170.12 190.226Z" fill="#231F20"/>
<path d="M172.727 183.45C172.727 183.45 178.092 211.723 178.575 213.423C179.058 215.122 191.796 222.089 201.947 215.257L210.843 186.354L172.727 183.45Z" fill="white"/>
<path d="M192 218.792C188.952 218.762 185.935 218.156 183.093 217.002C180.861 216.102 178.329 214.65 178.06 213.626C177.62 211.926 172.427 184.767 172.201 183.619C172.184 183.534 172.186 183.445 172.209 183.361C172.231 183.276 172.273 183.199 172.33 183.135C172.384 183.07 172.452 183.019 172.529 182.986C172.605 182.953 172.688 182.938 172.77 182.944L210.886 185.848C210.967 185.854 211.045 185.88 211.115 185.922C211.185 185.965 211.245 186.023 211.291 186.094C211.336 186.164 211.366 186.244 211.378 186.329C211.389 186.413 211.382 186.499 211.358 186.58L202.462 215.483C202.419 215.606 202.34 215.712 202.237 215.787C199.176 217.812 195.618 218.857 192 218.792ZM173.392 184.058C174.24 188.504 178.758 211.769 179.09 213.322C179.241 213.704 181.237 215.28 184.778 216.484C188.319 217.689 195.24 219.062 201.496 214.931L210.081 186.906L173.392 184.058Z" fill="#231F20"/>
<path d="M210.867 184.62C211.05 179.827 202.637 175.583 192.076 175.14C181.515 174.697 172.806 178.223 172.623 183.015C172.44 187.808 180.853 192.052 191.414 192.495C201.975 192.938 210.685 189.412 210.867 184.62Z" fill="#231F20"/>
<path d="M193.362 193.535H191.506C180.496 193.063 172.03 188.639 172.191 183.462C172.298 180.907 174.487 178.633 178.372 177.069C182.807 175.45 187.505 174.773 192.193 175.077C203.203 175.55 211.669 179.973 211.508 185.206C211.412 187.761 209.223 190.024 205.338 191.599C201.487 192.983 197.432 193.638 193.362 193.535ZM190.358 176.124C186.421 176.046 182.503 176.709 178.79 178.082C175.378 179.455 173.425 181.458 173.296 183.473C173.124 187.863 181.483 191.948 191.538 192.376C196.079 192.672 200.63 192.021 204.93 190.463C208.343 189.078 210.296 187.086 210.424 185.071C210.596 180.671 202.237 176.596 192.182 176.157L190.358 176.124Z" fill="#231F20"/>
<path d="M117.356 58.89C117.356 58.89 110.435 58.3385 106.357 53.8928C108.718 50.6155 110.019 46.6325 110.07 42.5251C110.07 27.7133 92.418 15.7041 70.6345 15.7041C48.851 15.7041 31.1881 27.7133 31.1881 42.5251C31.1881 57.3368 48.851 69.3461 70.6345 69.3461C82.7495 69.3461 93.5984 65.6206 100.831 59.7679C106.349 60.3853 111.926 60.0891 117.356 58.89Z" fill="white"/>
<path d="M70.6345 69.8749C48.5827 69.8749 30.6516 57.5955 30.6516 42.4912C30.6516 27.3868 48.5827 15.1074 70.6345 15.1074C92.6862 15.1074 110.607 27.3755 110.607 42.4912C110.562 46.538 109.321 50.4706 107.055 53.7463C110.982 57.6968 117.324 58.2483 117.388 58.2483C117.517 58.2564 117.638 58.3135 117.729 58.4089C117.82 58.5043 117.874 58.6314 117.882 58.7661C117.893 58.9002 117.859 59.0342 117.784 59.1437C117.709 59.2531 117.599 59.3308 117.474 59.3626C112.058 60.5563 106.498 60.8639 100.992 60.2743C93.3837 66.3971 82.331 69.8749 70.6345 69.8749ZM70.6345 16.2329C49.1729 16.2329 31.7246 28.0058 31.7246 42.4912C31.7246 56.9765 49.1729 68.7494 70.6345 68.7494C82.1808 68.7494 93.0725 65.3053 100.509 59.2951C100.615 59.2073 100.75 59.1669 100.885 59.1825C105.365 59.646 109.882 59.5478 114.341 58.8899C111.199 58.1761 108.304 56.5722 105.971 54.2528C105.889 54.1526 105.843 54.0248 105.843 53.8926C105.843 53.7604 105.889 53.6326 105.971 53.5324C108.267 50.3506 109.53 46.4811 109.576 42.4912C109.534 28.0058 92.0853 16.2329 70.6345 16.2329Z" fill="#D1D3D4"/>
</svg>
