<svg width="279" height="38" viewBox="0 0 279 38" fill="none" xmlns="http://www.w3.org/2000/svg">
<path d="M26.224 3.088V28H22.948V9.424L14.668 28H12.364L4.048 9.388V28H0.772V3.088H4.3L13.516 23.68L22.732 3.088H26.224ZM33.4718 5.068C32.8478 5.068 32.3198 4.852 31.8878 4.42C31.4558 3.988 31.2398 3.46 31.2398 2.836C31.2398 2.212 31.4558 1.684 31.8878 1.252C32.3198 0.819999 32.8478 0.603999 33.4718 0.603999C34.0718 0.603999 34.5758 0.819999 34.9838 1.252C35.4158 1.684 35.6318 2.212 35.6318 2.836C35.6318 3.46 35.4158 3.988 34.9838 4.42C34.5758 4.852 34.0718 5.068 33.4718 5.068ZM35.0558 8.272V28H31.7798V8.272H35.0558ZM50.2512 7.912C52.6512 7.912 54.5952 8.644 56.0832 10.108C57.5712 11.548 58.3152 13.636 58.3152 16.372V28H55.0752V16.84C55.0752 14.872 54.5832 13.372 53.5992 12.34C52.6152 11.284 51.2712 10.756 49.5672 10.756C47.8392 10.756 46.4592 11.296 45.4272 12.376C44.4192 13.456 43.9152 15.028 43.9152 17.092V28H40.6392V8.272H43.9152V11.08C44.5632 10.072 45.4392 9.292 46.5432 8.74C47.6712 8.188 48.9072 7.912 50.2512 7.912ZM65.3585 5.068C64.7345 5.068 64.2065 4.852 63.7745 4.42C63.3425 3.988 63.1265 3.46 63.1265 2.836C63.1265 2.212 63.3425 1.684 63.7745 1.252C64.2065 0.819999 64.7345 0.603999 65.3585 0.603999C65.9585 0.603999 66.4625 0.819999 66.8705 1.252C67.3025 1.684 67.5185 2.212 67.5185 2.836C67.5185 3.46 67.3025 3.988 66.8705 4.42C66.4625 4.852 65.9585 5.068 65.3585 5.068ZM66.9425 8.272V28H63.6665V8.272H66.9425ZM96.2499 7.912C97.7859 7.912 99.1539 8.236 100.354 8.884C101.554 9.508 102.502 10.456 103.198 11.728C103.894 13 104.242 14.548 104.242 16.372V28H101.002V16.84C101.002 14.872 100.51 13.372 99.5259 12.34C98.5659 11.284 97.2579 10.756 95.6019 10.756C93.8979 10.756 92.5419 11.308 91.5339 12.412C90.5259 13.492 90.0219 15.064 90.0219 17.128V28H86.7819V16.84C86.7819 14.872 86.2899 13.372 85.3059 12.34C84.3459 11.284 83.0379 10.756 81.3819 10.756C79.6779 10.756 78.3219 11.308 77.3139 12.412C76.3059 13.492 75.8019 15.064 75.8019 17.128V28H72.5259V8.272H75.8019V11.116C76.4499 10.084 77.3139 9.292 78.3939 8.74C79.4979 8.188 80.7099 7.912 82.0299 7.912C83.6859 7.912 85.1499 8.284 86.4219 9.028C87.6939 9.772 88.6419 10.864 89.2659 12.304C89.8179 10.912 90.7299 9.832 92.0019 9.064C93.2739 8.296 94.6899 7.912 96.2499 7.912ZM127.112 8.272V28H123.836V25.084C123.212 26.092 122.336 26.884 121.208 27.46C120.104 28.012 118.88 28.288 117.536 28.288C116 28.288 114.62 27.976 113.396 27.352C112.172 26.704 111.2 25.744 110.48 24.472C109.784 23.2 109.436 21.652 109.436 19.828V8.272H112.676V19.396C112.676 21.34 113.168 22.84 114.152 23.896C115.136 24.928 116.48 25.444 118.184 25.444C119.936 25.444 121.316 24.904 122.324 23.824C123.332 22.744 123.836 21.172 123.836 19.108V8.272H127.112ZM139.627 28.324C138.115 28.324 136.759 28.072 135.559 27.568C134.359 27.04 133.411 26.32 132.715 25.408C132.019 24.472 131.635 23.404 131.563 22.204H134.947C135.043 23.188 135.499 23.992 136.315 24.616C137.155 25.24 138.247 25.552 139.591 25.552C140.839 25.552 141.823 25.276 142.543 24.724C143.263 24.172 143.623 23.476 143.623 22.636C143.623 21.772 143.239 21.136 142.471 20.728C141.703 20.296 140.515 19.876 138.907 19.468C137.443 19.084 136.243 18.7 135.307 18.316C134.395 17.908 133.603 17.32 132.931 16.552C132.283 15.76 131.959 14.728 131.959 13.456C131.959 12.448 132.259 11.524 132.859 10.684C133.459 9.844 134.311 9.184 135.415 8.704C136.519 8.2 137.779 7.948 139.195 7.948C141.379 7.948 143.143 8.5 144.487 9.604C145.831 10.708 146.551 12.22 146.647 14.14H143.371C143.299 13.108 142.879 12.28 142.111 11.656C141.367 11.032 140.359 10.72 139.087 10.72C137.911 10.72 136.975 10.972 136.279 11.476C135.583 11.98 135.235 12.64 135.235 13.456C135.235 14.104 135.439 14.644 135.847 15.076C136.279 15.484 136.807 15.82 137.431 16.084C138.079 16.324 138.967 16.6 140.095 16.912C141.511 17.296 142.663 17.68 143.551 18.064C144.439 18.424 145.195 18.976 145.819 19.72C146.467 20.464 146.803 21.436 146.827 22.636C146.827 23.716 146.527 24.688 145.927 25.552C145.327 26.416 144.475 27.1 143.371 27.604C142.291 28.084 141.043 28.324 139.627 28.324ZM168.861 2.908C171.597 2.908 173.961 3.424 175.953 4.456C177.969 5.464 179.505 6.916 180.561 8.812C181.641 10.708 182.181 12.94 182.181 15.508C182.181 18.076 181.641 20.308 180.561 22.204C179.505 24.076 177.969 25.516 175.953 26.524C173.961 27.508 171.597 28 168.861 28H161.049V2.908H168.861ZM168.861 25.3C172.101 25.3 174.573 24.448 176.277 22.744C177.981 21.016 178.833 18.604 178.833 15.508C178.833 12.388 177.969 9.952 176.241 8.2C174.537 6.448 172.077 5.572 168.861 5.572H164.325V25.3H168.861ZM204.502 17.38C204.502 18.004 204.466 18.664 204.394 19.36H188.626C188.746 21.304 189.406 22.828 190.606 23.932C191.83 25.012 193.306 25.552 195.034 25.552C196.45 25.552 197.626 25.228 198.562 24.58C199.522 23.908 200.194 23.02 200.578 21.916H204.106C203.578 23.812 202.522 25.36 200.938 26.56C199.354 27.736 197.386 28.324 195.034 28.324C193.162 28.324 191.482 27.904 189.994 27.064C188.53 26.224 187.378 25.036 186.538 23.5C185.698 21.94 185.278 20.14 185.278 18.1C185.278 16.06 185.686 14.272 186.502 12.736C187.318 11.2 188.458 10.024 189.922 9.208C191.41 8.368 193.114 7.948 195.034 7.948C196.906 7.948 198.562 8.356 200.002 9.172C201.442 9.988 202.546 11.116 203.314 12.556C204.106 13.972 204.502 15.58 204.502 17.38ZM201.118 16.696C201.118 15.448 200.842 14.38 200.29 13.492C199.738 12.58 198.982 11.896 198.022 11.44C197.086 10.96 196.042 10.72 194.89 10.72C193.234 10.72 191.818 11.248 190.642 12.304C189.49 13.36 188.83 14.824 188.662 16.696H201.118ZM215.811 28.324C214.299 28.324 212.943 28.072 211.743 27.568C210.543 27.04 209.595 26.32 208.899 25.408C208.203 24.472 207.819 23.404 207.747 22.204H211.131C211.227 23.188 211.683 23.992 212.499 24.616C213.339 25.24 214.431 25.552 215.775 25.552C217.023 25.552 218.007 25.276 218.727 24.724C219.447 24.172 219.807 23.476 219.807 22.636C219.807 21.772 219.423 21.136 218.655 20.728C217.887 20.296 216.699 19.876 215.091 19.468C213.627 19.084 212.427 18.7 211.491 18.316C210.579 17.908 209.787 17.32 209.115 16.552C208.467 15.76 208.143 14.728 208.143 13.456C208.143 12.448 208.443 11.524 209.043 10.684C209.643 9.844 210.495 9.184 211.599 8.704C212.703 8.2 213.963 7.948 215.379 7.948C217.563 7.948 219.327 8.5 220.671 9.604C222.015 10.708 222.735 12.22 222.831 14.14H219.555C219.483 13.108 219.063 12.28 218.295 11.656C217.551 11.032 216.543 10.72 215.271 10.72C214.095 10.72 213.159 10.972 212.463 11.476C211.767 11.98 211.419 12.64 211.419 13.456C211.419 14.104 211.623 14.644 212.031 15.076C212.463 15.484 212.991 15.82 213.615 16.084C214.263 16.324 215.151 16.6 216.279 16.912C217.695 17.296 218.847 17.68 219.735 18.064C220.623 18.424 221.379 18.976 222.003 19.72C222.651 20.464 222.987 21.436 223.011 22.636C223.011 23.716 222.711 24.688 222.111 25.552C221.511 26.416 220.659 27.1 219.555 27.604C218.475 28.084 217.227 28.324 215.811 28.324ZM229.327 5.068C228.703 5.068 228.175 4.852 227.743 4.42C227.311 3.988 227.095 3.46 227.095 2.836C227.095 2.212 227.311 1.684 227.743 1.252C228.175 0.819999 228.703 0.603999 229.327 0.603999C229.927 0.603999 230.431 0.819999 230.839 1.252C231.271 1.684 231.487 2.212 231.487 2.836C231.487 3.46 231.271 3.988 230.839 4.42C230.431 4.852 229.927 5.068 229.327 5.068ZM230.911 8.272V28H227.635V8.272H230.911ZM244.631 7.948C246.335 7.948 247.823 8.32 249.095 9.064C250.391 9.808 251.351 10.744 251.975 11.872V8.272H255.287V28.432C255.287 30.232 254.903 31.828 254.135 33.22C253.367 34.636 252.263 35.74 250.823 36.532C249.407 37.324 247.751 37.72 245.855 37.72C243.263 37.72 241.103 37.108 239.375 35.884C237.647 34.66 236.627 32.992 236.315 30.88H239.555C239.915 32.08 240.659 33.04 241.787 33.76C242.915 34.504 244.271 34.876 245.855 34.876C247.655 34.876 249.119 34.312 250.247 33.184C251.399 32.056 251.975 30.472 251.975 28.432V24.292C251.327 25.444 250.367 26.404 249.095 27.172C247.823 27.94 246.335 28.324 244.631 28.324C242.879 28.324 241.283 27.892 239.843 27.028C238.427 26.164 237.311 24.952 236.495 23.392C235.679 21.832 235.271 20.056 235.271 18.064C235.271 16.048 235.679 14.284 236.495 12.772C237.311 11.236 238.427 10.048 239.843 9.208C241.283 8.368 242.879 7.948 244.631 7.948ZM251.975 18.1C251.975 16.612 251.675 15.316 251.075 14.212C250.475 13.108 249.659 12.268 248.627 11.692C247.619 11.092 246.503 10.792 245.279 10.792C244.055 10.792 242.939 11.08 241.931 11.656C240.923 12.232 240.119 13.072 239.519 14.176C238.919 15.28 238.619 16.576 238.619 18.064C238.619 19.576 238.919 20.896 239.519 22.024C240.119 23.128 240.923 23.98 241.931 24.58C242.939 25.156 244.055 25.444 245.279 25.444C246.503 25.444 247.619 25.156 248.627 24.58C249.659 23.98 250.475 23.128 251.075 22.024C251.675 20.896 251.975 19.588 251.975 18.1ZM270.435 7.912C272.835 7.912 274.779 8.644 276.267 10.108C277.755 11.548 278.499 13.636 278.499 16.372V28H275.259V16.84C275.259 14.872 274.767 13.372 273.783 12.34C272.799 11.284 271.455 10.756 269.751 10.756C268.023 10.756 266.643 11.296 265.611 12.376C264.603 13.456 264.099 15.028 264.099 17.092V28H260.823V8.272H264.099V11.08C264.747 10.072 265.623 9.292 266.727 8.74C267.855 8.188 269.091 7.912 270.435 7.912Z" fill="#8B8982"/>
</svg>
