<svg width="186" height="26" viewBox="0 0 186 26" fill="none" xmlns="http://www.w3.org/2000/svg">
<path d="M17.816 2.392V19H15.632V6.616L10.112 19H8.576L3.032 6.592V19H0.848V2.392H3.2L9.344 16.12L15.488 2.392H17.816ZM22.6479 3.712C22.2319 3.712 21.8799 3.568 21.5919 3.28C21.3039 2.992 21.1599 2.64 21.1599 2.224C21.1599 1.808 21.3039 1.456 21.5919 1.168C21.8799 0.879999 22.2319 0.735999 22.6479 0.735999C23.0479 0.735999 23.3839 0.879999 23.6559 1.168C23.9439 1.456 24.0879 1.808 24.0879 2.224C24.0879 2.64 23.9439 2.992 23.6559 3.28C23.3839 3.568 23.0479 3.712 22.6479 3.712ZM23.7039 5.848V19H21.5199V5.848H23.7039ZM33.8341 5.608C35.4341 5.608 36.7301 6.096 37.7221 7.072C38.7141 8.032 39.2101 9.424 39.2101 11.248V19H37.0501V11.56C37.0501 10.248 36.7221 9.248 36.0661 8.56C35.4101 7.856 34.5141 7.504 33.3781 7.504C32.2261 7.504 31.3061 7.864 30.6181 8.584C29.9461 9.304 29.6101 10.352 29.6101 11.728V19H27.4261V5.848H29.6101V7.72C30.0421 7.048 30.6261 6.528 31.3621 6.16C32.1141 5.792 32.9381 5.608 33.8341 5.608ZM43.9057 3.712C43.4897 3.712 43.1377 3.568 42.8497 3.28C42.5617 2.992 42.4177 2.64 42.4177 2.224C42.4177 1.808 42.5617 1.456 42.8497 1.168C43.1377 0.879999 43.4897 0.735999 43.9057 0.735999C44.3057 0.735999 44.6417 0.879999 44.9137 1.168C45.2017 1.456 45.3457 1.808 45.3457 2.224C45.3457 2.64 45.2017 2.992 44.9137 3.28C44.6417 3.568 44.3057 3.712 43.9057 3.712ZM44.9617 5.848V19H42.7777V5.848H44.9617ZM64.4999 5.608C65.5239 5.608 66.4359 5.824 67.2359 6.256C68.0359 6.672 68.6679 7.304 69.1319 8.152C69.5959 9 69.8279 10.032 69.8279 11.248V19H67.6679V11.56C67.6679 10.248 67.3399 9.248 66.6839 8.56C66.0439 7.856 65.1719 7.504 64.0679 7.504C62.9319 7.504 62.0279 7.872 61.3559 8.608C60.6839 9.328 60.3479 10.376 60.3479 11.752V19H58.1879V11.56C58.1879 10.248 57.8599 9.248 57.2039 8.56C56.5639 7.856 55.6919 7.504 54.5879 7.504C53.4519 7.504 52.5479 7.872 51.8759 8.608C51.2039 9.328 50.8679 10.376 50.8679 11.752V19H48.6839V5.848H50.8679V7.744C51.2999 7.056 51.8759 6.528 52.5959 6.16C53.3319 5.792 54.1399 5.608 55.0199 5.608C56.1239 5.608 57.0999 5.856 57.9479 6.352C58.7959 6.848 59.4279 7.576 59.8439 8.536C60.2119 7.608 60.8199 6.888 61.6679 6.376C62.5159 5.864 63.4599 5.608 64.4999 5.608ZM85.0745 5.848V19H82.8905V17.056C82.4745 17.728 81.8905 18.256 81.1385 18.64C80.4025 19.008 79.5865 19.192 78.6905 19.192C77.6665 19.192 76.7465 18.984 75.9305 18.568C75.1145 18.136 74.4665 17.496 73.9865 16.648C73.5225 15.8 73.2905 14.768 73.2905 13.552V5.848H75.4505V13.264C75.4505 14.56 75.7785 15.56 76.4345 16.264C77.0905 16.952 77.9865 17.296 79.1225 17.296C80.2905 17.296 81.2105 16.936 81.8825 16.216C82.5545 15.496 82.8905 14.448 82.8905 13.072V5.848H85.0745ZM93.4181 19.216C92.4101 19.216 91.5061 19.048 90.7061 18.712C89.9061 18.36 89.2741 17.88 88.8101 17.272C88.3461 16.648 88.0901 15.936 88.0421 15.136H90.2981C90.3621 15.792 90.6661 16.328 91.2101 16.744C91.7701 17.16 92.4981 17.368 93.3941 17.368C94.2261 17.368 94.8821 17.184 95.3621 16.816C95.8421 16.448 96.0821 15.984 96.0821 15.424C96.0821 14.848 95.8261 14.424 95.3141 14.152C94.8021 13.864 94.0101 13.584 92.9381 13.312C91.9621 13.056 91.1621 12.8 90.5381 12.544C89.9301 12.272 89.4021 11.88 88.9541 11.368C88.5221 10.84 88.3061 10.152 88.3061 9.304C88.3061 8.632 88.5061 8.016 88.9061 7.456C89.3061 6.896 89.8741 6.456 90.6101 6.136C91.3461 5.8 92.1861 5.632 93.1301 5.632C94.5861 5.632 95.7621 6 96.6581 6.736C97.5541 7.472 98.0341 8.48 98.0981 9.76H95.9141C95.8661 9.072 95.5861 8.52 95.0741 8.104C94.5781 7.688 93.9061 7.48 93.0581 7.48C92.2741 7.48 91.6501 7.648 91.1861 7.984C90.7221 8.32 90.4901 8.76 90.4901 9.304C90.4901 9.736 90.6261 10.096 90.8981 10.384C91.1861 10.656 91.5381 10.88 91.9541 11.056C92.3861 11.216 92.9781 11.4 93.7301 11.608C94.6741 11.864 95.4421 12.12 96.0341 12.376C96.6261 12.616 97.1301 12.984 97.5461 13.48C97.9781 13.976 98.2021 14.624 98.2181 15.424C98.2181 16.144 98.0181 16.792 97.6181 17.368C97.2181 17.944 96.6501 18.4 95.9141 18.736C95.1941 19.056 94.3621 19.216 93.4181 19.216ZM112.908 2.272C114.732 2.272 116.308 2.616 117.636 3.304C118.98 3.976 120.004 4.944 120.708 6.208C121.428 7.472 121.788 8.96 121.788 10.672C121.788 12.384 121.428 13.872 120.708 15.136C120.004 16.384 118.98 17.344 117.636 18.016C116.308 18.672 114.732 19 112.908 19H107.7V2.272H112.908ZM112.908 17.2C115.068 17.2 116.716 16.632 117.852 15.496C118.988 14.344 119.556 12.736 119.556 10.672C119.556 8.592 118.98 6.968 117.828 5.8C116.692 4.632 115.052 4.048 112.908 4.048H109.884V17.2H112.908ZM136.668 11.92C136.668 12.336 136.644 12.776 136.596 13.24H126.084C126.164 14.536 126.604 15.552 127.404 16.288C128.22 17.008 129.204 17.368 130.356 17.368C131.3 17.368 132.084 17.152 132.708 16.72C133.348 16.272 133.796 15.68 134.052 14.944H136.404C136.052 16.208 135.348 17.24 134.292 18.04C133.236 18.824 131.924 19.216 130.356 19.216C129.108 19.216 127.988 18.936 126.996 18.376C126.02 17.816 125.252 17.024 124.692 16C124.132 14.96 123.852 13.76 123.852 12.4C123.852 11.04 124.124 9.848 124.668 8.824C125.212 7.8 125.972 7.016 126.948 6.472C127.94 5.912 129.076 5.632 130.356 5.632C131.604 5.632 132.708 5.904 133.668 6.448C134.628 6.992 135.364 7.744 135.876 8.704C136.404 9.648 136.668 10.72 136.668 11.92ZM134.412 11.464C134.412 10.632 134.228 9.92 133.86 9.328C133.492 8.72 132.988 8.264 132.348 7.96C131.724 7.64 131.028 7.48 130.26 7.48C129.156 7.48 128.212 7.832 127.428 8.536C126.66 9.24 126.22 10.216 126.108 11.464H134.412ZM144.207 19.216C143.199 19.216 142.295 19.048 141.495 18.712C140.695 18.36 140.063 17.88 139.599 17.272C139.135 16.648 138.879 15.936 138.831 15.136H141.087C141.151 15.792 141.455 16.328 141.999 16.744C142.559 17.16 143.287 17.368 144.183 17.368C145.015 17.368 145.671 17.184 146.151 16.816C146.631 16.448 146.871 15.984 146.871 15.424C146.871 14.848 146.615 14.424 146.103 14.152C145.591 13.864 144.799 13.584 143.727 13.312C142.751 13.056 141.951 12.8 141.327 12.544C140.719 12.272 140.191 11.88 139.743 11.368C139.311 10.84 139.095 10.152 139.095 9.304C139.095 8.632 139.295 8.016 139.695 7.456C140.095 6.896 140.663 6.456 141.399 6.136C142.135 5.8 142.975 5.632 143.919 5.632C145.375 5.632 146.551 6 147.447 6.736C148.343 7.472 148.823 8.48 148.887 9.76H146.703C146.655 9.072 146.375 8.52 145.863 8.104C145.367 7.688 144.695 7.48 143.847 7.48C143.063 7.48 142.439 7.648 141.975 7.984C141.511 8.32 141.279 8.76 141.279 9.304C141.279 9.736 141.415 10.096 141.687 10.384C141.975 10.656 142.327 10.88 142.743 11.056C143.175 11.216 143.767 11.4 144.519 11.608C145.463 11.864 146.231 12.12 146.823 12.376C147.415 12.616 147.919 12.984 148.335 13.48C148.767 13.976 148.991 14.624 149.007 15.424C149.007 16.144 148.807 16.792 148.407 17.368C148.007 17.944 147.439 18.4 146.703 18.736C145.983 19.056 145.151 19.216 144.207 19.216ZM153.218 3.712C152.802 3.712 152.45 3.568 152.162 3.28C151.874 2.992 151.73 2.64 151.73 2.224C151.73 1.808 151.874 1.456 152.162 1.168C152.45 0.879999 152.802 0.735999 153.218 0.735999C153.618 0.735999 153.954 0.879999 154.226 1.168C154.514 1.456 154.658 1.808 154.658 2.224C154.658 2.64 154.514 2.992 154.226 3.28C153.954 3.568 153.618 3.712 153.218 3.712ZM154.274 5.848V19H152.09V5.848H154.274ZM163.42 5.632C164.556 5.632 165.548 5.88 166.396 6.376C167.26 6.872 167.9 7.496 168.316 8.248V5.848H170.524V19.288C170.524 20.488 170.268 21.552 169.756 22.48C169.244 23.424 168.508 24.16 167.548 24.688C166.604 25.216 165.5 25.48 164.236 25.48C162.508 25.48 161.068 25.072 159.916 24.256C158.764 23.44 158.084 22.328 157.876 20.92H160.036C160.276 21.72 160.772 22.36 161.524 22.84C162.276 23.336 163.18 23.584 164.236 23.584C165.436 23.584 166.412 23.208 167.164 22.456C167.932 21.704 168.316 20.648 168.316 19.288V16.528C167.884 17.296 167.244 17.936 166.396 18.448C165.548 18.96 164.556 19.216 163.42 19.216C162.252 19.216 161.188 18.928 160.228 18.352C159.284 17.776 158.54 16.968 157.996 15.928C157.452 14.888 157.18 13.704 157.18 12.376C157.18 11.032 157.452 9.856 157.996 8.848C158.54 7.824 159.284 7.032 160.228 6.472C161.188 5.912 162.252 5.632 163.42 5.632ZM168.316 12.4C168.316 11.408 168.116 10.544 167.716 9.808C167.316 9.072 166.772 8.512 166.084 8.128C165.412 7.728 164.668 7.528 163.852 7.528C163.036 7.528 162.292 7.72 161.62 8.104C160.948 8.488 160.412 9.048 160.012 9.784C159.612 10.52 159.412 11.384 159.412 12.376C159.412 13.384 159.612 14.264 160.012 15.016C160.412 15.752 160.948 16.32 161.62 16.72C162.292 17.104 163.036 17.296 163.852 17.296C164.668 17.296 165.412 17.104 166.084 16.72C166.772 16.32 167.316 15.752 167.716 15.016C168.116 14.264 168.316 13.392 168.316 12.4ZM180.623 5.608C182.223 5.608 183.519 6.096 184.511 7.072C185.503 8.032 185.999 9.424 185.999 11.248V19H183.839V11.56C183.839 10.248 183.511 9.248 182.855 8.56C182.199 7.856 181.303 7.504 180.167 7.504C179.015 7.504 178.095 7.864 177.407 8.584C176.735 9.304 176.399 10.352 176.399 11.728V19H174.215V5.848H176.399V7.72C176.831 7.048 177.415 6.528 178.151 6.16C178.903 5.792 179.727 5.608 180.623 5.608Z" fill="#F8F7FF"/>
</svg>
