<svg width="245" height="245" viewBox="0 0 245 245" fill="none" xmlns="http://www.w3.org/2000/svg">
<circle cx="122.5" cy="122.5" r="122.5" fill="#6C63FF" fill-opacity="0.2"/>
<path d="M19.4706 174.67V182.714H188.61L210.536 154.796V145.154L19.4706 174.67Z" fill="white"/>
<path d="M188.61 183.022H19.4706C19.3887 183.022 19.3101 182.99 19.2522 182.932C19.1943 182.874 19.1618 182.796 19.1618 182.714V174.671C19.1609 174.596 19.1867 174.524 19.2346 174.468C19.2825 174.411 19.3492 174.373 19.4226 174.362L210.488 144.852C210.534 144.845 210.58 144.849 210.624 144.862C210.667 144.875 210.708 144.897 210.742 144.927C210.777 144.956 210.804 144.991 210.823 145.032C210.842 145.072 210.852 145.116 210.852 145.161V154.803C210.853 154.873 210.829 154.941 210.783 154.995L188.857 182.913C188.826 182.948 188.788 182.976 188.746 182.995C188.703 183.014 188.657 183.024 188.61 183.022ZM19.7863 182.398H188.466L210.234 154.686V145.524L19.7863 174.938V182.398Z" fill="#231F20"/>
<path d="M55.4108 100.168C54.117 100.21 52.8336 99.924 51.6804 99.336C50.5272 98.748 49.5416 97.8775 48.8157 96.8057C47.8757 95.1972 47.2863 93.4081 47.0863 91.5557C46.4343 87.3763 45.8304 83.2724 46.4549 79.0724C46.5799 77.8742 46.9291 76.7102 47.4843 75.641C47.7639 75.1049 48.1631 74.6404 48.651 74.2834C49.1389 73.9264 49.7025 73.6864 50.2981 73.5822C50.7702 71.8141 51.8896 70.288 53.4343 69.3067C55.7518 67.7418 58.5841 67.1321 61.3402 67.6048C60.7759 67.6091 60.2218 67.4545 59.7412 67.1587C59.5063 67.005 59.3387 66.7677 59.2724 66.4949C59.2061 66.2222 59.2461 65.9344 59.3843 65.69C59.7206 65.2371 60.3863 65.2577 60.9422 65.3401C63.8114 65.7578 66.5689 66.7423 69.0539 68.2361C68.903 67.2273 70.0079 66.3832 71.0304 66.4106C72.0536 66.539 73.0122 66.98 73.7755 67.6734C75.2174 68.6565 76.4472 69.919 77.3922 71.3861C78.4353 73.2048 78.2843 76.0459 77.5431 77.9606C77.3396 78.5847 76.937 79.1247 76.3971 79.4979C75.999 79.793 75.4637 79.9028 75.0726 80.1842C74.2765 80.7469 74.4892 80.4106 74.1461 81.4126C73.4049 83.5744 73.0069 85.6263 71.8539 87.6577C70.7107 89.5971 69.4019 91.434 67.9422 93.1479C65.7931 95.8427 63.0113 97.9644 59.8441 99.3244C58.4354 99.8916 56.9294 100.178 55.4108 100.168Z" fill="white"/>
<path d="M55.4931 100.511H55.4039C54.0557 100.552 52.7192 100.251 51.519 99.6352C50.3189 99.0195 49.2944 98.1097 48.5412 96.9908C47.5737 95.3408 46.9656 93.505 46.7569 91.6036C46.153 87.7742 45.4667 83.4301 46.1255 79.0242C46.254 77.7786 46.6148 76.5682 47.1892 75.4555C47.48 74.9109 47.8829 74.4342 48.3715 74.0568C48.8601 73.6795 49.4231 73.41 50.0235 73.2663C50.5568 71.5087 51.7008 69.9996 53.249 69.0114C55.0157 67.8252 57.0792 67.1572 59.2059 67.083C59.0553 66.8796 58.9521 66.6452 58.9039 66.3967C58.8783 66.2402 58.8839 66.0802 58.9204 65.9259C58.9569 65.7716 59.0236 65.6261 59.1167 65.4977C59.6245 64.8114 60.6539 64.9624 60.9971 65.0104C63.7244 65.4191 66.3532 66.3264 68.752 67.6869C68.8275 67.3972 68.9737 67.1308 69.1775 66.9114C69.4123 66.6481 69.7013 66.4387 70.0247 66.2978C70.3481 66.1568 70.6983 66.0875 71.051 66.0948C72.1457 66.2236 73.1727 66.6915 73.9882 67.433C75.4744 68.434 76.7383 69.7306 77.701 71.2418C78.8128 73.1908 78.6275 76.1693 77.8657 78.1046C77.6394 78.7841 77.1956 79.3701 76.6029 79.7722C76.3656 79.9363 76.11 80.0722 75.8412 80.1771C75.6393 80.2523 75.446 80.3489 75.2647 80.4653L74.8873 80.7193C74.6951 80.8428 74.6951 80.8428 74.5922 81.1516L74.4686 81.5222C74.2559 82.1536 74.0637 82.7712 73.8784 83.3889C73.4765 84.9301 72.8985 86.42 72.1559 87.8291C70.9978 89.784 69.6754 91.6368 68.2029 93.3673C66.0169 96.0967 63.1871 98.2403 59.9677 99.6055C58.5478 100.191 57.0288 100.498 55.4931 100.511ZM59.5078 67.7693C57.4116 67.7801 55.3654 68.4104 53.6265 69.581C52.1452 70.5111 51.0749 71.9717 50.6343 73.6644C50.6194 73.735 50.5831 73.7992 50.5303 73.8484C50.4774 73.8975 50.4107 73.9291 50.3392 73.9389C49.7993 74.0314 49.2877 74.2466 48.844 74.5678C48.4002 74.8891 48.036 75.3078 47.7794 75.7918C47.2469 76.8423 46.9142 77.9826 46.798 79.1546C46.1598 83.4506 46.8324 87.7399 47.4294 91.5075C47.6252 93.312 48.1955 95.0557 49.1039 96.6271C49.8007 97.6487 50.744 98.4781 51.8464 99.0383C52.9488 99.5985 54.1748 99.8715 55.4108 99.832C56.8872 99.8281 58.3487 99.5367 59.7137 98.9742C62.8264 97.6545 65.5621 95.5815 67.6745 92.9418C69.1199 91.2402 70.4193 89.4197 71.5588 87.4997C72.2731 86.1319 72.8324 84.6886 73.2265 83.1967C73.4118 82.5722 73.6039 81.9477 73.8235 81.3026L73.9402 80.9457C74.098 80.4653 74.1392 80.3899 74.5167 80.1497L74.8735 79.9095C75.0891 79.7668 75.3192 79.6472 75.5598 79.5526C75.7788 79.4674 75.9881 79.3593 76.1843 79.2301C76.6721 78.9013 77.0347 78.4178 77.2137 77.8575C77.9 76.0663 78.0922 73.335 77.0902 71.5781C76.1721 70.1474 74.9718 68.9191 73.5628 67.9683C72.8543 67.322 71.9666 66.9056 71.0167 66.7742C70.7592 66.7652 70.5028 66.8128 70.2657 66.9136C70.0286 67.0144 69.8164 67.1659 69.6441 67.3575C69.5369 67.4697 69.4555 67.6041 69.4057 67.7511C69.356 67.8981 69.3389 68.0542 69.3559 68.2085C69.368 68.2733 69.3608 68.3402 69.3352 68.4009C69.3096 68.4616 69.2667 68.5135 69.2119 68.5501C69.157 68.5866 69.0927 68.6062 69.0268 68.6065C68.9609 68.6068 68.8963 68.5877 68.8412 68.5516C66.3934 67.0786 63.6787 66.1037 60.853 65.683C60.2079 65.5869 59.8029 65.683 59.6245 65.9026C59.548 66.0151 59.5184 66.153 59.5422 66.2869C59.5842 66.5281 59.7168 66.7441 59.9128 66.8908C60.0879 67.0158 60.2862 67.1045 60.4961 67.1516C60.7843 67.1516 61.0794 67.2202 61.3677 67.2752C61.4587 67.287 61.5412 67.3345 61.5972 67.4072C61.6532 67.4799 61.678 67.5719 61.6662 67.6629C61.6544 67.7539 61.6069 67.8365 61.5341 67.8925C61.4614 67.9484 61.3694 67.9733 61.2784 67.9614C60.9785 67.941 60.6804 67.8997 60.3863 67.8379C60.1324 67.783 59.8167 67.7693 59.5078 67.7693Z" fill="#231F20"/>
<path d="M76.0677 87.7949C76.0677 87.7949 80.0687 93.6763 79.2726 94.9184C78.4765 96.1606 75.7726 95.3783 75.7726 95.3783" fill="white"/>
<path d="M77.4745 95.9619C76.8668 95.9546 76.2625 95.8693 75.6765 95.708C75.5901 95.681 75.5176 95.6216 75.4741 95.5422C75.4306 95.4629 75.4195 95.3698 75.4431 95.2825C75.4549 95.2387 75.4754 95.1978 75.5035 95.1621C75.5315 95.1265 75.5664 95.0969 75.6061 95.0751C75.6459 95.0533 75.6896 95.0398 75.7347 95.0353C75.7798 95.0309 75.8254 95.0356 75.8686 95.0491C76.5549 95.2413 78.449 95.5707 78.9843 94.7335C79.4029 94.0472 77.6461 90.7256 75.7863 87.9874C75.761 87.95 75.7434 87.908 75.7344 87.8638C75.7254 87.8196 75.7252 87.774 75.7338 87.7297C75.7424 87.6854 75.7597 87.6433 75.7846 87.6056C75.8094 87.568 75.8415 87.5357 75.8789 87.5104C75.9163 87.4852 75.9583 87.4676 76.0025 87.4586C76.0467 87.4496 76.0923 87.4494 76.1366 87.458C76.1809 87.4666 76.223 87.4838 76.2607 87.5087C76.2983 87.5336 76.3306 87.5657 76.3559 87.6031C77.3235 89.0237 80.4186 93.7795 79.5608 95.104C79.3118 95.4093 78.9907 95.6476 78.6264 95.7974C78.2621 95.9472 77.8662 96.0037 77.4745 95.9619Z" fill="#231F20"/>
<path d="M75.1344 79.9645C77.653 81.9684 76.9873 86.2851 77.001 89.0851C77.001 93.0334 76.9324 96.9749 76.7951 100.91C76.6922 103.408 70.2275 103.545 69.0745 102.811L70.2893 109.399L55.4108 107.793V100.168C55.4108 100.168 61.4089 99.4409 63.8726 94.3145C66.3363 89.188 66.2402 79.6282 66.2402 79.6282C66.2402 79.6282 72.6706 78.0086 75.1344 79.9645Z" fill="white"/>
<path d="M70.2892 109.742H70.2549L55.3696 108.129C55.2865 108.121 55.2096 108.082 55.1537 108.02C55.0979 107.957 55.0672 107.877 55.0677 107.793V100.169C55.0655 100.084 55.0954 100.002 55.1514 99.9379C55.2074 99.8743 55.2853 99.8342 55.3696 99.8255C55.4245 99.8255 61.2098 99.0569 63.5638 94.1706C65.9177 89.2844 65.8971 79.7589 65.8971 79.6353C65.8951 79.5578 65.92 79.482 65.9675 79.4207C66.015 79.3594 66.0823 79.3165 66.1579 79.2991C66.4255 79.2304 72.7804 77.6589 75.3471 79.6971C77.5775 81.4677 77.4677 84.851 77.4059 87.5687C77.4059 88.104 77.4059 88.6187 77.4059 89.0853C77.4059 93.0177 77.3579 96.9981 77.2 100.924C77.1602 101.319 77.0106 101.696 76.7681 102.011C76.5256 102.327 76.1998 102.568 75.8275 102.708C74.1324 103.6 71.0236 103.703 69.5618 103.339L70.6324 109.351C70.64 109.404 70.636 109.458 70.6206 109.509C70.6052 109.559 70.5787 109.606 70.5432 109.646C70.5094 109.678 70.4695 109.703 70.4259 109.72C70.3823 109.736 70.3358 109.744 70.2892 109.742ZM55.754 107.484L69.8706 109.008L68.7383 102.873C68.7249 102.808 68.7315 102.74 68.7572 102.679C68.7829 102.617 68.8266 102.565 68.8824 102.529C68.939 102.494 69.0044 102.475 69.0711 102.475C69.1378 102.475 69.2032 102.494 69.2598 102.529C70.001 103.003 73.6314 103.072 75.4363 102.104C76.0677 101.775 76.3971 101.37 76.4177 100.903C76.5755 96.9912 76.6441 93.0177 76.6236 89.0991C76.6236 88.6187 76.6236 88.0971 76.6236 87.5481C76.7059 84.9883 76.8089 81.7971 74.8461 80.2393C72.7873 78.6265 67.7226 79.6422 66.5147 79.9099C66.5147 81.5432 66.3706 89.7648 64.1128 94.4726C61.8549 99.1804 56.9618 100.244 55.6853 100.471L55.754 107.484Z" fill="#231F20"/>
<path d="M68.5461 90.4167C68.4245 89.4313 68.03 88.4995 67.4069 87.7265C67.0153 87.0674 66.5272 86.4706 65.9588 85.956C65.6705 85.7022 65.3297 85.5152 64.9607 85.4084C64.5918 85.3017 64.2038 85.2777 63.8245 85.3383C63.4966 85.4265 63.1909 85.5827 62.9273 85.7967C62.6636 86.0107 62.4479 86.2777 62.2941 86.5805C61.9979 87.1931 61.8387 87.8628 61.8275 88.5432C61.7831 90.0262 62.1293 91.4947 62.8316 92.8016C63.5338 94.1085 64.5673 95.2078 65.8284 95.9893L65.6088 95.7559" fill="white"/>
<path d="M65.8284 96.3117C65.7616 96.3337 65.6894 96.3337 65.6226 96.3117C64.3122 95.4947 63.2383 94.3491 62.5075 92.9887C61.7768 91.6283 61.4146 90.1005 61.4569 88.5568C61.467 87.8255 61.6405 87.1056 61.9647 86.45C62.14 86.1021 62.3873 85.7955 62.6902 85.5505C62.9931 85.3056 63.3447 85.1279 63.7216 85.0294C64.151 84.953 64.5921 84.9751 65.0118 85.094C65.4314 85.2129 65.8186 85.4254 66.1441 85.7156C66.7437 86.2492 67.2575 86.8719 67.6677 87.5617C68.3267 88.3871 68.7405 89.3811 68.8618 90.4303C68.8636 90.5202 68.8302 90.6072 68.7686 90.6727C68.707 90.7381 68.6222 90.7768 68.5324 90.7804C68.4423 90.7806 68.3554 90.7468 68.2893 90.6857C68.2231 90.6246 68.1824 90.5407 68.1755 90.4509C68.0483 89.5322 67.6761 88.6646 67.098 87.9392C66.727 87.3093 66.2645 86.738 65.7255 86.2441C65.4791 86.0214 65.1862 85.8566 64.868 85.7616C64.5498 85.6666 64.2144 85.6439 63.8863 85.6951C63.6057 85.7713 63.3444 85.9061 63.1196 86.0907C62.8949 86.2752 62.7118 86.5052 62.5824 86.7656C62.3075 87.3304 62.1621 87.9494 62.1569 88.5774C62.1253 89.9145 62.4215 91.239 63.0197 92.4352C63.6178 93.6315 64.4997 94.6631 65.5882 95.4402C65.6399 95.4344 65.6922 95.4407 65.741 95.4586C65.7899 95.4764 65.8339 95.5054 65.8696 95.5431L66.0892 95.7764C66.1437 95.8379 66.1738 95.9173 66.1738 95.9995C66.1738 96.0817 66.1437 96.161 66.0892 96.2225C66.0548 96.2553 66.0136 96.2803 65.9686 96.2957C65.9236 96.3111 65.8758 96.3166 65.8284 96.3117Z" fill="#231F20"/>
<path d="M74.9627 86.1524C75.269 86.1318 75.4751 85.4866 75.4229 84.7114C75.3707 83.9361 75.0801 83.3244 74.7738 83.345C74.4675 83.3656 74.2615 84.0108 74.3136 84.786C74.3658 85.5612 74.6564 86.173 74.9627 86.1524Z" fill="#231F20"/>
<path d="M52.1647 110.723L53.2147 105.329L72.3343 106.496L73.5353 110.387C73.5353 110.387 63.0353 115.822 52.1647 110.723Z" fill="white"/>
<path d="M62.0883 113.242C58.613 113.262 55.1759 112.517 52.0206 111.06C51.951 111.028 51.8942 110.973 51.8594 110.904C51.8245 110.836 51.8137 110.758 51.8285 110.682L52.8785 105.281C52.892 105.199 52.9364 105.125 53.0027 105.074C53.069 105.023 53.1521 104.999 53.2353 105.007L72.3549 106.174C72.425 106.176 72.4925 106.201 72.5479 106.244C72.6033 106.287 72.6438 106.347 72.6638 106.414L73.8579 110.312C73.8827 110.389 73.879 110.472 73.8475 110.546C73.816 110.621 73.7588 110.681 73.6863 110.717C70.0439 112.374 66.0899 113.235 62.0883 113.242ZM52.5834 110.545C62.1912 114.876 71.4971 110.991 73.1716 110.229L72.1353 106.839L53.551 105.707L52.5834 110.545Z" fill="#231F20"/>
<path d="M76.8981 97.7939C76.8981 97.7939 75.8275 99.8528 72.4785 97.7939H76.8981Z" fill="white"/>
<path d="M75.1138 99.0568C74.1052 98.9966 73.1323 98.662 72.3 98.0891C72.235 98.0353 72.1915 97.9598 72.1778 97.8765C72.164 97.7932 72.1808 97.7077 72.2251 97.6358C72.2694 97.5639 72.3382 97.5105 72.4188 97.4853C72.4994 97.4602 72.5864 97.465 72.6637 97.499C73.8441 98.2333 74.8804 98.5078 75.6559 98.3019C76.0462 98.2032 76.3832 97.9573 76.5961 97.6156C76.638 97.5346 76.7103 97.4736 76.7972 97.4459C76.884 97.4182 76.9783 97.4262 77.0593 97.4681C77.1403 97.5099 77.2014 97.5823 77.2291 97.6691C77.2567 97.756 77.2488 97.8503 77.2069 97.9313C76.8973 98.4313 76.4049 98.7908 75.8343 98.9333C75.6009 99.007 75.3584 99.0485 75.1138 99.0568Z" fill="#231F20"/>
<path d="M190.929 169.16H16.7804L40.0863 143.589L211.916 142.134L190.929 169.16Z" fill="white"/>
<path d="M190.929 169.468H16.7804C16.7202 169.47 16.661 169.453 16.6107 169.42C16.5604 169.387 16.5214 169.339 16.499 169.283C16.4733 169.228 16.4647 169.166 16.4745 169.106C16.4843 169.046 16.512 168.991 16.5539 168.947L39.8873 143.383C39.9153 143.35 39.95 143.324 39.9891 143.307C40.0282 143.289 40.0708 143.28 40.1137 143.28L211.943 141.818C212.001 141.819 212.058 141.835 212.107 141.866C212.157 141.896 212.197 141.939 212.225 141.99C212.248 142.044 212.258 142.104 212.252 142.163C212.246 142.222 212.224 142.278 212.19 142.326L191.211 169.352C191.178 169.393 191.134 169.426 191.085 169.446C191.036 169.467 190.982 169.474 190.929 169.468ZM17.4941 168.844H190.772L211.271 142.45L40.2304 143.905L17.4941 168.844Z" fill="#231F20"/>
<path d="M140.111 164.191L153.445 146.231H91.4471L72.8696 165.055L140.111 164.191Z" fill="white"/>
<path d="M72.8696 165.399C72.8025 165.4 72.7365 165.381 72.6803 165.344C72.624 165.308 72.58 165.255 72.554 165.193C72.5274 165.13 72.5198 165.061 72.532 164.994C72.5441 164.927 72.5756 164.865 72.6226 164.816L91.2069 145.991C91.2375 145.958 91.2747 145.932 91.3161 145.914C91.3575 145.897 91.4021 145.888 91.4471 145.888H153.466C153.529 145.888 153.592 145.906 153.646 145.939C153.7 145.973 153.744 146.021 153.773 146.078C153.801 146.135 153.813 146.199 153.807 146.262C153.802 146.326 153.778 146.386 153.74 146.437L140.385 164.39C140.354 164.433 140.314 164.468 140.268 164.493C140.222 164.518 140.17 164.532 140.118 164.534L72.8628 165.399H72.8696ZM91.5912 146.574L73.7 164.706L139.939 163.848L152.779 146.574H91.5912Z" fill="#231F20"/>
<path d="M148.099 149.065L138.848 161.35H79.101L93.0736 149.58L148.099 149.065Z" fill="white"/>
<path d="M138.848 161.693H79.101C79.0295 161.694 78.9595 161.673 78.9007 161.632C78.8419 161.591 78.7973 161.533 78.7732 161.466C78.749 161.399 78.7464 161.326 78.7658 161.257C78.7852 161.188 78.8256 161.127 78.8814 161.082L92.8471 149.313C92.9103 149.265 92.9873 149.238 93.0667 149.237L148.092 148.722C148.156 148.72 148.219 148.736 148.274 148.769C148.329 148.802 148.373 148.85 148.401 148.908C148.434 148.963 148.452 149.025 148.452 149.09C148.452 149.154 148.434 149.217 148.401 149.271L139.15 161.556C139.115 161.602 139.069 161.638 139.016 161.662C138.964 161.686 138.906 161.697 138.848 161.693ZM80.0412 161.007H138.676L147.406 149.416L93.1902 149.917L80.0412 161.007Z" fill="#D1D3D4"/>
<path d="M190.923 169.16H16.7804V174.67H190.923V169.16Z" fill="white"/>
<path d="M190.929 174.986H16.7804C16.6979 174.985 16.6193 174.95 16.5616 174.891C16.5039 174.832 16.4715 174.753 16.4716 174.671V169.18C16.4715 169.098 16.5039 169.019 16.5616 168.96C16.6193 168.901 16.6979 168.867 16.7804 168.865H190.929C191.012 168.867 191.09 168.901 191.148 168.96C191.206 169.019 191.238 169.098 191.238 169.18V174.671C191.238 174.753 191.206 174.832 191.148 174.891C191.09 174.95 191.012 174.985 190.929 174.986ZM17.0961 174.355H190.614V169.469H17.0961V174.355Z" fill="#231F20"/>
<path d="M123.393 158.309C125.775 158.906 128.883 156.539 130.139 154.796C130.314 154.507 130.563 154.27 130.86 154.109C131.063 154.041 131.277 154.013 131.491 154.027C132.845 154.006 134.194 153.856 135.52 153.581C136.81 153.306 138.265 152.771 138.704 151.522C139.143 150.273 138.443 148.907 137.441 148.091C135.163 146.169 131.876 146.272 128.945 145.737C127.751 145.408 126.509 145.287 125.274 145.38C124.124 145.631 123.117 146.32 122.467 147.302C121.751 148.115 120.935 148.835 120.037 149.443C118.733 150.468 117.448 151.506 116.18 152.558C118.239 154.295 120.298 156.676 122.618 158.049C122.863 158.17 123.124 158.258 123.393 158.309Z" fill="white"/>
<path d="M124.189 158.763C123.891 158.764 123.593 158.727 123.304 158.653C123.003 158.578 122.714 158.46 122.446 158.303C120.862 157.267 119.395 156.063 118.068 154.714C117.34 154.027 116.695 153.382 115.961 152.799C115.922 152.767 115.891 152.726 115.869 152.681C115.848 152.635 115.837 152.585 115.837 152.535C115.837 152.484 115.848 152.434 115.869 152.389C115.891 152.343 115.922 152.303 115.961 152.27C117.244 151.207 118.541 150.157 119.825 149.155L120.326 148.77C121.018 148.288 121.646 147.719 122.192 147.075C122.894 146.02 123.98 145.281 125.219 145.017C126.267 144.901 127.328 144.98 128.348 145.25L129.034 145.373C129.721 145.497 130.455 145.593 131.162 145.682C133.481 145.97 135.876 146.272 137.688 147.803C138.759 148.695 139.596 150.232 139.061 151.646C138.628 152.765 137.51 153.499 135.629 153.897C134.275 154.18 132.896 154.332 131.512 154.35C131.341 154.337 131.169 154.356 131.004 154.405C130.788 154.534 130.608 154.715 130.482 154.933L130.427 155.009C129.22 156.642 126.571 158.763 124.189 158.763ZM123.503 157.987C125.644 158.529 128.636 156.326 129.892 154.611L129.94 154.542C130.134 154.216 130.418 153.951 130.757 153.78C130.997 153.696 131.251 153.658 131.505 153.67C132.84 153.652 134.171 153.505 135.478 153.231C137.112 152.888 138.073 152.291 138.409 151.406C138.834 150.315 138.127 149.072 137.249 148.331C135.588 146.959 133.296 146.65 131.073 146.368C130.386 146.279 129.618 146.183 128.911 146.053L128.225 145.929C127.28 145.682 126.298 145.612 125.328 145.723C124.26 145.956 123.326 146.599 122.727 147.515C122.145 148.209 121.474 148.822 120.73 149.34L120.243 149.718C119.07 150.63 117.882 151.591 116.709 152.559C117.32 153.087 117.93 153.67 118.527 154.233C119.82 155.547 121.249 156.72 122.789 157.733C123.004 157.857 123.235 157.95 123.476 158.008L123.503 157.987Z" fill="#231F20"/>
<path d="M28.5226 178.307C28.5226 178.307 25.7363 119.384 40.7794 111.409C45.4598 108.925 83.2186 107.23 92.1333 114.731C101.048 122.232 101.789 152.723 101.789 152.723L118.37 148.798L125.006 160.821C125.006 160.821 100.581 172.049 95.9079 174.224C87.9196 177.937 28.5226 178.307 28.5226 178.307Z" fill="#6C63FF"/>
<path d="M79.101 152.867C79.0558 152.863 79.012 152.85 78.972 152.828C78.932 152.807 78.8966 152.778 78.8678 152.743C78.8391 152.708 78.8177 152.667 78.8047 152.624C78.7917 152.581 78.7874 152.535 78.7922 152.49L81.8461 119.013C81.8543 118.922 81.8983 118.838 81.9684 118.78C82.0386 118.721 82.1291 118.693 82.2201 118.701C82.3111 118.709 82.3951 118.753 82.4537 118.823C82.5123 118.894 82.5406 118.984 82.5324 119.075L79.4441 152.586C79.4295 152.666 79.387 152.738 79.3242 152.79C79.2613 152.841 79.1822 152.869 79.101 152.867Z" fill="#231F20"/>
<path d="M69.5412 121.271H35.2824C32.7842 121.271 30.3148 121.805 28.0396 122.836C25.7644 123.868 23.7359 125.374 22.0899 127.253C20.4439 129.132 19.2185 131.341 18.4958 133.733C17.773 136.124 17.5695 138.642 17.899 141.119L23.4304 182.714H93.0736L86.8971 136.493C86.3371 132.285 84.2693 128.422 81.0775 125.623C77.8857 122.824 73.7867 121.278 69.5412 121.271Z" fill="#231F20"/>
<path d="M105.468 163.066C107.677 163.066 107.677 159.634 105.468 159.634C103.258 159.634 103.258 163.066 105.468 163.066Z" fill="#6C63FF"/>
<path d="M105.962 163.066C108.172 163.066 108.178 159.634 105.962 159.634C103.745 159.634 103.752 163.066 105.962 163.066Z" fill="#6C63FF"/>
<path d="M190.929 174.671L211.916 147V142.134L190.929 169.16V174.671Z" fill="white"/>
<path d="M190.929 174.986H190.827C190.764 174.967 190.709 174.927 190.671 174.874C190.632 174.821 190.612 174.756 190.614 174.691V169.201C190.612 169.13 190.637 169.062 190.682 169.008L211.669 141.983C211.706 141.93 211.76 141.891 211.822 141.871C211.884 141.852 211.95 141.852 212.012 141.873C212.074 141.895 212.129 141.936 212.167 141.99C212.205 142.044 212.225 142.109 212.225 142.175V147.041C212.225 147.11 212.203 147.177 212.163 147.233L191.211 174.862C191.178 174.905 191.135 174.938 191.086 174.96C191.037 174.981 190.983 174.99 190.929 174.986ZM191.238 169.262V173.737L211.6 146.897V143.047L191.238 169.262Z" fill="#231F20"/>
<path d="M188.61 183.022C188.527 183.022 188.448 182.99 188.389 182.932C188.33 182.874 188.296 182.796 188.294 182.713V174.67C188.296 174.587 188.33 174.508 188.389 174.449C188.447 174.39 188.527 174.356 188.61 174.354C188.692 174.356 188.771 174.39 188.829 174.449C188.886 174.508 188.919 174.588 188.919 174.67V182.713C188.919 182.795 188.886 182.874 188.828 182.932C188.77 182.99 188.692 183.022 188.61 183.022Z" fill="#231F20"/>
<path d="M101.206 55.0322H211.353V113.963C211.353 114.609 211.096 115.228 210.639 115.685C210.183 116.142 209.563 116.399 208.917 116.399H103.642C102.996 116.399 102.376 116.142 101.919 115.685C101.463 115.228 101.206 114.609 101.206 113.963V55.0322Z" fill="white"/>
<path d="M208.91 116.714H103.642C102.914 116.714 102.216 116.425 101.701 115.91C101.186 115.396 100.897 114.697 100.897 113.969V55.032C100.897 54.9483 100.93 54.868 100.99 54.8088C101.049 54.7496 101.129 54.7163 101.213 54.7163H211.36C211.443 54.7181 211.522 54.7519 211.581 54.8107C211.64 54.8695 211.674 54.9488 211.676 55.032V113.962C211.676 114.325 211.605 114.685 211.467 115.02C211.328 115.355 211.124 115.659 210.867 115.915C210.609 116.171 210.304 116.374 209.968 116.511C209.632 116.648 209.273 116.717 208.91 116.714ZM101.515 55.3477V113.962C101.517 114.525 101.742 115.065 102.14 115.462C102.539 115.86 103.079 116.083 103.642 116.083H208.91C209.473 116.083 210.013 115.86 210.412 115.462C210.811 115.065 211.035 114.525 211.037 113.962V55.3477H101.515Z" fill="#231F20"/>
<path d="M103.642 45.5957H208.91C209.556 45.5957 210.176 45.8524 210.633 46.3093C211.089 46.7662 211.346 47.3858 211.346 48.032V55.1967H101.206V48.0388C101.205 47.7183 101.267 47.4008 101.389 47.1044C101.511 46.808 101.691 46.5387 101.917 46.3117C102.143 46.0847 102.412 45.9047 102.708 45.7818C103.004 45.6589 103.322 45.5957 103.642 45.5957Z" fill="white"/>
<path d="M211.353 55.5057H101.206C101.165 55.5066 101.124 55.4993 101.086 55.4842C101.047 55.4691 101.012 55.4465 100.983 55.4177C100.954 55.389 100.93 55.3546 100.914 55.3167C100.898 55.2788 100.89 55.238 100.89 55.1969V48.039C100.89 47.311 101.179 46.6128 101.694 46.098C102.209 45.5832 102.907 45.2939 103.635 45.2939H208.91C209.638 45.2939 210.336 45.5832 210.851 46.098C211.366 46.6128 211.655 47.311 211.655 48.039V55.1969C211.653 55.2771 211.621 55.3537 211.565 55.411C211.509 55.4684 211.433 55.5022 211.353 55.5057ZM101.549 54.8812H211.037V48.0185C211.037 47.4542 210.813 46.9131 210.414 46.5141C210.015 46.1151 209.474 45.891 208.91 45.891H103.642C103.078 45.891 102.537 46.1151 102.138 46.5141C101.739 46.9131 101.515 47.4542 101.515 48.0185L101.549 54.8812Z" fill="#231F20"/>
<path d="M158.887 62.7456H106.49V97.0662H158.887V62.7456Z" fill="white"/>
<path d="M158.88 97.4165H106.49C106.399 97.4165 106.312 97.3804 106.248 97.316C106.183 97.2517 106.147 97.1644 106.147 97.0734V62.7596C106.147 62.6686 106.183 62.5814 106.248 62.517C106.312 62.4527 106.399 62.4165 106.49 62.4165H158.88C158.971 62.4165 159.059 62.4527 159.123 62.517C159.187 62.5814 159.224 62.6686 159.224 62.7596V97.0734C159.224 97.1644 159.187 97.2517 159.123 97.316C159.059 97.3804 158.971 97.4165 158.88 97.4165ZM106.833 96.7302H158.537V63.1028H106.833V96.7302Z" fill="#D1D3D4"/>
<path d="M112.715 77.1921C113.765 77.1921 114.616 76.341 114.616 75.2911C114.616 74.2412 113.765 73.3901 112.715 73.3901C111.665 73.3901 110.814 74.2412 110.814 75.2911C110.814 76.341 111.665 77.1921 112.715 77.1921Z" fill="white"/>
<path d="M112.715 77.5283C112.271 77.5283 111.836 77.3965 111.467 77.1496C111.098 76.9027 110.81 76.5518 110.641 76.1413C110.471 75.7309 110.427 75.2793 110.514 74.8438C110.601 74.4083 110.816 74.0085 111.13 73.6949C111.445 73.3813 111.845 73.1681 112.281 73.0823C112.717 72.9965 113.168 73.0419 113.578 73.2128C113.988 73.3837 114.338 73.6724 114.584 74.0424C114.83 74.4123 114.96 74.8469 114.959 75.291C114.957 75.885 114.72 76.454 114.299 76.8734C113.878 77.2928 113.309 77.5283 112.715 77.5283ZM112.715 73.7332C112.407 73.7332 112.105 73.8245 111.849 73.9957C111.593 74.1669 111.393 74.4102 111.275 74.6949C111.158 74.9795 111.127 75.2927 111.187 75.5949C111.247 75.8971 111.395 76.1747 111.613 76.3926C111.831 76.6105 112.109 76.7588 112.411 76.8189C112.713 76.879 113.026 76.8482 113.311 76.7303C113.596 76.6124 113.839 76.4127 114.01 76.1565C114.181 75.9003 114.273 75.5991 114.273 75.291C114.273 74.8779 114.108 74.4816 113.816 74.1895C113.524 73.8973 113.128 73.7332 112.715 73.7332Z" fill="#D1D3D4"/>
<path d="M152.779 75.634H118.603C118.513 75.6323 118.426 75.5956 118.362 75.5316C118.298 75.4676 118.262 75.3813 118.26 75.2909C118.26 75.1999 118.296 75.1126 118.36 75.0483C118.425 74.9839 118.512 74.9478 118.603 74.9478H152.779C152.87 74.9478 152.958 74.9839 153.022 75.0483C153.086 75.1126 153.123 75.1999 153.123 75.2909C153.123 75.3819 153.086 75.4692 153.022 75.5335C152.958 75.5979 152.87 75.634 152.779 75.634Z" fill="#D1D3D4"/>
<path d="M112.715 83.9172C113.765 83.9172 114.616 83.0661 114.616 82.0162C114.616 80.9663 113.765 80.1152 112.715 80.1152C111.665 80.1152 110.814 80.9663 110.814 82.0162C110.814 83.0661 111.665 83.9172 112.715 83.9172Z" fill="white"/>
<path d="M112.715 84.2539C112.271 84.2539 111.836 84.1221 111.467 83.8752C111.098 83.6283 110.81 83.2774 110.641 82.8669C110.471 82.4565 110.427 82.0049 110.514 81.5694C110.601 81.1339 110.816 80.7341 111.13 80.4205C111.445 80.1069 111.845 79.8937 112.281 79.8079C112.717 79.7221 113.168 79.7675 113.578 79.9384C113.988 80.1093 114.338 80.398 114.584 80.768C114.83 81.1379 114.96 81.5725 114.959 82.0166C114.957 82.6106 114.72 83.1796 114.299 83.599C113.878 84.0184 113.309 84.2539 112.715 84.2539ZM112.715 80.4588C112.407 80.4588 112.105 80.5501 111.849 80.7213C111.593 80.8925 111.393 81.1358 111.275 81.4204C111.158 81.7051 111.127 82.0183 111.187 82.3205C111.247 82.6227 111.395 82.9003 111.613 83.1182C111.831 83.336 112.109 83.4844 112.411 83.5445C112.713 83.6046 113.026 83.5738 113.311 83.4559C113.596 83.338 113.839 83.1383 114.01 82.8821C114.181 82.6259 114.273 82.3247 114.273 82.0166C114.273 81.6034 114.108 81.2072 113.816 80.915C113.524 80.6229 113.128 80.4588 112.715 80.4588Z" fill="#D1D3D4"/>
<path d="M144.62 82.3596H118.624C118.533 82.3596 118.445 82.3235 118.381 82.2591C118.317 82.1948 118.28 82.1075 118.28 82.0165C118.28 81.9255 118.317 81.8382 118.381 81.7738C118.445 81.7095 118.533 81.6733 118.624 81.6733H144.62C144.711 81.6733 144.798 81.7095 144.862 81.7738C144.927 81.8382 144.963 81.9255 144.963 82.0165C144.963 82.1075 144.927 82.1948 144.862 82.2591C144.798 82.3235 144.711 82.3596 144.62 82.3596Z" fill="#D1D3D4"/>
<path d="M112.715 90.6428C113.765 90.6428 114.616 89.7917 114.616 88.7418C114.616 87.6919 113.765 86.8408 112.715 86.8408C111.665 86.8408 110.814 87.6919 110.814 88.7418C110.814 89.7917 111.665 90.6428 112.715 90.6428Z" fill="white"/>
<path d="M112.715 90.9863C112.271 90.9863 111.837 90.8547 111.468 90.6081C111.099 90.3615 110.811 90.011 110.641 89.601C110.472 89.1909 110.427 88.7397 110.514 88.3044C110.6 87.869 110.814 87.4692 111.128 87.1553C111.442 86.8415 111.842 86.6278 112.277 86.5412C112.712 86.4546 113.163 86.499 113.573 86.6689C113.984 86.8387 114.334 87.1264 114.581 87.4954C114.827 87.8644 114.959 88.2983 114.959 88.7422C114.957 89.3368 114.72 89.9065 114.3 90.327C113.879 90.7475 113.309 90.9845 112.715 90.9863ZM112.715 87.1843C112.407 87.1843 112.105 87.2757 111.849 87.4469C111.593 87.618 111.393 87.8613 111.275 88.146C111.158 88.4307 111.127 88.7439 111.187 89.0461C111.247 89.3483 111.395 89.6259 111.613 89.8437C111.831 90.0616 112.109 90.21 112.411 90.2701C112.713 90.3302 113.026 90.2993 113.311 90.1814C113.596 90.0635 113.839 89.8638 114.01 89.6077C114.181 89.3515 114.273 89.0503 114.273 88.7422C114.273 88.329 114.108 87.9328 113.816 87.6406C113.524 87.3485 113.128 87.1843 112.715 87.1843Z" fill="#D1D3D4"/>
<path d="M149.128 89.0852H118.624C118.533 89.0852 118.445 89.049 118.381 88.9847C118.317 88.9203 118.28 88.8331 118.28 88.7421C118.28 88.6511 118.317 88.5638 118.381 88.4994C118.445 88.4351 118.533 88.3989 118.624 88.3989H149.128C149.219 88.3989 149.307 88.4351 149.371 88.4994C149.435 88.5638 149.472 88.6511 149.472 88.7421C149.472 88.8331 149.435 88.9203 149.371 88.9847C149.307 89.049 149.219 89.0852 149.128 89.0852Z" fill="#D1D3D4"/>
<path d="M128.883 67.605H110.814V70.405H128.883V67.605Z" fill="#D1D3D4"/>
<path d="M145.045 95.2686C144.359 94.4108 143.563 93.3127 142.856 92.4686C142.554 88.351 141.627 86.0245 141.099 85.7294C140.344 85.3108 139.479 85.9696 138.683 86.299C138.541 86.3688 138.38 86.3928 138.224 86.3676C138.104 86.323 137.997 86.2527 137.908 86.1617C136.069 84.5353 134.435 81.4676 133.227 81.1313C132.418 80.9049 131.327 82.5451 133.022 84.4117C133.969 85.4549 135.87 87.3833 135.904 87.5068C135.938 87.6304 135.074 90.2107 134.95 91.2264C134.724 93.0862 140.214 99.0637 141.346 100.471L145.045 95.2686Z" fill="white"/>
<path d="M141.346 100.814C141.295 100.814 141.245 100.803 141.198 100.782C141.152 100.761 141.111 100.729 141.078 100.69C140.886 100.45 140.577 100.086 140.186 99.6333C137.386 96.3666 134.415 92.7705 134.614 91.1852C134.768 90.332 134.981 89.4904 135.252 88.6666C135.375 88.2617 135.506 87.8087 135.554 87.6029C135.362 87.3833 134.813 86.8068 134.319 86.2921C133.825 85.7774 133.179 85.098 132.768 84.645C131.58 83.3411 131.622 82.1195 132.081 81.4058C132.195 81.1811 132.38 81.0002 132.607 80.891C132.834 80.7819 133.091 80.7505 133.337 80.8019C134.126 81.0146 134.957 82.0921 135.925 83.3411C136.591 84.2608 137.337 85.1197 138.155 85.9078C138.207 85.9606 138.267 86.0046 138.333 86.0382C138.417 86.0364 138.499 86.0153 138.574 85.9764C138.738 85.9078 138.91 85.8254 139.088 85.7362C139.775 85.3999 140.536 85.0499 141.284 85.4274C142.032 85.8048 142.911 88.3303 143.206 92.3313C143.576 92.7774 143.968 93.2852 144.352 93.7931C144.736 94.3009 145.038 94.6646 145.333 95.0489C145.38 95.1089 145.405 95.1825 145.405 95.2583C145.405 95.334 145.38 95.4076 145.333 95.4676L141.634 100.67C141.605 100.714 141.565 100.75 141.519 100.775C141.472 100.8 141.42 100.813 141.367 100.814H141.346ZM133.076 81.4539C132.985 81.4674 132.898 81.5025 132.823 81.5562C132.748 81.6099 132.687 81.6806 132.644 81.7627C132.356 82.2431 132.342 83.1352 133.275 84.1852C133.687 84.6382 134.277 85.2558 134.82 85.8186C136.192 87.2597 136.192 87.2872 136.233 87.4107C136.275 87.5342 136.233 87.7058 135.911 88.8588C135.656 89.6482 135.449 90.4527 135.293 91.2676C135.122 92.6401 139.033 97.2382 140.708 99.1872L141.325 99.9078L144.613 95.2823C144.345 94.946 144.064 94.596 143.789 94.2117C143.384 93.6833 142.973 93.148 142.588 92.6882C142.54 92.6332 142.513 92.5624 142.513 92.4891C142.211 88.3715 141.271 86.2166 140.927 86.0313C140.584 85.846 139.953 86.0313 139.37 86.3538C139.184 86.4431 138.999 86.5391 138.814 86.6146C138.601 86.7204 138.359 86.7495 138.127 86.697C137.951 86.6428 137.791 86.5462 137.661 86.4156C136.812 85.6012 136.038 84.7123 135.348 83.7597C134.531 82.7097 133.694 81.6186 133.118 81.4607L133.076 81.4539Z" fill="#231F20"/>
<path d="M144.544 93.1616C144.544 93.1616 156.478 103.847 157.707 103.668C159.766 101.013 167.088 90.0116 167.088 90.0116C168.948 87.5616 174.308 85.6675 181.974 86.7175C181.974 86.7175 198.979 87.0675 202.274 92.4754C204.168 95.591 205.78 103.888 206.83 116.152H150.096C145.471 109.159 137.613 99.8322 137.613 99.8322L144.544 93.1616Z" fill="#6C63FF"/>
<path d="M179.283 89.2569L179.661 112.467L189.873 87.9873L179.283 89.2569Z" fill="#231F20"/>
<path d="M179.661 112.782H179.592C179.515 112.766 179.445 112.724 179.395 112.663C179.345 112.602 179.318 112.525 179.318 112.446L178.94 89.2362C178.938 89.1515 178.968 89.0691 179.024 89.0055C179.08 88.9419 179.158 88.9017 179.242 88.8931L189.838 87.6509C189.897 87.6423 189.956 87.6499 190.011 87.6729C190.065 87.6959 190.113 87.7334 190.147 87.7813C190.185 87.8291 190.209 87.8861 190.218 87.9464C190.226 88.0067 190.218 88.0682 190.195 88.1245L179.983 112.604C179.952 112.661 179.905 112.708 179.848 112.74C179.791 112.772 179.726 112.786 179.661 112.782ZM179.627 89.5382L179.977 110.813L189.324 88.3921L179.627 89.5382Z" fill="#231F20"/>
<path d="M173.759 63.8645L173.807 63.7753C174.864 62.0184 177.238 60.2547 179.153 59.4243C183.655 57.4478 189.33 58.5596 192.981 61.7714C194.355 62.9164 195.319 64.4773 195.726 66.2184C196.152 67.8655 197.161 69.5468 197.476 71.2282C197.71 72.4772 197.257 73.7537 197.298 75.0302C197.387 77.7753 199.7 79.8959 202.047 81.3027C198.616 84.439 193.729 85.4204 189.083 85.6949C180.952 86.1857 172.807 84.9702 165.174 82.1263C166.347 81.2072 167.297 80.0347 167.953 78.6966C168.609 77.3584 168.954 75.8891 168.962 74.3988C168.962 73.4861 168.852 72.4978 169.367 71.7498C169.881 71.0017 170.643 70.8096 171.261 70.3017C173.237 68.6959 172.62 65.8753 173.759 63.8645Z" fill="white"/>
<path d="M185.631 86.1408C178.615 86.1399 171.655 84.8897 165.078 82.4487C165.02 82.4264 164.969 82.3892 164.931 82.341C164.892 82.2928 164.867 82.2352 164.858 82.1742C164.85 82.1138 164.858 82.0524 164.881 81.9959C164.904 81.9395 164.941 81.8898 164.988 81.8516C166.119 80.9643 167.035 79.8333 167.668 78.543C168.302 77.2526 168.636 75.836 168.646 74.3987V74.0075C168.542 73.1591 168.707 72.2994 169.12 71.5506C169.46 71.1196 169.888 70.7663 170.376 70.5144C170.614 70.3705 170.843 70.2123 171.062 70.0408C172.126 69.1624 172.359 67.8791 172.606 66.5134C172.731 65.5334 173.017 64.5806 173.45 63.6928L173.745 63.8644L173.464 63.6722V63.5967C174.569 61.7575 177.067 59.9526 178.954 59.1085C183.449 57.132 189.289 58.1203 193.146 61.5173C194.578 62.7042 195.589 64.3216 196.028 66.1291C196.241 66.8836 196.507 67.622 196.825 68.3389C197.237 69.2467 197.557 70.194 197.778 71.1663C197.881 71.9331 197.862 72.7112 197.724 73.4722C197.641 73.9827 197.602 74.4993 197.607 75.0163C197.689 77.7614 200.146 79.8202 202.191 81.0075C202.238 81.0338 202.278 81.0714 202.307 81.1169C202.336 81.1625 202.352 81.2145 202.356 81.2683C202.362 81.3216 202.355 81.3756 202.336 81.4257C202.317 81.4759 202.286 81.5207 202.246 81.5565C199.302 84.2467 195.116 85.6742 189.07 86.0379C187.972 86.1065 186.798 86.1408 185.631 86.1408ZM165.88 82.0232C173.313 84.6851 181.21 85.8105 189.09 85.331C194.738 84.9879 198.698 83.7114 201.505 81.3301C199.405 79.9987 197.072 77.8987 196.982 75.0163C196.978 74.4626 197.02 73.9094 197.106 73.3624C197.232 72.6833 197.253 71.989 197.168 71.3036C196.95 70.3797 196.645 69.4788 196.255 68.6134C195.924 67.8679 195.646 67.0996 195.425 66.3144C195.023 64.6388 194.086 63.14 192.755 62.0457C189.09 58.8203 183.552 57.8801 179.29 59.7536C177.492 60.5497 175.131 62.2516 174.102 63.9673L174.068 64.0291L173.759 63.8781L174.054 64.0565C173.657 64.8757 173.398 65.7544 173.285 66.6575C173.031 68.0781 172.757 69.5536 171.501 70.5899C171.256 70.7846 170.997 70.9612 170.726 71.1183C170.323 71.3275 169.966 71.6144 169.676 71.9624C169.351 72.5968 169.229 73.3153 169.326 74.0212V74.4261C169.311 75.8604 168.997 77.2759 168.404 78.5818C167.811 79.8877 166.951 81.0552 165.88 82.0095V82.0232Z" fill="#231F20"/>
<path d="M176.923 74.742C176.759 74.187 176.481 73.6725 176.106 73.2322C175.917 73.0137 175.664 72.8603 175.384 72.7938C175.103 72.7273 174.808 72.751 174.541 72.8616C174.347 72.9671 174.182 73.1198 174.062 73.3057C173.942 73.4916 173.871 73.7047 173.855 73.9253C173.829 74.3614 173.902 74.7977 174.068 75.2018C174.309 75.9786 174.735 76.6852 175.31 77.2606C175.595 77.5455 175.937 77.7686 176.312 77.9162C176.687 78.0638 177.089 78.1326 177.492 78.1185" fill="white"/>
<path d="M177.355 78.4686C176.509 78.4473 175.702 78.1065 175.097 77.5146C174.488 76.9021 174.032 76.1544 173.766 75.3323C173.59 74.878 173.513 74.3913 173.539 73.9048C173.554 73.6238 173.64 73.3511 173.787 73.1114C173.934 72.8717 174.139 72.6726 174.383 72.5323C174.717 72.3932 175.085 72.3608 175.438 72.4394C175.791 72.5181 176.11 72.7039 176.353 72.9715C176.763 73.4437 177.067 73.9983 177.245 74.598C177.262 74.6403 177.27 74.6855 177.269 74.7309C177.267 74.7764 177.257 74.8211 177.239 74.8626C177.22 74.9041 177.194 74.9415 177.161 74.9727C177.128 75.0038 177.089 75.0281 177.046 75.0441C176.96 75.0734 176.865 75.0684 176.782 75.0301C176.699 74.9918 176.634 74.9231 176.6 74.8382C176.452 74.3353 176.202 73.8682 175.866 73.4656C175.722 73.3042 175.534 73.1892 175.325 73.1354C175.116 73.0816 174.896 73.0915 174.692 73.1637C174.557 73.2486 174.443 73.3644 174.361 73.5016C174.279 73.6387 174.23 73.7933 174.219 73.9529C174.204 74.3402 174.272 74.7261 174.418 75.0852C174.644 75.8042 175.039 76.4584 175.571 76.9931C175.819 77.2487 176.117 77.4507 176.446 77.5865C176.775 77.7222 177.129 77.7889 177.485 77.7823C177.575 77.7784 177.662 77.8089 177.73 77.8676C177.798 77.9264 177.84 78.0088 177.849 78.098C177.853 78.1431 177.848 78.1885 177.834 78.2315C177.82 78.2746 177.798 78.3145 177.768 78.349C177.739 78.3834 177.703 78.4117 177.663 78.4322C177.622 78.4528 177.578 78.4651 177.533 78.4686H177.355Z" fill="#231F20"/>
<path d="M179.963 82.4281L179.276 89.2909C179.276 89.2909 179.606 93.1821 183.875 92.4066C185.136 92.1664 186.328 91.6482 187.365 90.8897C188.401 90.1311 189.255 89.1513 189.866 88.0213L190.525 76.1076C190.525 75.5997 188.706 73.5134 189.2 69.1762C187.736 69.0253 186.319 68.5715 185.039 67.8438C183.76 67.116 182.646 66.1301 181.768 64.9487C181.768 64.9487 179.784 67.3987 178.954 68.1536C178.29 68.7154 177.7 69.3587 177.197 70.0683C175.879 72.0585 175.742 74.8036 176.058 77.0752C176.312 78.9693 177.588 82.4693 179.963 82.4281Z" fill="white"/>
<path d="M182.818 92.8182C181.965 92.8455 181.129 92.5843 180.443 92.077C179.602 91.3762 179.064 90.3783 178.94 89.2908L179.592 82.7506C177.307 82.4623 176.003 79.2163 175.708 77.1231C175.468 75.4486 175.31 72.278 176.902 69.8761C177.418 69.142 178.027 68.4777 178.714 67.8996C179.517 67.1653 181.459 64.7564 181.459 64.7359C181.495 64.6953 181.54 64.6627 181.589 64.6402C181.639 64.6178 181.693 64.6059 181.747 64.6055C181.801 64.6099 181.853 64.6264 181.899 64.6537C181.945 64.6811 181.985 64.7185 182.015 64.7633C182.87 65.9048 183.951 66.8577 185.191 67.5626C186.431 68.2676 187.802 68.7093 189.221 68.8604C189.312 68.8726 189.396 68.9193 189.454 68.9908C189.51 69.0632 189.536 69.1536 189.529 69.2447C189.237 71.3277 189.599 73.45 190.566 75.3182C190.72 75.571 190.819 75.8543 190.854 76.1486L190.209 88.0349C190.219 88.0778 190.219 88.1224 190.209 88.1653C189.579 89.3463 188.691 90.3704 187.611 91.1616C186.531 91.9528 185.287 92.4909 183.971 92.7359C183.59 92.8007 183.204 92.8283 182.818 92.8182ZM179.626 89.2908C179.671 89.771 179.824 90.235 180.073 90.6481C180.322 91.0612 180.66 91.4127 181.064 91.6766C181.468 91.9405 181.926 92.1098 182.404 92.172C182.883 92.2342 183.369 92.1877 183.826 92.0359C185.02 91.806 186.148 91.3185 187.133 90.6073C188.118 89.896 188.936 88.9783 189.529 87.9182C189.584 86.93 190.161 76.1898 190.168 76.1074C190.104 75.9385 190.031 75.7735 189.948 75.6133C188.981 73.7295 188.585 71.6043 188.809 69.4986C186.033 69.1263 183.504 67.7073 181.74 65.5319C181.157 66.2182 179.832 67.8241 179.174 68.428C178.538 68.957 177.971 69.5633 177.485 70.2329C176.024 72.4496 176.175 75.428 176.401 77.0065C176.627 78.5849 177.774 82.0643 179.935 82.0643H179.983C180.03 82.0632 180.077 82.0724 180.119 82.0914C180.162 82.1104 180.2 82.1386 180.23 82.1741C180.265 82.2087 180.291 82.2509 180.307 82.2974C180.322 82.3438 180.327 82.3933 180.32 82.4417L179.633 89.3045L179.626 89.2908Z" fill="#231F20"/>
<path d="M182.818 70.686C182.818 70.686 180.313 73.7674 180.759 74.3851C181.205 75.0027 182.728 74.7625 182.728 74.7625" fill="white"/>
<path d="M182.111 75.1538C181.819 75.183 181.525 75.1477 181.249 75.0505C180.972 74.9532 180.721 74.7964 180.512 74.591C179.983 73.9048 181.335 71.9695 182.571 70.4734C182.627 70.4027 182.71 70.3572 182.8 70.3469C182.89 70.3367 182.98 70.3624 183.051 70.4185C183.121 70.4773 183.165 70.5612 183.174 70.6523C183.183 70.7434 183.156 70.8344 183.099 70.9057C181.939 72.3332 180.999 73.8704 181.081 74.2067C181.328 74.5224 182.289 74.495 182.708 74.4263C182.753 74.4191 182.799 74.4209 182.843 74.4314C182.888 74.442 182.93 74.4612 182.967 74.488C183.004 74.5148 183.035 74.5486 183.059 74.5874C183.083 74.6263 183.099 74.6695 183.106 74.7146C183.113 74.7596 183.111 74.8057 183.101 74.8501C183.09 74.8944 183.071 74.9363 183.044 74.9733C183.017 75.0102 182.984 75.0416 182.945 75.0655C182.906 75.0894 182.863 75.1054 182.818 75.1126C182.583 75.1413 182.347 75.1551 182.111 75.1538Z" fill="#231F20"/>
<path d="M180.045 71.5089C180.098 71.1182 179.972 70.7791 179.766 70.7514C179.559 70.7238 179.349 71.0181 179.297 71.4088C179.245 71.7995 179.37 72.1386 179.577 72.1663C179.783 72.1939 179.993 71.8996 180.045 71.5089Z" fill="#231F20"/>
<path d="M186.326 71.3044C186.331 70.9103 186.166 70.5888 185.957 70.5863C185.749 70.5839 185.576 70.9015 185.572 71.2956C185.567 71.6898 185.732 72.0113 185.941 72.0137C186.149 72.0161 186.322 71.6986 186.326 71.3044Z" fill="#231F20"/>
<path d="M188.534 73.4928C188.686 72.9071 188.947 72.3553 189.303 71.8663C189.505 71.5855 189.771 71.3568 190.079 71.1992C190.387 71.0417 190.728 70.9598 191.074 70.9605C191.286 70.9706 191.494 71.0283 191.682 71.1292C191.869 71.2301 192.032 71.3718 192.158 71.5438C192.311 71.7913 192.405 72.0708 192.432 72.3605C192.659 73.884 192.151 75.8605 190.724 76.6428C190.483 76.7961 190.203 76.8774 189.917 76.8774C189.632 76.8774 189.352 76.7961 189.111 76.6428" fill="white"/>
<path d="M189.838 77.2331C189.507 77.2402 189.184 77.1363 188.919 76.938C188.88 76.9117 188.847 76.8778 188.822 76.8383C188.797 76.7988 188.78 76.7545 188.772 76.7083C188.765 76.662 188.767 76.6147 188.779 76.5693C188.79 76.5239 188.811 76.4814 188.84 76.4443C188.868 76.4072 188.904 76.3764 188.945 76.3538C188.986 76.3311 189.031 76.317 189.078 76.3125C189.125 76.308 189.172 76.313 189.216 76.3274C189.261 76.3417 189.302 76.365 189.337 76.3959C189.528 76.5018 189.745 76.5528 189.963 76.5431C190.181 76.5334 190.392 76.4635 190.573 76.341C191.863 75.6547 192.323 73.8292 192.117 72.4086C192.094 72.1666 192.019 71.9325 191.897 71.7223C191.802 71.5942 191.679 71.489 191.537 71.4142C191.396 71.3394 191.24 71.297 191.08 71.29C190.788 71.2912 190.501 71.3622 190.242 71.4971C189.983 71.632 189.76 71.8269 189.591 72.0655C189.273 72.5232 189.041 73.0347 188.905 73.5753C188.878 73.6616 188.819 73.7342 188.739 73.7777C188.66 73.8212 188.567 73.8323 188.479 73.8086C188.435 73.7961 188.394 73.7748 188.359 73.7461C188.323 73.7175 188.293 73.6819 188.272 73.6416C188.25 73.6013 188.236 73.5571 188.232 73.5115C188.228 73.466 188.232 73.42 188.246 73.3763C188.411 72.7502 188.692 72.1611 189.077 71.64C189.312 71.3163 189.622 71.0539 189.981 70.8748C190.339 70.6957 190.735 70.6051 191.135 70.6106C191.405 70.6169 191.669 70.686 191.908 70.8123C192.146 70.9385 192.351 71.1185 192.508 71.338C192.687 71.6277 192.799 71.9535 192.837 72.292C193.077 73.9527 192.508 76.0733 190.95 76.9312C190.612 77.1263 190.229 77.2303 189.838 77.2331Z" fill="#231F20"/>
<path d="M167.061 114.265C166.972 114.263 166.888 114.227 166.825 114.164C166.762 114.102 166.726 114.017 166.725 113.928C166.725 113.421 169.312 99.6128 169.827 96.8471C169.844 96.7561 169.897 96.6757 169.973 96.6235C170.05 96.5714 170.144 96.5518 170.235 96.5691C170.326 96.5864 170.406 96.6392 170.458 96.7157C170.511 96.7923 170.53 96.8865 170.513 96.9775C169.291 103.518 167.452 113.448 167.425 113.935C167.423 113.981 167.412 114.026 167.393 114.067C167.373 114.109 167.346 114.146 167.312 114.177C167.278 114.207 167.238 114.231 167.195 114.246C167.152 114.261 167.106 114.267 167.061 114.265Z" fill="#231F20"/>
<path d="M194.587 115.349C194.496 115.349 194.409 115.313 194.345 115.248C194.28 115.184 194.244 115.097 194.244 115.006V96.243C194.244 96.152 194.28 96.0648 194.345 96.0004C194.409 95.9361 194.496 95.8999 194.587 95.8999C194.678 95.8999 194.766 95.9361 194.83 96.0004C194.894 96.0648 194.93 96.152 194.93 96.243V115.006C194.93 115.097 194.894 115.184 194.83 115.248C194.766 115.313 194.678 115.349 194.587 115.349Z" fill="#231F20"/>
<path d="M185.24 75.6479L179.661 76.1764C179.661 76.1764 179.661 80.1568 182.022 79.896C184.382 79.6352 185.034 78.1048 185.24 75.6479Z" fill="white"/>
<path d="M181.802 80.253C181.328 80.2581 180.87 80.0841 180.519 79.7657C179.338 78.7157 179.318 76.2795 179.318 76.1765C179.316 76.0907 179.346 76.0074 179.404 75.9436C179.461 75.8798 179.541 75.8404 179.626 75.8334L185.206 75.3118C185.256 75.3067 185.306 75.3127 185.354 75.3293C185.401 75.3459 185.444 75.3727 185.48 75.4079C185.515 75.4427 185.543 75.4845 185.561 75.5307C185.578 75.5768 185.586 75.6262 185.583 75.6755C185.425 77.8579 184.897 79.9236 182.063 80.2393L181.802 80.253ZM180.018 76.4853C180.059 77.1304 180.237 78.5991 180.978 79.2304C181.113 79.3518 181.272 79.4419 181.445 79.4941C181.619 79.5464 181.801 79.5594 181.98 79.5324C183.82 79.3334 184.623 78.3657 184.863 76.0118L180.018 76.4853Z" fill="#231F20"/>
<path d="M179.963 82.4281C182.199 82.4746 184.42 82.0612 186.489 81.2134C186.489 81.2134 182.639 85.8595 179.661 87.582L179.963 82.4281Z" fill="#231F20"/>
<path d="M179.661 87.9254C179.614 87.9255 179.568 87.916 179.525 87.8975C179.482 87.8789 179.443 87.8518 179.411 87.8177C179.378 87.7837 179.354 87.7434 179.338 87.6993C179.322 87.6553 179.315 87.6084 179.318 87.5617L179.627 82.4078C179.625 82.362 179.634 82.3165 179.652 82.2744C179.67 82.2324 179.696 82.1947 179.73 82.164C179.764 82.1333 179.805 82.1104 179.848 82.0968C179.892 82.0832 179.938 82.0792 179.983 82.0852C182.164 82.1213 184.33 81.7175 186.352 80.898C186.422 80.8627 186.503 80.8532 186.579 80.8712C186.656 80.8891 186.724 80.9334 186.771 80.9963C186.819 81.0591 186.842 81.1366 186.839 81.2152C186.835 81.2938 186.803 81.3685 186.75 81.4264C186.592 81.6185 182.831 86.148 179.832 87.8774C179.779 87.9059 179.721 87.9223 179.661 87.9254ZM180.292 82.7783L180.038 86.9372C181.982 85.4942 183.761 83.8418 185.343 82.0097C183.705 82.5069 182.004 82.7658 180.292 82.7783Z" fill="#231F20"/>
<path d="M176.984 103.174C176.938 103.175 176.892 103.165 176.849 103.146C176.806 103.127 176.768 103.099 176.737 103.065L172.27 98.3705C172.236 98.3346 172.211 98.2919 172.196 98.2453C172.18 98.1988 172.175 98.1495 172.18 98.1007C172.185 98.0519 172.201 98.0048 172.226 97.9626C172.251 97.9203 172.284 97.8839 172.325 97.8558L176.394 95.0696L172.318 92.0431C172.274 92.0113 172.238 91.9695 172.213 91.9212C172.189 91.8729 172.176 91.8194 172.176 91.7651C172.176 91.7109 172.189 91.6574 172.213 91.6091C172.238 91.5608 172.274 91.519 172.318 91.4872L177.321 88.0558C177.357 88.0273 177.4 88.0066 177.445 87.9949C177.49 87.9832 177.537 87.9808 177.583 87.9878C177.629 87.9949 177.673 88.0112 177.712 88.0359C177.752 88.0605 177.786 88.0929 177.813 88.1312C177.839 88.1694 177.858 88.2126 177.867 88.2583C177.876 88.3039 177.876 88.3509 177.867 88.3965C177.857 88.4421 177.839 88.4853 177.812 88.5235C177.786 88.5617 177.751 88.594 177.712 88.6186L173.1 91.796L177.183 94.8294C177.229 94.8603 177.265 94.9025 177.289 94.9518C177.313 95.0012 177.324 95.0559 177.321 95.1107C177.321 95.1655 177.307 95.2195 177.281 95.2675C177.254 95.3156 177.216 95.3561 177.17 95.3852L173.052 98.2127L177.238 102.612C177.27 102.644 177.296 102.682 177.313 102.723C177.331 102.765 177.34 102.81 177.34 102.855C177.34 102.901 177.331 102.945 177.313 102.987C177.296 103.029 177.27 103.067 177.238 103.099C177.166 103.156 177.076 103.183 176.984 103.174Z" fill="#231F20"/>
<path d="M185.522 103.49C185.462 103.489 185.403 103.473 185.352 103.442C185.3 103.412 185.257 103.37 185.227 103.318C185.203 103.28 185.188 103.237 185.182 103.192C185.175 103.148 185.178 103.102 185.19 103.059C185.201 103.015 185.221 102.975 185.249 102.939C185.276 102.903 185.311 102.874 185.35 102.852L191.822 98.9879L188.28 94.9389C188.244 94.8997 188.218 94.8526 188.204 94.8013C188.189 94.75 188.187 94.696 188.198 94.6438C188.209 94.5905 188.232 94.5405 188.265 94.4976C188.298 94.4547 188.341 94.4202 188.39 94.3967L192.817 92.3379L190.257 89.5928C190.225 89.5609 190.199 89.523 190.182 89.4811C190.164 89.4393 190.155 89.3945 190.155 89.3492C190.155 89.3039 190.164 89.259 190.182 89.2172C190.199 89.1754 190.225 89.1374 190.257 89.1055C190.322 89.0422 190.41 89.0068 190.501 89.0068C190.591 89.0068 190.679 89.0422 190.744 89.1055L193.62 92.2281C193.656 92.2683 193.683 92.3166 193.697 92.3691C193.712 92.4216 193.713 92.4768 193.702 92.5301C193.692 92.5829 193.67 92.6326 193.636 92.6745C193.603 92.7165 193.559 92.7494 193.51 92.7703L189.077 94.8291L192.59 98.8163C192.624 98.8542 192.649 98.8991 192.663 98.9478C192.677 98.9964 192.68 99.0476 192.673 99.0977C192.665 99.1475 192.646 99.195 192.618 99.2366C192.589 99.2781 192.552 99.3128 192.508 99.3379L185.721 103.442C185.659 103.475 185.591 103.491 185.522 103.49Z" fill="#231F20"/>
<path d="M139.953 92.5164C139.87 92.516 139.79 92.4869 139.726 92.434C139.15 91.9512 138.779 91.2663 138.69 90.5193C138.43 90.8045 138.101 91.0177 137.734 91.1379C137.367 91.2582 136.976 91.2815 136.597 91.2056C136.43 91.1831 136.272 91.1138 136.142 91.0058C136.012 90.8978 135.915 90.7553 135.863 90.5948C135.465 89.3389 137.922 86.5938 138.429 86.0585C138.461 86.0264 138.499 86.0008 138.541 85.9834C138.583 85.966 138.628 85.957 138.673 85.957C138.718 85.957 138.763 85.966 138.805 85.9834C138.847 86.0008 138.885 86.0264 138.917 86.0585C138.949 86.0904 138.974 86.1284 138.992 86.1702C139.009 86.212 139.018 86.2569 139.018 86.3022C139.018 86.3475 139.009 86.3923 138.992 86.4341C138.974 86.4759 138.949 86.5139 138.917 86.5458C137.613 87.9183 136.323 89.8262 136.508 90.4095C136.508 90.4438 136.542 90.5193 136.727 90.5536C137.716 90.7732 138.436 89.8674 138.827 89.1811C138.919 88.9049 139.045 88.6419 139.205 88.3987C139.252 88.3302 139.323 88.2813 139.404 88.2611C139.485 88.2409 139.57 88.2508 139.644 88.2889C139.719 88.326 139.777 88.3889 139.809 88.466C139.84 88.543 139.843 88.6288 139.816 88.7075C139.718 88.9633 139.601 89.2111 139.466 89.4487C139.313 89.8822 139.296 90.3524 139.419 90.7955C139.542 91.2386 139.798 91.6333 140.152 91.9262C140.215 91.9915 140.251 92.0789 140.251 92.1698C140.251 92.2608 140.215 92.3481 140.152 92.4134C140.099 92.4686 140.029 92.5048 139.953 92.5164Z" fill="#231F20"/>
<path d="M111.033 51.7518C111.78 51.7518 112.385 51.1465 112.385 50.3998C112.385 49.6531 111.78 49.0479 111.033 49.0479C110.287 49.0479 109.681 49.6531 109.681 50.3998C109.681 51.1465 110.287 51.7518 111.033 51.7518Z" fill="#D1D3D4"/>
<path d="M117.409 51.7518C118.156 51.7518 118.761 51.1465 118.761 50.3998C118.761 49.6531 118.156 49.0479 117.409 49.0479C116.662 49.0479 116.057 49.6531 116.057 50.3998C116.057 51.1465 116.662 51.7518 117.409 51.7518Z" fill="#D1D3D4"/>
<path d="M123.784 51.7518C124.531 51.7518 125.136 51.1465 125.136 50.3998C125.136 49.6531 124.531 49.0479 123.784 49.0479C123.038 49.0479 122.432 49.6531 122.432 50.3998C122.432 51.1465 123.038 51.7518 123.784 51.7518Z" fill="#D1D3D4"/>
</svg>
