<svg width="245" height="245" viewBox="0 0 245 245" fill="none" xmlns="http://www.w3.org/2000/svg">
<circle cx="122.5" cy="122.5" r="122.5" fill="#6C63FF" fill-opacity="0.2"/>
<path d="M217.63 190.909H27.3698C27.2717 190.909 27.1777 190.87 27.1083 190.8C27.039 190.731 27 190.636 27 190.538C27 190.439 27.039 190.345 27.1083 190.275C27.1777 190.206 27.2717 190.167 27.3698 190.167H217.63C217.728 190.167 217.822 190.206 217.892 190.275C217.961 190.345 218 190.439 218 190.538C218 190.636 217.961 190.731 217.892 190.8C217.822 190.87 217.728 190.909 217.63 190.909Z" fill="#D1D3D4"/>
<path d="M201.7 125.789H159.227V199.003H201.7V125.789Z" fill="white"/>
<path d="M201.7 199.374H159.227C159.129 199.374 159.035 199.335 158.965 199.265C158.896 199.196 158.857 199.101 158.857 199.003V125.789C158.857 125.69 158.896 125.596 158.965 125.526C159.035 125.457 159.129 125.417 159.227 125.417H201.7C201.798 125.417 201.892 125.457 201.961 125.526C202.031 125.596 202.07 125.69 202.07 125.789V198.988C202.072 199.038 202.064 199.088 202.046 199.135C202.028 199.181 202.001 199.224 201.967 199.26C201.932 199.296 201.891 199.325 201.845 199.345C201.799 199.364 201.75 199.374 201.7 199.374ZM159.597 198.632H201.33V126.16H159.597V198.632Z" fill="#231F20"/>
<path d="M84.686 125.789H42.2128V199.003H84.686V125.789Z" fill="white"/>
<path d="M84.686 199.374H42.2128C42.1148 199.374 42.0207 199.335 41.9514 199.265C41.882 199.196 41.8431 199.101 41.8431 199.003V125.789C41.8431 125.69 41.882 125.596 41.9514 125.526C42.0207 125.457 42.1148 125.417 42.2128 125.417H84.686C84.7841 125.417 84.8782 125.457 84.9475 125.526C85.0169 125.596 85.0558 125.69 85.0558 125.789V198.988C85.0578 199.038 85.0497 199.088 85.032 199.135C85.0144 199.181 84.9874 199.224 84.9529 199.26C84.9184 199.296 84.8769 199.325 84.8311 199.345C84.7852 199.364 84.7359 199.374 84.686 199.374ZM42.5826 198.632H84.3163V126.16H42.5826V198.632Z" fill="#231F20"/>
<path d="M167.133 104.56L175.542 121.512H152.8L167.133 104.56Z" fill="#231F20"/>
<path d="M175.542 121.883H152.822C152.751 121.883 152.681 121.863 152.621 121.825C152.561 121.786 152.513 121.732 152.482 121.668C152.453 121.603 152.443 121.532 152.453 121.462C152.464 121.392 152.494 121.327 152.541 121.274L166.874 104.322C166.912 104.274 166.963 104.237 167.02 104.215C167.077 104.193 167.139 104.186 167.199 104.196C167.26 104.203 167.318 104.224 167.369 104.259C167.419 104.294 167.46 104.341 167.488 104.396L175.889 121.348C175.92 121.402 175.937 121.464 175.937 121.527C175.937 121.589 175.92 121.651 175.889 121.705C175.854 121.765 175.803 121.813 175.741 121.845C175.68 121.876 175.61 121.89 175.542 121.883ZM153.599 121.14H174.943L167.051 105.235L153.599 121.14Z" fill="#231F20"/>
<path d="M102.547 121.512H156.69L176.333 92.6123H125.222L102.547 121.512Z" fill="#231F20"/>
<path d="M156.69 121.883H102.532C102.462 121.882 102.395 121.863 102.336 121.825C102.277 121.788 102.23 121.735 102.2 121.673C102.17 121.61 102.158 121.54 102.166 121.471C102.174 121.402 102.2 121.336 102.243 121.281L124.918 92.3818C124.952 92.3376 124.996 92.3019 125.046 92.2775C125.096 92.253 125.151 92.2404 125.207 92.2407H176.318C176.385 92.2428 176.45 92.2624 176.507 92.2976C176.564 92.3327 176.611 92.3822 176.644 92.4412C176.68 92.4991 176.699 92.566 176.699 92.6343C176.699 92.7026 176.68 92.7695 176.644 92.8273L157.001 121.719C156.967 121.771 156.921 121.813 156.866 121.841C156.812 121.87 156.751 121.884 156.69 121.883ZM103.308 121.14H156.52L175.66 92.9833H125.399L103.308 121.14Z" fill="#231F20"/>
<path d="M126.849 95.4189L110.667 116.47H150.848L166.053 95.4189H126.849Z" fill="white"/>
<path d="M150.848 116.841H110.667C110.598 116.841 110.53 116.822 110.471 116.785C110.412 116.749 110.365 116.696 110.334 116.633C110.3 116.574 110.282 116.506 110.282 116.437C110.282 116.368 110.3 116.3 110.334 116.24L126.523 95.189C126.557 95.1448 126.601 95.1091 126.651 95.0847C126.701 95.0602 126.756 95.0476 126.812 95.0479H166.009C166.076 95.0467 166.143 95.065 166.2 95.1005C166.258 95.136 166.304 95.1873 166.334 95.2484C166.37 95.3063 166.389 95.3732 166.389 95.4415C166.389 95.5097 166.37 95.5766 166.334 95.6345L151.129 116.685C151.097 116.731 151.055 116.769 151.006 116.796C150.957 116.823 150.903 116.839 150.848 116.841ZM111.421 116.099H150.618L165.328 95.7756H127.034L111.421 116.099Z" fill="#231F20"/>
<path d="M138.356 112.638C138.279 112.638 138.205 112.613 138.142 112.568C138.08 112.523 138.033 112.459 138.009 112.386C136.064 106.631 133.357 100.32 132.373 100.171C131.197 100.171 123.654 106.431 116.953 112.549C116.881 112.616 116.785 112.651 116.686 112.647C116.588 112.643 116.495 112.6 116.428 112.527C116.361 112.454 116.326 112.358 116.331 112.259C116.335 112.16 116.378 112.067 116.45 112C118.773 109.884 130.317 99.436 132.44 99.436H132.521C134.414 99.7256 137.765 109.238 138.748 112.148C138.764 112.195 138.771 112.244 138.768 112.292C138.764 112.341 138.751 112.389 138.729 112.433C138.707 112.476 138.676 112.515 138.639 112.547C138.602 112.578 138.558 112.602 138.512 112.616C138.463 112.637 138.409 112.645 138.356 112.638Z" fill="#D1D3D4"/>
<path d="M150.426 113.411C150.345 113.41 150.266 113.383 150.202 113.334C150.138 113.284 150.092 113.215 150.071 113.136C148.769 108.495 146.913 103.542 146.04 103.283C145.168 103.023 141.115 106.698 137.816 110.233C137.749 110.305 137.655 110.347 137.557 110.349C137.458 110.352 137.363 110.316 137.291 110.248C137.22 110.18 137.178 110.086 137.175 109.987C137.172 109.888 137.209 109.792 137.276 109.72C138.963 107.916 144.583 102.072 146.255 102.577C147.926 103.082 150.322 111.295 150.781 112.973C150.808 113.067 150.797 113.169 150.75 113.255C150.703 113.342 150.624 113.406 150.529 113.433L150.426 113.411Z" fill="#D1D3D4"/>
<path d="M162.311 106.913C161.401 106.913 160.684 106.475 160.684 105.918C160.684 105.361 161.423 104.931 162.311 104.931C163.198 104.931 163.938 105.361 163.938 105.918C163.938 106.475 163.22 106.913 162.311 106.913ZM162.311 105.116C161.527 105.116 160.832 105.48 160.832 105.918C160.832 106.356 161.49 106.728 162.311 106.728C163.132 106.728 163.753 106.356 163.753 105.918C163.753 105.48 163.095 105.139 162.311 105.139V105.116Z" fill="#A7A9AC"/>
<path d="M168.775 98.4933H165.491C165.468 98.4915 165.446 98.4816 165.43 98.4652C165.414 98.4489 165.404 98.4272 165.402 98.4041C165.402 98.3798 165.411 98.3563 165.428 98.3384C165.444 98.3205 165.467 98.3095 165.491 98.3076H168.775C168.787 98.3076 168.799 98.3101 168.81 98.315C168.822 98.32 168.832 98.3272 168.84 98.3363C168.848 98.3454 168.855 98.3561 168.859 98.3678C168.863 98.3794 168.864 98.3918 168.863 98.4041C168.863 98.4278 168.854 98.4504 168.837 98.4672C168.821 98.4839 168.798 98.4933 168.775 98.4933Z" fill="#A7A9AC"/>
<path d="M156.69 121.883C156.611 121.884 156.534 121.86 156.468 121.816C156.39 121.757 156.338 121.67 156.323 121.573C156.308 121.476 156.331 121.377 156.387 121.296L166.874 106.847C166.902 106.807 166.939 106.774 166.98 106.748C167.022 106.723 167.068 106.705 167.116 106.698C167.164 106.69 167.213 106.692 167.26 106.704C167.308 106.715 167.352 106.736 167.392 106.765C167.47 106.824 167.522 106.911 167.537 107.008C167.552 107.105 167.529 107.204 167.473 107.285L156.986 121.764C156.948 121.805 156.902 121.836 156.851 121.857C156.8 121.877 156.745 121.886 156.69 121.883Z" fill="white"/>
<path d="M138.356 100.78C138.034 100.78 137.72 100.685 137.452 100.505C137.185 100.326 136.976 100.07 136.853 99.7719C136.73 99.4734 136.698 99.145 136.76 98.8281C136.823 98.5112 136.978 98.2201 137.206 97.9917C137.433 97.7632 137.723 97.6076 138.039 97.5446C138.354 97.4815 138.682 97.5139 138.979 97.6375C139.276 97.7612 139.53 97.9706 139.709 98.2392C139.888 98.5078 139.983 98.8237 139.983 99.1468C139.983 99.58 139.812 99.9955 139.507 100.302C139.202 100.608 138.788 100.78 138.356 100.78ZM138.356 98.2557C138.181 98.2557 138.009 98.308 137.863 98.4059C137.717 98.5038 137.604 98.643 137.536 98.8058C137.469 98.9686 137.452 99.1478 137.486 99.3206C137.52 99.4934 137.605 99.6522 137.729 99.7768C137.853 99.9014 138.011 99.9863 138.183 100.021C138.355 100.055 138.534 100.037 138.696 99.97C138.858 99.9025 138.997 99.7883 139.094 99.6418C139.192 99.4953 139.244 99.323 139.244 99.1468C139.245 99.0295 139.222 98.9132 139.178 98.8046C139.134 98.6961 139.069 98.5974 138.986 98.5145C138.903 98.4316 138.805 98.366 138.697 98.3215C138.589 98.2771 138.473 98.2547 138.356 98.2557Z" fill="#D1D3D4"/>
<path d="M203.505 122.143H36.57V129.249H203.505V122.143Z" fill="white"/>
<path d="M203.512 129.62H36.57C36.4719 129.62 36.3778 129.581 36.3085 129.511C36.2391 129.442 36.2002 129.347 36.2002 129.249V122.143C36.2021 122.045 36.2416 121.952 36.3106 121.882C36.3795 121.813 36.4725 121.773 36.57 121.771H203.512C203.609 121.773 203.702 121.813 203.771 121.882C203.84 121.952 203.88 122.045 203.882 122.143V129.249C203.882 129.347 203.843 129.442 203.773 129.511C203.704 129.581 203.61 129.62 203.512 129.62ZM36.9397 128.878H203.113V122.507H36.9397V128.878Z" fill="#231F20"/>
<path d="M99.359 160.584C99.5143 161.111 90.1736 194.778 90.1736 194.778L103.227 196.887L118.654 150.374L99.359 160.584Z" fill="white"/>
<path d="M103.227 197.258H103.168L90.1145 195.149C90.0624 195.141 90.0124 195.123 89.9678 195.095C89.9232 195.067 89.885 195.03 89.8556 194.986C89.804 194.893 89.7882 194.785 89.8112 194.681C93.4573 181.568 98.8857 161.735 98.9892 160.621C98.9841 160.549 99.0003 160.476 99.0358 160.413C99.0713 160.349 99.1245 160.298 99.1889 160.265L118.484 150.055C118.55 150.021 118.624 150.008 118.698 150.016C118.771 150.024 118.841 150.053 118.898 150.099C118.952 150.149 118.991 150.213 119.011 150.284C119.03 150.355 119.03 150.43 119.009 150.5L103.575 197.013C103.55 197.085 103.503 197.148 103.44 197.192C103.378 197.236 103.303 197.259 103.227 197.258ZM90.6543 194.473L102.99 196.471L118.033 151.139L99.6918 160.836C99.2851 162.967 96.2455 174.261 90.6395 194.473H90.6543Z" fill="#231F20"/>
<path d="M89.3823 193.322L87.3929 199.604L118.654 202.032C117.186 199.064 114.648 196.767 111.554 195.609C108.308 194.466 104.81 193.1 104.81 193.1L103.227 196.887L89.3823 193.322Z" fill="#231F20"/>
<path d="M118.654 202.404L87.3929 199.976C87.3371 199.971 87.2831 199.955 87.2347 199.927C87.1864 199.899 87.145 199.86 87.1137 199.813C87.0824 199.767 87.0619 199.714 87.0539 199.658C87.0459 199.603 87.0505 199.546 87.0674 199.493L89.0569 193.211C89.0859 193.121 89.148 193.046 89.2304 193C89.3129 192.955 89.4095 192.942 89.5006 192.966L103.035 196.448L104.514 192.959C104.532 192.914 104.558 192.874 104.592 192.84C104.625 192.805 104.665 192.778 104.709 192.76C104.753 192.741 104.8 192.731 104.848 192.731C104.896 192.731 104.943 192.74 104.987 192.758C105.024 192.758 108.515 194.132 111.725 195.26C114.916 196.448 117.534 198.818 119.039 201.884C119.07 201.939 119.086 202.002 119.086 202.066C119.086 202.129 119.07 202.192 119.039 202.248C118.999 202.311 118.941 202.36 118.872 202.388C118.803 202.416 118.727 202.421 118.654 202.404ZM87.881 199.27L118.018 201.617C116.554 199.013 114.224 197.01 111.436 195.958C108.796 195.03 105.963 193.946 105.009 193.582L103.567 197.028C103.533 197.111 103.47 197.179 103.39 197.22C103.31 197.261 103.218 197.271 103.131 197.25L89.6263 193.79L87.881 199.27Z" fill="#231F20"/>
<path d="M67.4394 161.03L65.2207 196.493C65.2207 196.493 57.7215 196.753 55.843 198.075C53.9645 199.397 52.4336 205.381 52.4336 205.381H54.7707C54.7707 205.381 56.1315 200.926 57.6254 200.392C59.1193 199.857 67.6095 199.649 67.6095 199.649C67.6095 199.649 71.7067 201.238 72.3649 203.963C72.8826 206.109 72.7347 206.607 72.7347 206.607H75.3232C75.3169 205.386 75.1427 204.171 74.8055 202.998C74.2878 201.513 72.3427 199.738 72.3427 199.738C72.3427 199.738 76.6248 199.827 78.0521 199.827C79.4795 199.827 80.966 202.56 80.966 202.56H83.7542C83.7542 202.56 80.8403 197.629 78.9544 197.28C77.0685 196.931 72.2318 196.085 72.2318 196.085L70.9154 163.042L67.4394 161.03Z" fill="#231F20"/>
<path d="M75.3527 206.985H72.7643C72.706 206.984 72.6486 206.97 72.5963 206.945C72.5439 206.919 72.4977 206.882 72.461 206.837C72.4277 206.789 72.4058 206.733 72.3968 206.676C72.3878 206.618 72.3921 206.558 72.4093 206.503C72.4126 205.673 72.2853 204.849 72.0321 204.06C71.4774 201.735 68.0828 200.243 67.5947 200.035C65.1911 200.087 58.964 200.31 57.8029 200.778C56.8414 201.134 55.6803 203.881 55.1774 205.522C55.154 205.599 55.107 205.666 55.0432 205.714C54.9794 205.762 54.9021 205.789 54.8224 205.79H52.4632C52.4071 205.788 52.3521 205.774 52.3022 205.748C52.2523 205.722 52.2088 205.685 52.1747 205.641C52.1407 205.596 52.1171 205.544 52.1056 205.489C52.0941 205.434 52.095 205.377 52.1082 205.322C52.1674 205.077 53.6909 199.189 55.6581 197.807C57.3961 196.59 63.394 196.241 64.9027 196.174L67.077 161.037C67.082 160.974 67.1021 160.914 67.1356 160.861C67.1691 160.808 67.215 160.764 67.2693 160.733C67.3239 160.703 67.3849 160.688 67.4468 160.688C67.5087 160.688 67.5697 160.703 67.6243 160.733L71.1298 162.76C71.1841 162.79 71.2296 162.834 71.262 162.888C71.2943 162.941 71.3125 163.002 71.3147 163.064L72.6237 195.81C73.7035 195.996 77.4605 196.649 79.058 196.953C81.04 197.325 83.7986 201.884 84.1018 202.404C84.1342 202.46 84.1513 202.524 84.1513 202.589C84.1513 202.655 84.1342 202.719 84.1018 202.775C84.0693 202.833 84.022 202.881 83.9649 202.915C83.9078 202.949 83.8427 202.967 83.7764 202.968H80.9882C80.9219 202.967 80.8568 202.949 80.7997 202.915C80.7426 202.881 80.6953 202.833 80.6628 202.775C80.1303 201.795 78.947 200.235 78.0743 200.235C77.0685 200.235 74.628 200.191 73.282 200.169C74.0855 200.949 74.7288 201.88 75.1752 202.909C75.53 204.114 75.7118 205.364 75.7151 206.621C75.7132 206.717 75.6744 206.809 75.6069 206.876C75.5393 206.944 75.4483 206.983 75.3527 206.985ZM73.134 206.243H74.9608C74.9363 205.186 74.7721 204.137 74.4727 203.124C73.9919 201.735 72.1282 200.042 72.1061 200.02C72.0517 199.969 72.0136 199.903 71.9965 199.831C71.9794 199.758 71.984 199.682 72.0099 199.612C72.0406 199.543 72.0903 199.483 72.1532 199.441C72.216 199.399 72.2894 199.376 72.3649 199.374C72.4093 199.374 76.6544 199.463 78.0669 199.463C79.4795 199.463 80.7959 201.505 81.1953 202.196H83.1034C82.1124 200.629 80.1451 197.882 78.9027 197.651C77.0463 197.302 72.2466 196.471 72.1874 196.463C72.1024 196.45 72.0248 196.406 71.9681 196.341C71.9114 196.276 71.8791 196.193 71.8768 196.107L70.5825 163.272L67.7722 161.646L65.6201 196.545C65.6146 196.637 65.5753 196.724 65.5096 196.788C65.444 196.853 65.3568 196.891 65.2651 196.894C63.2091 196.968 57.5514 197.377 56.0871 198.379C54.7559 199.315 53.469 203.124 52.9439 205.01H54.5266C54.8668 203.963 56.0797 200.555 57.4849 200.042C58.89 199.53 67.2471 199.3 67.5947 199.3H67.7352C67.9127 199.367 72.0247 200.985 72.7199 203.867C72.9398 204.643 73.0835 205.438 73.1488 206.243H73.134Z" fill="#231F20"/>
<path d="M110.201 138.412C110.201 138.412 139.739 139.994 141.603 144.219C143.467 148.444 129.77 194.904 129.77 194.904C129.77 194.904 144.228 199.924 141.862 200.978C139.495 202.033 115.829 199.924 115.829 199.924L127.048 156.857L97.8207 154.882L110.201 138.412Z" fill="white"/>
<path d="M138.142 201.646C131.205 201.646 117.722 200.466 115.822 200.295C115.768 200.29 115.715 200.274 115.668 200.247C115.621 200.22 115.58 200.183 115.548 200.139C115.518 200.094 115.497 200.043 115.488 199.989C115.479 199.935 115.482 199.88 115.496 199.827L126.59 157.228L97.8059 155.282C97.7405 155.275 97.6779 155.251 97.6237 155.214C97.5695 155.176 97.5254 155.126 97.4953 155.067C97.4671 155.006 97.4563 154.938 97.4641 154.871C97.472 154.805 97.4981 154.741 97.5397 154.688L109.927 138.189C109.96 138.137 110.006 138.095 110.061 138.069C110.116 138.043 110.178 138.033 110.238 138.041C110.312 138.041 117.722 138.442 125.266 139.362C140.715 141.234 141.655 143.365 141.965 144.07C143.792 148.221 131.611 190.107 130.265 194.674C134.193 196.048 142.476 199.129 142.535 200.651C142.537 200.8 142.491 200.945 142.405 201.065C142.318 201.186 142.195 201.275 142.054 201.32C140.773 201.618 139.455 201.728 138.142 201.646ZM116.317 199.59C123.18 200.198 139.909 201.453 141.736 200.637C141.248 199.738 135.169 197.176 129.652 195.268C129.562 195.236 129.487 195.17 129.445 195.084C129.402 194.998 129.394 194.899 129.422 194.808C133.209 181.925 142.734 147.738 141.255 144.374C139.776 141.011 118.669 139.251 110.371 138.798L98.5381 154.592L127.085 156.53C127.14 156.533 127.194 156.547 127.242 156.573C127.291 156.599 127.333 156.635 127.366 156.678C127.426 156.771 127.447 156.882 127.426 156.99L116.317 199.59Z" fill="#231F20"/>
<path d="M100.18 112.007C100.18 112.007 115.356 131.016 121.842 130.489C128.328 129.962 146.906 106.527 146.906 106.527C150.263 102.503 154.02 97.3942 151.617 91.8475C151.38 91.3129 150.966 90.7411 150.389 90.7857C150.146 90.8231 149.916 90.9172 149.716 91.0604L147.645 92.3376C147.712 91.7658 146.987 91.3574 146.432 91.5133C145.893 91.7253 145.443 92.119 145.16 92.6271C143.008 95.7012 141.618 98.6268 141.736 102.414L120.022 113.552L111.407 103.981" fill="white"/>
<path d="M121.583 130.868C114.846 130.868 100.505 113.047 99.8915 112.237C99.8402 112.16 99.8198 112.066 99.8342 111.974C99.8486 111.882 99.8968 111.799 99.9694 111.741C100.042 111.683 100.133 111.655 100.226 111.662C100.318 111.668 100.405 111.709 100.468 111.777C100.616 111.963 115.2 130.133 121.561 130.133H121.812C128.069 129.628 146.418 106.542 146.595 106.305C150.064 102.161 153.562 97.3051 151.262 92.0108C151.173 91.8029 150.862 91.142 150.404 91.1717C150.219 91.2055 150.044 91.2817 149.893 91.3945L147.808 92.6642C147.749 92.7008 147.681 92.72 147.612 92.7197C147.542 92.7194 147.475 92.6995 147.416 92.6624C147.357 92.6252 147.31 92.5723 147.28 92.5096C147.25 92.4469 147.238 92.377 147.246 92.3078C147.251 92.2542 147.241 92.2003 147.217 92.1519C147.194 92.1035 147.158 92.0624 147.113 92.033C147.029 91.9654 146.931 91.9171 146.826 91.8914C146.721 91.8658 146.612 91.8634 146.506 91.8845C146.051 92.0795 145.673 92.4219 145.434 92.8573C143.615 95.4561 141.951 98.4114 142.076 102.421C142.079 102.491 142.061 102.56 142.026 102.621C141.99 102.681 141.939 102.731 141.877 102.763L120.163 113.901C120.09 113.938 120.008 113.951 119.927 113.936C119.847 113.921 119.774 113.88 119.719 113.819L111.111 104.233C111.076 104.198 111.049 104.157 111.03 104.112C111.011 104.067 111.001 104.018 111.001 103.969C111.001 103.92 111.011 103.872 111.03 103.827C111.049 103.781 111.076 103.74 111.111 103.706C111.181 103.637 111.275 103.599 111.373 103.599C111.471 103.599 111.565 103.637 111.636 103.706L120.052 113.047L141.315 102.169C141.248 98.0624 142.949 95.0403 144.805 92.3895C145.138 91.8097 145.661 91.3637 146.284 91.1272C146.509 91.073 146.743 91.0723 146.968 91.1252C147.192 91.178 147.402 91.283 147.579 91.4316C147.678 91.5187 147.763 91.6216 147.83 91.736L149.487 90.7188C149.737 90.5429 150.027 90.4307 150.33 90.392C150.973 90.3401 151.543 90.8153 151.913 91.6766C154.59 97.8397 149.753 103.631 147.15 106.743C146.41 107.693 128.424 130.303 121.849 130.838L121.583 130.868Z" fill="#231F20"/>
<path d="M50.5034 108.762C50.5034 108.762 42.6862 126.546 45.5853 128.447C48.4844 130.348 66.1304 128.447 66.1304 128.447L64.5995 105.428" fill="white"/>
<path d="M52.2931 129.62C49.1352 129.62 46.3766 129.398 45.3708 128.729C44.8679 128.403 43.3296 127.4 46.6059 117.77C48.1811 113.129 50.141 108.659 50.1632 108.614C50.1788 108.564 50.2046 108.518 50.2391 108.479C50.2735 108.44 50.3158 108.409 50.3631 108.387C50.4104 108.366 50.4618 108.355 50.5137 108.354C50.5657 108.354 50.6171 108.365 50.6647 108.386C50.7123 108.407 50.7549 108.437 50.7898 108.476C50.8247 108.515 50.8511 108.56 50.8673 108.61C50.8835 108.66 50.8891 108.712 50.8837 108.764C50.8783 108.816 50.8621 108.866 50.8362 108.911C47.8779 115.676 43.8695 126.866 45.7776 128.106C47.9962 129.591 60.5688 128.611 65.7458 128.106L64.2667 105.451C64.2633 105.402 64.2695 105.353 64.2849 105.307C64.3003 105.26 64.3247 105.218 64.3567 105.181C64.4212 105.106 64.5125 105.061 64.6106 105.054C64.7086 105.047 64.8054 105.079 64.8796 105.144C64.9538 105.209 64.9994 105.3 65.0062 105.399L66.5371 128.418C66.5433 128.514 66.5121 128.608 66.45 128.682C66.3879 128.755 66.2998 128.802 66.2043 128.811C65.6866 128.841 58.2318 129.62 52.2931 129.62Z" fill="#231F20"/>
<path d="M56.871 138.902C56.871 138.902 53.0475 147.426 57.1225 152.802C61.1975 158.178 117.767 158.824 117.767 158.824L121.827 138.412L98.1609 135.174L96.7853 128.113L56.871 138.902Z" fill="white"/>
<path d="M117.782 159.196C117.641 159.196 103.464 159.025 88.9385 158.201C69.3771 157.087 58.5646 155.342 56.8045 153.003C52.6481 147.523 56.3459 139.088 56.5086 138.731C56.5307 138.68 56.5642 138.635 56.6066 138.599C56.6489 138.563 56.6989 138.537 56.7527 138.523L96.6892 127.734C96.7387 127.719 96.7909 127.715 96.8421 127.723C96.8933 127.731 96.9421 127.75 96.985 127.779C97.0268 127.805 97.0628 127.84 97.0908 127.881C97.1188 127.922 97.1381 127.968 97.1477 128.017L98.4715 134.826L121.849 138.019C121.9 138.025 121.948 138.042 121.992 138.069C122.035 138.096 122.072 138.132 122.101 138.174C122.13 138.215 122.15 138.26 122.161 138.309C122.171 138.358 122.171 138.408 122.16 138.457L118.144 158.891C118.128 158.976 118.084 159.054 118.018 159.109C117.951 159.165 117.868 159.195 117.782 159.196ZM57.1373 139.214C56.6565 140.395 53.824 147.842 57.4183 152.58C60.5393 156.693 97.8873 158.223 117.478 158.461L121.405 138.731L98.1535 135.553C98.0774 135.542 98.0066 135.508 97.9509 135.455C97.8953 135.401 97.8575 135.332 97.8429 135.256L96.5487 128.573L57.1373 139.214Z" fill="#231F20"/>
<path d="M80.049 67.0912C79.4718 66.7434 78.969 66.284 78.5699 65.7398C78.0159 64.9424 77.6147 64.0485 77.3865 63.1038C75.3823 55.8269 75.3675 46.5081 81.8239 41.5256C83.7283 40.0646 85.9536 39.083 88.3135 38.6631C90.6734 38.2433 93.0991 38.3973 95.3875 39.1124C98.5233 40.1371 101.186 44.4661 102.584 47.2803C103.73 49.5599 104.506 52.04 105.867 54.1933C107.228 56.3467 109.395 58.2327 111.939 58.3589C110.931 58.925 109.809 59.2551 108.657 59.3245C107.504 59.394 106.351 59.201 105.283 58.7599C105.781 59.4308 106.46 59.9437 107.241 60.2373C108.021 60.531 108.869 60.5929 109.683 60.4158C108.204 61.5964 106.089 61.5518 104.225 61.1583C102.362 60.7648 100.528 60.1707 98.612 60.4158C95.6538 60.7499 93.7309 62.933 91.4161 64.5146C88.48 66.4452 83.4066 69.044 80.049 67.0912Z" fill="white"/>
<path d="M82.8371 68.1605C81.8027 68.1828 80.7812 67.9264 79.8789 67.4179C79.2471 67.04 78.7006 66.5343 78.274 65.9329C77.6906 65.0878 77.2693 64.141 77.0316 63.1409C76.0553 59.5768 73.4816 47.4437 81.5799 41.1767C83.5312 39.6747 85.8138 38.666 88.2349 38.2357C90.656 37.8053 93.1448 37.966 95.4911 38.704C98.8487 39.7956 101.578 44.3844 102.887 47.0205C103.33 47.9115 103.73 48.8397 104.107 49.7381C104.676 51.1811 105.359 52.5765 106.148 53.9112C106.888 55.0621 108.899 57.7501 111.924 57.8986C112.004 57.9015 112.081 57.9307 112.142 57.9817C112.204 58.0327 112.247 58.1027 112.264 58.1808C112.285 58.259 112.279 58.342 112.247 58.4163C112.215 58.4905 112.158 58.5515 112.087 58.5892C110.445 59.5077 108.535 59.8203 106.688 59.4728C107.555 60.0076 108.594 60.1833 109.587 59.9629C109.67 59.9416 109.757 59.9496 109.834 59.9854C109.911 60.0212 109.974 60.0827 110.011 60.1595C110.049 60.2363 110.059 60.3236 110.039 60.4069C110.02 60.4901 109.973 60.5641 109.905 60.6163C108.581 61.6633 106.644 61.9454 104.144 61.4628C103.7 61.3811 103.257 61.2772 102.813 61.1732C101.461 60.7809 100.054 60.6203 98.649 60.698C96.5561 60.9356 95.003 62.1831 93.3537 63.4379C92.7917 63.876 92.2148 64.3216 91.6158 64.7374C89.8926 65.9403 86.1948 68.1605 82.8371 68.1605ZM90.9354 38.7634C87.7115 38.7616 84.5768 39.8263 82.0162 41.793C74.2878 47.7853 76.7801 59.5173 77.7341 62.9776C77.9504 63.8875 78.3342 64.7487 78.8657 65.517C79.2367 66.0256 79.7073 66.4526 80.2487 66.7719C83.8134 68.851 89.545 65.2869 91.2164 64.1508C91.7933 63.7572 92.3627 63.3117 92.91 62.881C94.5666 61.589 96.2824 60.2525 98.5825 59.9926C100.079 59.8986 101.58 60.0644 103.02 60.4826C103.456 60.5792 103.893 60.6831 104.329 60.7648C105.56 61.0527 106.84 61.0527 108.071 60.7648C106.851 60.5686 105.755 59.9027 105.017 58.9085C104.969 58.8442 104.943 58.766 104.943 58.6857C104.943 58.6054 104.969 58.5272 105.017 58.4629C105.065 58.3983 105.134 58.3521 105.212 58.3318C105.29 58.3116 105.372 58.3185 105.446 58.3516C107.114 59.0298 108.972 59.0694 110.667 58.4629C108.507 57.7767 106.683 56.3005 105.557 54.327C104.742 52.961 104.039 51.5306 103.456 50.05C103.079 49.1664 102.717 48.2456 102.251 47.3769C101.23 45.3349 98.5011 40.4787 95.2766 39.4317C93.8734 38.9819 92.4084 38.7564 90.9354 38.7634Z" fill="#231F20"/>
<path d="M100.091 61.8042C100.091 61.8042 102.11 68.1455 101.053 69.0439C99.995 69.9424 97.7985 68.5316 97.7985 68.5316" fill="white"/>
<path d="M100.158 69.7197C99.2532 69.6419 98.3818 69.3409 97.621 68.8435C97.5774 68.8185 97.5393 68.7849 97.5091 68.7446C97.4788 68.7044 97.4571 68.6584 97.4451 68.6094C97.4332 68.5605 97.4313 68.5096 97.4395 68.4599C97.4478 68.4102 97.4661 68.3626 97.4932 68.3202C97.5204 68.2778 97.5558 68.2414 97.5974 68.2132C97.6391 68.185 97.686 68.1656 97.7353 68.1562C97.7846 68.1468 97.8353 68.1476 97.8844 68.1585C97.9334 68.1695 97.9797 68.1903 98.0204 68.2198C98.5381 68.5465 100.158 69.3558 100.831 68.7618C101.341 68.3237 100.683 64.8709 99.7362 61.923C99.7082 61.8285 99.718 61.7268 99.7636 61.6394C99.8092 61.552 99.8869 61.486 99.9803 61.4552C100.073 61.4248 100.175 61.4327 100.262 61.4773C100.35 61.5218 100.416 61.5994 100.446 61.6929C100.934 63.2373 102.45 68.3757 101.311 69.3261C100.989 69.5971 100.578 69.7375 100.158 69.7197Z" fill="#231F20"/>
<path d="M101.319 54.5349C103.042 57.0002 101.319 60.698 100.579 63.2152C99.5587 66.7596 98.4567 70.2767 97.2734 73.7666C96.5339 75.9942 90.7061 74.3829 89.8778 73.4251L88.2951 82.5657L76.0405 78.311L79.9824 67.2249C79.9824 67.2249 83.9243 68.3684 87.4742 64.4255C91.0241 60.4827 93.4943 50.4287 93.4943 50.4287C93.4943 50.4287 99.6401 52.1217 101.319 54.5349Z" fill="white"/>
<path d="M88.2877 82.9369H88.1694L75.9074 78.6971C75.8609 78.6825 75.8178 78.6586 75.7809 78.6266C75.744 78.5947 75.7141 78.5555 75.6929 78.5114C75.6596 78.4178 75.6596 78.3155 75.6929 78.2218L79.6052 67.0986C79.6357 67.0104 79.6987 66.9374 79.7813 66.8945C79.8639 66.8517 79.9597 66.8423 80.049 66.8684C80.2043 66.9056 83.8281 67.8857 87.171 64.173C90.5138 60.4604 93.0875 50.4435 93.0875 50.3396C93.0984 50.2915 93.1192 50.2462 93.1485 50.2066C93.1778 50.1669 93.2149 50.1339 93.2576 50.1094C93.3476 50.0723 93.4486 50.0723 93.5386 50.1094C93.7975 50.1836 99.8397 51.8692 101.578 54.3567C103.116 56.5843 102.125 59.5545 101.319 62.0048C101.164 62.4801 101.016 62.933 100.89 63.3562C99.8693 66.8833 98.76 70.44 97.5767 73.9225C97.4318 74.2647 97.197 74.5609 96.8974 74.7793C96.5977 74.9978 96.2446 75.1302 95.8757 75.1626C93.8859 75.3842 91.8753 75.0069 90.0997 74.0785L88.6205 82.6325C88.6122 82.6854 88.5919 82.7357 88.5611 82.7795C88.5303 82.8233 88.4899 82.8594 88.443 82.885C88.3964 82.915 88.343 82.9329 88.2877 82.9369ZM76.5065 78.0807L87.9993 82.0756L89.4784 73.3582C89.4907 73.2892 89.5221 73.2251 89.5691 73.1732C89.6162 73.1214 89.6768 73.084 89.7442 73.0654C89.8115 73.0467 89.8827 73.0476 89.9495 73.0679C90.0163 73.0882 90.0761 73.127 90.1218 73.18C90.6543 73.7963 93.8566 74.8062 95.7351 74.4349C96.3712 74.3087 96.7557 74.0414 96.8889 73.6404C98.0648 70.1727 99.1815 66.6308 100.195 63.1112C100.32 62.6805 100.476 62.2202 100.631 61.7301C101.371 59.4654 102.317 56.6437 100.986 54.7428C99.6548 52.8419 95.0695 51.2975 93.7235 50.8965C93.228 52.79 90.9354 61.0915 87.7109 64.6705C84.6121 68.1085 81.2545 67.8486 80.1821 67.6407L76.5065 78.0807Z" fill="#231F20"/>
<path d="M97.9316 71.0934C97.9316 71.0934 94.7145 72.0141 94.0563 68.7544L97.9316 71.0934Z" fill="white"/>
<path d="M96.948 71.5838C96.3134 71.6001 95.6866 71.4408 95.1361 71.1234C94.7418 70.868 94.406 70.5313 94.151 70.1357C93.896 69.7402 93.7276 69.2948 93.657 68.829C93.6395 68.7314 93.6609 68.6308 93.7164 68.5489C93.772 68.4669 93.8574 68.4101 93.9542 68.3907C94.0511 68.3712 94.1516 68.3907 94.2343 68.4449C94.317 68.499 94.3753 68.5836 94.3965 68.6805C94.4456 69.0423 94.5697 69.3899 94.7608 69.7007C94.9519 70.0114 95.2057 70.2786 95.5059 70.4848C96.2172 70.8444 97.034 70.9341 97.8059 70.7373C97.8545 70.7241 97.9051 70.7207 97.955 70.7272C98.0049 70.7337 98.053 70.75 98.0966 70.7751C98.1403 70.8003 98.1785 70.8339 98.2092 70.8739C98.2399 70.9139 98.2624 70.9596 98.2755 71.0083C98.2887 71.0571 98.2921 71.1079 98.2856 71.158C98.2791 71.2081 98.2629 71.2564 98.2378 71.3002C98.2128 71.344 98.1794 71.3824 98.1395 71.4132C98.0997 71.444 98.0542 71.4667 98.0056 71.4798C97.6586 71.5576 97.3035 71.5925 96.948 71.5838Z" fill="#231F20"/>
<path d="M92.6733 62.1679C92.8236 61.2513 92.7186 60.3108 92.3701 59.4502C92.1898 58.7554 91.9108 58.0902 91.5418 57.4751C91.3499 57.1718 91.0942 56.9143 90.7927 56.7206C90.4912 56.5269 90.1512 56.4017 89.7964 56.3539C89.4776 56.3482 89.1612 56.4115 88.869 56.5397C88.5767 56.6678 88.3154 56.8577 88.1028 57.0964C87.6711 57.5616 87.3522 58.1207 87.171 58.73C86.7432 60.0446 86.6663 61.4488 86.9479 62.8025C87.2295 64.1562 87.8598 65.4122 88.7758 66.4449L88.6353 66.1776" fill="white"/>
<path d="M88.7758 66.8163C88.7246 66.8158 88.6741 66.805 88.6271 66.7846C88.5801 66.7642 88.5376 66.7346 88.5022 66.6975C87.5406 65.6098 86.8791 64.2886 86.5833 62.8649C86.2875 61.4412 86.3677 59.9645 86.816 58.5816C87.0142 57.9184 87.3637 57.3108 87.8366 56.8069C88.0914 56.5362 88.4004 56.3228 88.7433 56.1807C89.0862 56.0387 89.4552 55.9712 89.826 55.9827C90.2374 56.0295 90.6329 56.1694 90.9826 56.392C91.3323 56.6145 91.6272 56.9138 91.845 57.2673C92.2378 57.9109 92.5344 58.6089 92.7251 59.339C93.0958 60.264 93.2034 61.2743 93.0357 62.2571C93.0097 62.3533 92.947 62.4353 92.8611 62.4853C92.7753 62.5354 92.6733 62.5494 92.5772 62.5245C92.4833 62.4984 92.4035 62.4362 92.3551 62.3514C92.3066 62.2666 92.2934 62.166 92.3184 62.0715C92.4423 61.2227 92.3376 60.3561 92.0151 59.5617C91.8493 58.9019 91.585 58.271 91.2312 57.6905C91.0727 57.4285 90.8574 57.2056 90.6013 57.0385C90.3452 56.8714 90.055 56.7643 89.7521 56.7252C89.4888 56.7202 89.2275 56.7711 88.9853 56.8748C88.7431 56.9785 88.5255 57.1325 88.3469 57.3267C87.9535 57.7495 87.6625 58.2577 87.4964 58.8118C87.1135 59.9879 87.0232 61.2403 87.2334 62.4595C87.4435 63.6788 87.9477 64.8279 88.7019 65.8065C88.7533 65.8206 88.8015 65.845 88.8434 65.8782C88.8853 65.9114 88.9202 65.9526 88.9459 65.9995L89.0791 66.2668C89.1218 66.3466 89.1334 66.4396 89.1115 66.5274C89.0896 66.6153 89.0358 66.6919 88.9607 66.7421C88.9076 66.7844 88.8434 66.8102 88.7758 66.8163Z" fill="#231F20"/>
<path d="M100.324 58.8565C100.482 58.1481 100.384 57.5231 100.105 57.4604C99.8258 57.3977 99.4717 57.9212 99.3139 58.6295C99.156 59.3379 99.2543 59.9629 99.5333 60.0256C99.8123 60.0883 100.166 59.5648 100.324 58.8565Z" fill="#231F20"/>
<path d="M89.8704 73.4253C88.2636 72.3784 86.7246 71.2301 85.2629 69.9873C85.2629 69.9873 84.5233 76.4177 88.909 77.8953L89.8704 73.4253Z" fill="#231F20"/>
<path d="M88.909 78.2665C88.8698 78.2736 88.8297 78.2736 88.7906 78.2665C84.1905 76.7146 84.8635 70.2397 84.8931 69.965C84.9011 69.8984 84.9265 69.8351 84.9668 69.7816C85.007 69.7281 85.0608 69.6863 85.1224 69.6605C85.185 69.6366 85.2527 69.6295 85.3188 69.6399C85.385 69.6503 85.4473 69.6779 85.4996 69.7199C86.9511 70.9525 88.4775 72.0933 90.0701 73.1356C90.132 73.1767 90.1806 73.2353 90.2095 73.304C90.2384 73.3727 90.2465 73.4484 90.2328 73.5217L89.2713 77.9769C89.2602 78.0278 89.2386 78.0759 89.2081 78.1181C89.1775 78.1602 89.1386 78.1956 89.0938 78.222C89.0366 78.2513 88.9732 78.2665 88.909 78.2665ZM85.5957 70.7446C85.5957 72.3337 85.8028 76.128 88.6427 77.3903L89.4562 73.596C88.1208 72.7137 86.8322 71.7619 85.5957 70.7446Z" fill="#231F20"/>
<path d="M54.5784 141.716C54.5784 141.716 55.244 96.2732 62.0332 85.8109C68.8224 75.3486 86.4388 72.9873 94.8403 79.2246C103.242 85.4619 99.1963 133.133 99.1963 133.133C99.1963 133.133 72.4093 141.716 54.5784 141.716Z" fill="#6C63FF"/>
<path d="M88.9755 76.5513C93.4444 78.3739 97.6211 80.8484 101.371 83.895C107.184 88.7437 119.453 109.594 119.453 109.594L103.271 119.433L88.7463 101.449L88.9755 76.5513Z" fill="#6C63FF"/>
<path d="M69.0295 79.3804C69.0295 79.3804 60.5615 80.3382 56.0797 89.6719C53.6539 94.736 47.4416 111.087 47.4416 111.087L66.123 113.247L69.0295 79.3804Z" fill="#6C63FF"/>
<path d="M102.058 118.296C102 118.296 101.943 118.282 101.892 118.255C101.84 118.228 101.796 118.188 101.763 118.14L87.3337 98.4113C87.3046 98.3723 87.2834 98.3279 87.2713 98.2807C87.2593 98.2334 87.2566 98.1843 87.2635 98.136C87.2703 98.0878 87.2866 98.0413 87.3113 97.9994C87.3361 97.9574 87.3688 97.9208 87.4076 97.8915C87.4877 97.8351 87.5864 97.8121 87.6829 97.8273C87.7795 97.8426 87.8664 97.8949 87.9253 97.9732L102.354 117.702C102.395 117.758 102.421 117.823 102.427 117.892C102.433 117.96 102.42 118.03 102.389 118.091C102.358 118.153 102.311 118.205 102.253 118.241C102.194 118.277 102.127 118.296 102.058 118.296Z" fill="#231F20"/>
<path d="M145.131 95.9985L148.74 84.749L149.864 85.0757L147.593 96.1692C147.593 96.1692 145.996 97.7137 145.131 95.9985Z" fill="#231F20"/>
<path d="M146.24 97.1786H145.989C145.724 97.1227 145.478 97.0029 145.27 96.8294C145.063 96.656 144.901 96.4343 144.798 96.1836C144.761 96.0932 144.761 95.9918 144.798 95.9014L148.385 84.6371C148.417 84.5461 148.482 84.4705 148.567 84.4252C148.651 84.3798 148.75 84.368 148.843 84.3921L149.967 84.7188C150.057 84.7449 150.133 84.8037 150.181 84.8834C150.229 84.9632 150.245 85.0582 150.226 85.1495L147.956 96.2876C147.941 96.3586 147.905 96.4233 147.852 96.4732C147.412 96.8885 146.843 97.1378 146.24 97.1786ZM145.5 95.9534C145.557 96.071 145.638 96.1747 145.739 96.2568C145.841 96.339 145.958 96.3977 146.085 96.4286C146.509 96.4324 146.917 96.2699 147.224 95.9757L149.405 85.3351L148.954 85.2089L145.5 95.9534Z" fill="#231F20"/>
<path d="M76.8836 70.529C70.2276 69.0439 62.8319 70.0835 57.4553 74.2417C55.1767 75.9115 53.4648 78.2446 52.552 80.9245C52.1194 82.2709 52.0186 83.7026 52.2582 85.0968C52.4978 86.491 53.0706 87.806 53.9276 88.929C59.0305 95.0847 70.235 95.055 77.1647 93.0427C81.8905 91.6764 95.8831 85.0084 92.0299 78.4593C89.2566 73.7739 81.8757 71.6057 76.8836 70.529Z" fill="#6C63FF"/>
<path d="M68.4082 93.5997C63.998 93.4712 59.6915 92.2275 55.8874 89.9835C55.8453 89.9584 55.8087 89.9251 55.7798 89.8854C55.7508 89.8457 55.7302 89.8006 55.7192 89.7527C55.7081 89.7048 55.7068 89.6552 55.7154 89.6068C55.724 89.5584 55.7422 89.5123 55.7691 89.4712C55.8221 89.3886 55.9056 89.3304 56.0013 89.3096C56.0969 89.2887 56.1969 89.3067 56.2794 89.3598C56.3681 89.4192 65.5165 95.1293 74.1768 91.8324C78.3332 90.2508 80.8329 87.444 83.2217 84.7338C85.862 81.7636 88.3543 78.9568 92.6586 78.5633C92.7071 78.5592 92.7561 78.5649 92.8025 78.5799C92.8489 78.5948 92.8919 78.6189 92.929 78.6507C92.9661 78.6824 92.9966 78.7212 93.0188 78.7648C93.0409 78.8085 93.0542 78.856 93.0579 78.9049C93.063 78.9533 93.0584 79.0022 93.0443 79.0488C93.0302 79.0953 93.007 79.1386 92.9759 79.176C92.9449 79.2134 92.9067 79.2441 92.8636 79.2664C92.8206 79.2887 92.7735 79.3021 92.7251 79.3058C88.7167 79.6697 86.424 82.276 83.7764 85.2461C81.4246 87.897 78.7621 90.8968 74.4357 92.5453C72.5065 93.2596 70.4643 93.6168 68.4082 93.5997Z" fill="#231F20"/>
<path d="M55.244 125.477C55.1954 125.475 55.1477 125.464 55.1035 125.443C55.0594 125.423 55.0197 125.394 54.9867 125.358C54.9538 125.322 54.9282 125.28 54.9114 125.234C54.8946 125.188 54.887 125.14 54.889 125.091C55.4289 113.336 57.8472 96.4215 57.8472 96.2507C57.8636 96.1541 57.9167 96.0675 57.9953 96.0094C58.074 95.9512 58.172 95.9259 58.2688 95.9389C58.3645 95.9536 58.4506 96.0053 58.5087 96.0831C58.5667 96.1608 58.5921 96.2583 58.5794 96.3547C58.5794 96.5255 56.1315 113.433 55.6212 125.121C55.6173 125.218 55.5756 125.309 55.5051 125.376C55.4346 125.443 55.3408 125.479 55.244 125.477Z" fill="#231F20"/>
<path d="M111.961 199.129H127.677C127.677 199.129 129.385 195.305 133.068 194.778C133.068 194.778 147.401 200.859 145.293 202.107C143.186 203.354 110.852 203.22 110.852 203.22L111.961 199.129Z" fill="#231F20"/>
<path d="M114.15 203.599H110.844C110.789 203.599 110.734 203.587 110.684 203.562C110.634 203.538 110.59 203.502 110.556 203.458C110.52 203.412 110.496 203.359 110.484 203.302C110.473 203.246 110.474 203.187 110.489 203.131L111.599 199.04C111.62 198.96 111.667 198.89 111.733 198.84C111.799 198.79 111.879 198.764 111.961 198.765H127.448C127.884 197.911 129.666 194.896 133.017 194.414C133.079 194.395 133.146 194.395 133.209 194.414C136.167 195.661 145.781 199.879 145.878 201.72C145.883 201.86 145.849 201.998 145.779 202.119C145.71 202.239 145.608 202.338 145.486 202.404C143.689 203.488 122.722 203.599 114.15 203.599ZM111.333 202.856C124.297 202.894 143.644 202.656 145.108 201.787C145.108 200.866 138.844 197.636 133.017 195.156C129.659 195.706 128.032 199.248 128.017 199.285C127.987 199.35 127.939 199.405 127.879 199.443C127.818 199.481 127.748 199.501 127.677 199.5H112.242L111.333 202.856Z" fill="#231F20"/>
<path d="M100.084 162.604C110.09 160.488 116.798 155.787 112.863 149.446C108.929 143.105 80.6702 147.219 75.1457 142.518C69.6211 137.818 71.5958 112.891 65.5313 108.621C59.4669 104.352 33.4712 100.038 30.5647 105.429C27.6582 110.819 30.5647 150.048 39.0327 158.758C47.5007 167.467 90.3215 164.624 100.084 162.604Z" fill="#231F20"/>
<path d="M70.7305 165.091H69.059C57.8177 164.994 43.4331 163.858 38.7369 159.047C30.365 150.374 27.0961 111.131 30.2393 105.272C30.7792 104.27 32.0142 103.535 33.9371 103.045C41.9762 101.129 60.5614 104.619 65.7384 108.242C68.9999 110.537 70.0131 118.356 70.9967 125.915C71.8916 132.82 72.816 139.956 75.3971 142.161C77.8525 144.255 85.396 144.56 92.6955 144.857C101.681 145.221 110.978 145.599 113.204 149.178C114.491 151.258 114.742 153.262 113.943 155.119C112.464 158.549 107.598 161.304 100.18 162.871C95.0843 163.999 82.6301 165.091 70.7305 165.091ZM39.5578 103.29C37.7203 103.257 35.8848 103.429 34.085 103.802C32.3988 104.203 31.3191 104.819 30.8901 105.629C28.0206 110.953 31.149 150.114 39.299 158.52C47.5895 167.066 90.1884 164.274 100.002 162.232C107.08 160.747 111.902 158.074 113.241 154.911C113.936 153.277 113.707 151.503 112.553 149.639C110.534 146.386 101.459 146.023 92.6438 145.666C84.8783 145.354 77.5419 145.057 74.8942 142.793C72.0987 140.402 71.1964 133.444 70.2423 126.078C69.2883 118.712 68.2899 111.019 65.2873 108.918C61.2936 106.089 48.4252 103.29 39.5578 103.29Z" fill="#231F20"/>
<path d="M118.654 142.088H118.595L94.7515 137.9C94.6535 137.883 94.566 137.828 94.5085 137.746C94.4509 137.665 94.4279 137.564 94.4446 137.465C94.4613 137.367 94.5162 137.279 94.5974 137.221C94.6785 137.164 94.7792 137.14 94.8773 137.157L118.721 141.345C118.819 141.354 118.909 141.402 118.973 141.477C119.036 141.553 119.066 141.651 119.057 141.75C119.048 141.848 119.001 141.939 118.925 142.003C118.85 142.066 118.752 142.096 118.654 142.088Z" fill="#D1D3D4"/>
<path d="M187.397 190.82L186.657 190.738C186.657 190.523 188.987 169.026 181.576 159.477L182.161 159.024C185.356 163.138 187.212 169.747 187.663 178.665C187.868 182.717 187.779 186.78 187.397 190.82Z" fill="#231F20"/>
<path d="M184.845 193.56C184.834 193.31 184.858 193.06 184.919 192.818C186.687 181.568 183.692 176.326 180.866 173.905L181.347 173.341C184.305 175.88 187.471 181.345 185.651 192.936C185.607 193.219 185.578 193.404 185.578 193.478L184.845 193.56Z" fill="#231F20"/>
<path d="M181.007 169.131C180.408 168.779 179.733 168.58 179.04 168.551C178.425 168.463 177.798 168.502 177.199 168.667C176.6 168.832 176.041 169.119 175.556 169.509C175.312 169.747 175.098 170.148 175.32 170.408C175.451 170.528 175.616 170.606 175.793 170.631C176.277 170.769 176.718 171.029 177.074 171.387C177.43 171.744 177.689 172.187 177.827 172.672C177.317 172.294 176.88 171.811 176.348 171.432C175.855 171.018 175.222 170.81 174.58 170.853C173.885 171.018 173.273 171.429 172.857 172.012C172.379 172.525 171.983 173.108 171.681 173.742C171.366 174.378 171.273 175.102 171.415 175.799C172.09 175.604 172.798 175.555 173.493 175.657C173.987 175.702 174.457 175.896 174.839 176.214C174.954 176.304 175.037 176.429 175.076 176.571C175.088 176.715 175.047 176.859 174.961 176.975C174.876 177.091 174.751 177.172 174.61 177.202C174.328 177.268 174.034 177.268 173.752 177.202C173.149 177.078 172.539 176.991 171.925 176.942C171.695 176.912 171.462 176.927 171.237 176.987C170.973 177.135 170.76 177.361 170.628 177.635C170.496 177.908 170.45 178.216 170.498 178.516C170.492 178.641 170.512 178.765 170.557 178.881C170.602 178.997 170.669 179.103 170.757 179.192C171.06 179.43 171.496 179.259 171.851 179.11C172.47 178.85 173.133 178.709 173.804 178.694C173.879 178.688 173.956 178.701 174.025 178.732C174.063 178.758 174.095 178.792 174.118 178.831C174.142 178.87 174.157 178.914 174.162 178.96C174.168 179.005 174.164 179.051 174.15 179.095C174.137 179.139 174.115 179.18 174.085 179.214C173.96 179.354 173.794 179.45 173.611 179.489C173.104 179.65 172.585 179.772 172.058 179.853C171.755 179.897 171.4 179.964 171.252 180.239C171.195 180.359 171.167 180.492 171.171 180.625C171.141 181.632 171.431 182.623 171.999 183.454C172.091 183.605 172.212 183.736 172.354 183.84C172.557 183.949 172.782 184.009 173.012 184.018C174.772 184.201 176.55 183.946 178.189 183.276C178.274 183.246 178.349 183.192 178.404 183.12C178.5 182.949 178.337 182.749 178.211 182.6C177.664 181.925 177.79 180.952 177.945 180.098C177.958 179.932 178.025 179.775 178.137 179.652C178.241 179.582 178.367 179.554 178.491 179.573C178.614 179.593 178.726 179.658 178.803 179.756C178.952 179.959 179.037 180.202 179.047 180.454C179.156 181.333 179.086 182.225 178.84 183.075C179.692 182.876 180.522 182.593 181.318 182.229C181.961 181.978 182.568 181.641 183.122 181.227C183.678 180.805 184.068 180.2 184.224 179.519C184.257 179.392 184.244 179.258 184.187 179.14C184.13 179.059 184.054 178.992 183.965 178.947C183.194 178.446 182.587 177.728 182.22 176.883C182.146 176.704 182.109 176.459 182.272 176.37C182.341 176.348 182.416 176.348 182.486 176.37C183.418 176.526 183.891 177.573 184.66 178.13C184.721 178.181 184.796 178.212 184.875 178.219C184.922 178.219 184.969 178.209 185.012 178.19C185.056 178.171 185.094 178.143 185.126 178.108C185.435 177.819 185.645 177.44 185.725 177.024C185.949 176.207 185.902 175.339 185.592 174.551C185.433 174.161 185.188 173.812 184.875 173.531C184.563 173.249 184.191 173.042 183.788 172.925C183.41 172.837 183.019 172.82 182.634 172.873C182.501 172.873 181.791 173.125 181.695 173.036C181.599 172.947 181.976 172.413 182.065 172.234C182.545 171.135 181.902 169.725 181.007 169.131Z" fill="#231F20"/>
<path d="M192.182 162.411C191.601 162.406 191.028 162.543 190.513 162.811C189.997 163.079 189.555 163.469 189.224 163.948C188.776 164.724 188.594 165.627 188.706 166.517C188.821 167.397 189.035 168.261 189.342 169.094C189.628 168.578 190.034 168.14 190.527 167.818C191.019 167.496 191.582 167.299 192.167 167.245C193.373 167.141 191.967 168.306 191.76 168.552C191.08 169.353 190.429 170.178 189.786 171.009C189.597 171.217 189.472 171.475 189.423 171.752C189.421 172.051 189.509 172.343 189.675 172.591C190.175 173.704 190.937 174.68 191.893 175.435C192.023 175.549 192.182 175.624 192.352 175.652C192.522 175.679 192.696 175.658 192.855 175.591C193.004 175.465 193.117 175.301 193.18 175.116C193.534 174.369 193.995 173.679 194.548 173.066C194.682 172.91 194.896 172.754 195.066 172.866C195.236 172.977 195.207 173.148 195.192 173.311L195.037 174.967C194.933 175.564 194.969 176.176 195.14 176.757C195.532 177.811 196.715 178.338 197.817 178.546C198.118 178.628 198.434 178.628 198.734 178.546C199.326 178.338 199.57 177.633 199.674 177.009C199.79 176.192 200.125 175.422 200.642 174.781C200.777 175.86 201.121 176.902 201.656 177.848C201.923 178.357 202.294 178.805 202.743 179.162C203.221 179.503 203.769 179.732 204.348 179.831C205.323 180.007 206.317 180.062 207.306 179.994C207.99 180.002 208.672 179.914 209.332 179.734C209.998 179.547 210.568 179.115 210.93 178.524C211.514 177.469 211.063 176.111 210.309 175.175C209.554 174.239 208.534 173.541 207.75 172.628C208.728 172.898 209.638 173.374 210.419 174.024C210.512 174.13 210.625 174.216 210.753 174.275C210.88 174.333 211.019 174.364 211.159 174.366C211.289 174.337 211.408 174.27 211.499 174.173C212.668 172.999 211.322 171.017 210.701 169.962C210.37 169.212 209.782 168.606 209.044 168.255C208.607 168.143 208.149 168.143 207.713 168.255C207.047 168.366 203.749 169.873 205.154 167.891C205.532 167.451 206.003 167.103 206.533 166.87C207.063 166.638 207.638 166.527 208.216 166.547C208.785 166.599 209.65 167.059 209.636 165.99C209.596 165.607 209.447 165.243 209.207 164.943C208.749 164.256 208.256 163.594 207.727 162.96C207.596 162.766 207.399 162.626 207.173 162.567C206.976 162.56 206.782 162.614 206.618 162.723C205.269 163.543 203.779 164.102 202.225 164.371C201.87 164.371 201.375 164.26 201.434 163.911C201.469 163.784 201.551 163.675 201.663 163.606C202.602 162.864 204.007 163.183 204.969 162.5C205.112 162.408 205.233 162.287 205.324 162.143C205.415 161.999 205.473 161.837 205.494 161.668C205.494 161.171 205.087 160.777 204.688 160.473C203.69 159.603 202.467 159.034 201.16 158.832C199.215 158.676 197.462 159.96 196.153 161.423C195.717 161.921 195.414 163.213 194.741 163.131C194.316 162.98 193.901 162.804 193.498 162.604C193.072 162.47 192.628 162.405 192.182 162.411Z" fill="#231F20"/>
<path d="M182.76 152.134C182.677 151.382 182.334 150.684 181.791 150.159C180.8 149.253 179.313 149.209 177.99 149.416C176.997 149.629 176.023 149.92 175.076 150.285C174.122 150.56 173.841 150.775 174.691 151.555C175.29 152.097 176.91 154.035 176.17 154.963C175.431 155.891 174.188 153.523 173.707 153.129C173.08 152.515 172.247 152.157 171.37 152.127C170.603 152.258 169.899 152.633 169.359 153.196C168.783 153.708 168.234 154.251 167.717 154.822C167.633 154.904 167.568 155.003 167.525 155.112C167.406 155.542 167.991 155.795 168.427 155.854C169.677 156.084 171.075 156.738 171.326 157.985C170.039 158.305 168.826 156.998 167.51 157.139C167.032 157.254 166.59 157.486 166.222 157.814C165.855 158.141 165.573 158.555 165.402 159.017C165.047 159.853 164.936 160.772 165.084 161.668C166.195 161.281 167.385 161.179 168.545 161.371C168.69 161.38 168.826 161.44 168.93 161.542C168.983 161.642 168.995 161.758 168.963 161.867C168.931 161.975 168.858 162.066 168.76 162.121C168.559 162.222 168.332 162.261 168.109 162.233H165.964C165.754 162.21 165.543 162.26 165.365 162.374C165.221 162.524 165.136 162.722 165.129 162.931C164.99 163.915 164.977 164.913 165.092 165.901C165.109 166.514 165.348 167.1 165.765 167.549C166.099 167.803 166.49 167.971 166.903 168.039C167.987 168.3 169.095 168.44 170.209 168.455C169.965 168.112 169.808 167.715 169.75 167.297C169.692 166.879 169.735 166.454 169.877 166.057C170.32 165.017 171.075 165.619 171.112 166.562C171.112 167.007 171.03 167.445 171.015 167.891C171.008 167.975 171.023 168.06 171.06 168.136C171.105 168.194 171.163 168.24 171.23 168.269C171.818 168.589 172.503 168.678 173.153 168.522C173.338 168.485 173.513 168.407 173.663 168.292C173.832 168.089 173.949 167.847 174.003 167.588C174.058 167.329 174.047 167.061 173.974 166.807L173.67 164.126C173.654 164.064 173.652 163.999 173.665 163.935C173.678 163.872 173.705 163.813 173.744 163.762C173.878 163.629 174.114 163.762 174.255 163.866C174.527 164.109 174.74 164.412 174.879 164.75C175.017 165.088 175.077 165.454 175.053 165.819C175.053 166.242 174.876 166.651 174.846 167.067C174.816 167.276 174.841 167.49 174.919 167.687C174.997 167.883 175.125 168.056 175.29 168.188C175.467 168.273 175.658 168.322 175.854 168.332C176.049 168.342 176.245 168.313 176.429 168.247C176.924 168.175 177.38 167.937 177.723 167.571C177.869 167.34 177.966 167.081 178.008 166.81C178.05 166.539 178.036 166.263 177.967 165.997C177.82 165.47 177.716 164.931 177.657 164.386C177.657 163.287 178.781 161.713 178.966 163.643C178.973 164.274 178.936 164.904 178.855 165.53C178.836 165.61 178.836 165.694 178.855 165.775C178.904 165.84 178.968 165.892 179.041 165.927C179.114 165.962 179.195 165.978 179.276 165.975C180.146 166.051 181.02 165.882 181.798 165.485C182.335 165.223 182.805 164.842 183.174 164.371C183.447 163.984 183.678 163.568 183.862 163.131C184.757 161.223 186.184 159.73 184.52 157.688C183.95 156.99 182.893 156.805 182.36 156.092C181.732 155.245 182.701 153.901 182.738 152.84C182.763 152.605 182.771 152.37 182.76 152.134Z" fill="#231F20"/>
<path d="M177.427 188.592H196.286L194.807 202.804C194.701 203.848 194.212 204.815 193.436 205.518C192.66 206.22 191.651 206.608 190.607 206.606H183.07C182.027 206.606 181.02 206.217 180.245 205.515C179.471 204.813 178.983 203.847 178.877 202.804L177.427 188.592Z" fill="white"/>
<path d="M190.636 207H183.07C181.93 207.002 180.83 206.578 179.984 205.811C179.138 205.044 178.606 203.988 178.492 202.849L177.013 188.637C177.006 188.532 177.041 188.428 177.109 188.347C177.146 188.307 177.191 188.275 177.24 188.253C177.29 188.232 177.344 188.221 177.398 188.221H196.257C196.31 188.22 196.363 188.231 196.411 188.253C196.46 188.275 196.503 188.307 196.538 188.347C196.575 188.385 196.602 188.431 196.619 188.481C196.636 188.531 196.641 188.585 196.634 188.637L195.155 202.849C195.044 203.979 194.521 205.027 193.687 205.793C192.853 206.559 191.766 206.989 190.636 207ZM177.849 188.986L179.254 202.775C179.35 203.724 179.793 204.604 180.498 205.243C181.203 205.883 182.12 206.236 183.07 206.235H190.636C191.586 206.236 192.503 205.883 193.208 205.243C193.913 204.604 194.357 203.724 194.452 202.775L195.865 188.986H177.849Z" fill="#231F20"/>
<path d="M189.475 188.853C189.475 188.719 187.996 175.116 194.652 164.156L195.288 164.542C188.772 175.279 190.222 188.63 190.237 188.763L189.475 188.853Z" fill="#231F20"/>
<path d="M172.347 163.049C172.253 163.047 172.163 163.01 172.095 162.945C172.061 162.911 172.033 162.87 172.014 162.825C171.996 162.779 171.986 162.731 171.986 162.682C171.986 162.633 171.996 162.584 172.014 162.539C172.033 162.494 172.061 162.453 172.095 162.418C175.956 158.334 182.035 155.847 182.294 155.735C182.385 155.699 182.487 155.7 182.577 155.739C182.667 155.778 182.738 155.852 182.775 155.943C182.811 156.035 182.809 156.137 182.771 156.228C182.732 156.318 182.659 156.389 182.567 156.426C182.508 156.426 176.377 158.95 172.628 162.923C172.593 162.963 172.549 162.995 172.501 163.017C172.452 163.039 172.4 163.05 172.347 163.049Z" fill="white"/>
<path d="M174.95 181.969C174.887 181.969 174.825 181.952 174.77 181.92C174.715 181.889 174.669 181.844 174.636 181.789C174.604 181.735 174.585 181.673 174.583 181.61C174.581 181.546 174.595 181.483 174.625 181.427C176.027 178.782 177.806 176.355 179.905 174.224C179.939 174.19 179.979 174.162 180.023 174.144C180.068 174.125 180.116 174.115 180.164 174.115C180.212 174.115 180.26 174.125 180.304 174.144C180.349 174.162 180.389 174.19 180.423 174.224C180.49 174.294 180.528 174.387 180.528 174.484C180.528 174.582 180.49 174.675 180.423 174.744C178.385 176.823 176.656 179.187 175.29 181.761C175.258 181.824 175.21 181.877 175.15 181.914C175.089 181.951 175.02 181.97 174.95 181.969Z" fill="white"/>
<path d="M206.396 176.712C206.335 176.712 206.275 176.696 206.221 176.668C206.167 176.64 206.121 176.599 206.086 176.549C205.908 176.274 201.648 169.866 196.597 166.079C196.519 166.02 196.467 165.932 196.453 165.834C196.439 165.737 196.464 165.638 196.523 165.559C196.583 165.482 196.67 165.431 196.767 165.417C196.863 165.404 196.962 165.428 197.041 165.485C202.085 169.309 206.241 175.45 206.699 176.133C206.753 176.215 206.772 176.315 206.753 176.411C206.733 176.506 206.677 176.591 206.596 176.645C206.538 176.688 206.468 176.712 206.396 176.712Z" fill="white"/>
<path d="M204.436 47.7334H159.537V79.3803H204.436V47.7334Z" fill="white"/>
<path d="M204.429 79.7513H159.537C159.439 79.7513 159.345 79.7122 159.276 79.6425C159.207 79.5729 159.168 79.4785 159.168 79.38V47.7331C159.168 47.6346 159.207 47.5402 159.276 47.4706C159.345 47.4009 159.439 47.3618 159.537 47.3618H204.429C204.527 47.3618 204.621 47.4009 204.69 47.4706C204.76 47.5402 204.799 47.6346 204.799 47.7331V79.38C204.799 79.4785 204.76 79.5729 204.69 79.6425C204.621 79.7122 204.527 79.7513 204.429 79.7513ZM159.907 79.0087H204.059V48.1044H159.907V79.0087Z" fill="#D1D3D4"/>
<path d="M188.514 109.423C188.425 109.423 188.34 109.392 188.272 109.335C188.205 109.278 188.159 109.199 188.144 109.112L186.324 97.2606L183.144 98.6714C183.1 98.6911 183.052 98.7017 183.003 98.7026C182.954 98.7036 182.906 98.6948 182.86 98.6769C182.815 98.6589 182.774 98.6321 182.738 98.5981C182.703 98.564 182.675 98.5233 182.656 98.4784C182.637 98.4341 182.626 98.3863 182.625 98.3379C182.625 98.2895 182.633 98.2414 182.651 98.1965C182.669 98.1515 182.696 98.1106 182.73 98.0762C182.764 98.0417 182.804 98.0143 182.848 97.9957L186.48 96.4216C186.53 96.3961 186.586 96.3828 186.642 96.3828C186.699 96.3828 186.755 96.3961 186.805 96.4216C186.855 96.4487 186.899 96.4868 186.932 96.5331C186.965 96.5794 186.988 96.6326 186.997 96.6889L188.891 108.978C188.899 109.026 188.898 109.076 188.886 109.124C188.875 109.171 188.854 109.217 188.825 109.256C188.796 109.296 188.76 109.329 188.718 109.354C188.675 109.379 188.629 109.395 188.58 109.401L188.514 109.423Z" fill="#231F20"/>
<path d="M194.785 122.143H185.526L185.023 102.131H195.288L194.785 122.143Z" fill="white"/>
<path d="M194.785 122.507H185.526C185.43 122.507 185.338 122.47 185.269 122.403C185.2 122.337 185.16 122.246 185.156 122.15L184.623 102.146C184.622 102.047 184.659 101.951 184.727 101.879C184.797 101.806 184.892 101.763 184.993 101.76H195.258C195.357 101.766 195.45 101.809 195.519 101.88C195.587 101.952 195.626 102.047 195.628 102.146L195.125 122.195C195.112 122.278 195.071 122.354 195.009 122.41C194.948 122.467 194.869 122.501 194.785 122.507ZM185.91 121.764H194.445L194.926 102.495H185.4L185.91 121.764Z" fill="#231F20"/>
<path d="M196.227 100.104H184.084V102.132H196.227V100.104Z" fill="white"/>
<path d="M196.227 102.503H184.084C183.985 102.503 183.891 102.463 183.822 102.394C183.753 102.324 183.714 102.23 183.714 102.131V100.104C183.714 100.006 183.753 99.9113 183.822 99.8417C183.891 99.772 183.985 99.7329 184.084 99.7329H196.227C196.325 99.7329 196.419 99.772 196.489 99.8417C196.558 99.9113 196.597 100.006 196.597 100.104V102.131C196.597 102.23 196.558 102.324 196.489 102.394C196.419 102.463 196.325 102.503 196.227 102.503ZM184.453 101.76H195.857V100.475H184.453V101.76Z" fill="#231F20"/>
<path d="M190.355 115.386C189.465 115.462 188.573 115.267 187.796 114.826C187.018 114.385 186.391 113.719 185.997 112.915C185.602 112.11 185.459 111.205 185.585 110.317C185.711 109.43 186.101 108.601 186.704 107.939C187.307 107.278 188.095 106.814 188.964 106.61C189.833 106.405 190.744 106.468 191.577 106.791C192.41 107.114 193.127 107.682 193.633 108.421C194.139 109.159 194.412 110.034 194.415 110.931C194.463 112.062 194.063 113.166 193.302 114.001C192.541 114.836 191.481 115.334 190.355 115.386ZM190.355 107.255C189.612 107.179 188.864 107.33 188.208 107.689C187.553 108.047 187.021 108.597 186.682 109.265C186.344 109.933 186.214 110.689 186.312 111.432C186.409 112.175 186.728 112.871 187.227 113.429C187.725 113.987 188.381 114.38 189.106 114.557C189.832 114.733 190.594 114.685 191.292 114.419C191.99 114.153 192.591 113.68 193.016 113.064C193.442 112.448 193.672 111.718 193.676 110.968C193.724 110.034 193.402 109.119 192.779 108.423C192.157 107.727 191.285 107.307 190.355 107.255Z" fill="#D1D3D4"/>
<path d="M172.716 73.1131C171.81 73.1074 170.91 72.9519 170.054 72.6528C168.934 72.2995 167.852 71.8369 166.822 71.2716C166.571 71.1306 166.327 70.9672 166.083 70.8039C165.465 70.4029 164.936 69.8791 164.527 69.2649C164.119 68.6506 163.84 67.9588 163.709 67.2322C163.613 66.6989 163.702 66.1487 163.96 65.6729C164.37 65.1088 164.936 64.6776 165.587 64.4329C166.02 64.253 166.42 64.002 166.77 63.6903C167.51 62.8958 167.221 61.7375 166.926 60.5123C166.844 60.2004 166.77 59.896 166.711 59.599C166.525 58.6499 166.554 57.6707 166.798 56.7347C167.041 55.7987 167.492 54.9299 168.116 54.1933C168.8 53.4271 169.653 52.8334 170.608 52.4606C171.563 52.0877 172.592 51.9462 173.611 52.0474C176.481 52.3741 178.744 53.7626 179.824 55.8492C180.296 56.8237 180.515 57.9021 180.462 58.9845C180.409 60.067 180.085 61.1185 179.52 62.0419C179.121 62.6079 178.894 63.279 178.87 63.9725C179.02 64.5843 179.341 65.1405 179.794 65.5764C180.321 66.1135 180.693 66.7829 180.874 67.5144C181.051 68.7322 180.253 69.898 178.433 71.0786C176.769 72.3077 174.78 73.0156 172.716 73.1131ZM167.192 70.6182C168.179 71.1628 169.217 71.6081 170.291 71.9474C173.412 73.0166 175.86 71.8508 178.041 70.4623C179.594 69.445 180.26 68.5243 180.149 67.6258C179.984 67.0304 179.668 66.488 179.232 66.0516C178.684 65.5057 178.307 64.8118 178.145 64.0542C178.135 63.2276 178.381 62.4183 178.847 61.7375C179.364 60.9157 179.664 59.976 179.721 59.0061C179.778 58.0363 179.589 57.0677 179.173 56.1907C178.211 54.327 176.155 53.0869 173.537 52.7825C172.636 52.6922 171.725 52.8173 170.881 53.1477C170.036 53.4781 169.282 54.0043 168.678 54.6834C168.129 55.3351 167.732 56.1027 167.519 56.9292C167.305 57.7557 167.279 58.62 167.443 59.4579C167.503 59.7401 167.576 60.0371 167.65 60.3341C167.968 61.6335 168.331 63.1112 167.318 64.1953C166.909 64.5824 166.436 64.8941 165.92 65.116C165.401 65.3056 164.945 65.6374 164.603 66.0739C164.431 66.4073 164.377 66.7894 164.448 67.158C164.572 67.782 164.82 68.3746 165.177 68.9003C165.534 69.426 165.993 69.8739 166.526 70.2172C166.741 70.3744 166.963 70.5206 167.192 70.6553V70.6182Z" fill="#D1D3D4"/>
<path d="M192.855 72.8978C190.957 72.8722 189.082 72.4815 187.33 71.7469L186.96 71.5984C186.189 71.1557 185.31 70.9391 184.422 70.9732C183.534 71.0073 182.674 71.2908 181.939 71.7914C181.13 72.2107 180.262 72.5036 179.365 72.6602C178.363 72.7484 177.354 72.5841 176.431 72.1822C175.507 71.7802 174.698 71.1533 174.077 70.3583C173.005 69.1558 172.301 67.6681 172.051 66.0739C171.901 65.1147 172.061 64.1325 172.506 63.2708C172.952 62.4091 173.661 61.7132 174.528 61.2846C176.244 60.542 178.071 61.0544 179.846 61.5593C181.118 62.0164 182.467 62.2231 183.817 62.1682C184.853 61.994 185.853 61.6477 186.776 61.1435C187.38 60.8412 188.003 60.5759 188.639 60.349C191.598 59.3614 197.314 60.349 199.563 62.829C200.169 63.4666 200.6 64.2514 200.814 65.1065C201.028 65.9616 201.017 66.8578 200.783 67.7075C200.447 68.8184 199.847 69.8305 199.033 70.6559C198.22 71.4814 197.219 72.0954 196.116 72.4449C195.06 72.7672 193.959 72.9201 192.855 72.8978ZM184.668 70.2247H184.845C185.68 70.3073 186.493 70.536 187.249 70.9004L187.604 71.0489C190.189 72.221 193.1 72.4495 195.835 71.6949C196.82 71.3857 197.716 70.8411 198.445 70.1077C199.174 69.3744 199.715 68.4743 200.021 67.4847C200.22 66.7532 200.228 65.9825 200.042 65.2473C199.857 64.5122 199.485 63.8377 198.964 63.2894C196.937 61.0618 191.531 60.1039 188.824 61.0172C188.215 61.2278 187.62 61.4758 187.042 61.7598C186.058 62.3065 184.991 62.6854 183.884 62.881C182.436 62.9458 180.99 62.729 179.624 62.2424C177.908 61.7523 176.281 61.2845 174.809 61.938C174.095 62.3091 173.515 62.8972 173.152 63.6184C172.79 64.3397 172.663 65.1574 172.79 65.9551C173.029 67.4137 173.681 68.7724 174.669 69.8683C175.453 70.7519 177.095 72.2073 179.313 71.9251C180.133 71.7737 180.925 71.5009 181.665 71.1157C182.591 70.6055 183.615 70.3015 184.668 70.2247Z" fill="#D1D3D4"/>
<path d="M191.805 67.3365C191.312 67.3679 190.818 67.2843 190.363 67.0924C189.907 66.9004 189.502 66.6053 189.179 66.2301C188.819 65.8686 188.405 65.5655 187.951 65.3316C187.409 65.0744 186.826 64.916 186.228 64.8638C185.696 64.849 185.173 64.7224 184.693 64.4922C184.213 64.2619 183.786 63.9333 183.44 63.5273C183.055 63.0252 182.782 62.4455 182.64 61.8278C182.499 61.2101 182.491 60.569 182.619 59.9482C182.776 59.1346 183.1 58.3628 183.571 57.6825C184.042 57.0021 184.65 56.4283 185.356 55.998C189.253 53.6961 196.486 56.0945 198.845 59.4953C199.681 60.6982 200.635 63.0817 197.662 65.495C196.099 66.6586 194.216 67.3072 192.271 67.3513L191.805 67.3365ZM189.142 55.7975C187.955 55.7584 186.779 56.0351 185.733 56.5994C185.119 56.9761 184.591 57.477 184.181 58.0702C183.771 58.6635 183.488 59.3359 183.351 60.0448C183.241 60.5591 183.243 61.0917 183.36 61.6048C183.476 62.118 183.703 62.5993 184.024 63.0149C184.312 63.3464 184.667 63.613 185.064 63.7973C185.462 63.9816 185.894 64.0794 186.332 64.0842C187.615 64.164 188.818 64.7386 189.689 65.6881C189.995 66.0497 190.391 66.3224 190.838 66.4778C191.284 66.6332 191.763 66.6656 192.226 66.5717C194.013 66.52 195.744 65.933 197.196 64.8861C199.082 63.3491 199.415 61.619 198.239 59.8888C196.656 57.6018 192.589 55.7975 189.142 55.7975Z" fill="#D1D3D4"/>
<path d="M78.9396 64.6334C78.9396 64.6334 81.3284 62.688 78.9396 60.1782H75.0865C75.0865 60.1782 75.9148 63.4231 75.0865 64.6334H78.9396Z" fill="#231F20"/>
<path d="M78.9396 65.0048H75.0865C75.0183 65.004 74.9515 64.985 74.8931 64.9498C74.8346 64.9146 74.7865 64.8643 74.7537 64.8043C74.7192 64.7459 74.701 64.6792 74.701 64.6112C74.701 64.5433 74.7192 64.4766 74.7537 64.4182C75.3527 63.5494 74.9164 61.1362 74.6945 60.2823C74.683 60.2261 74.683 60.1682 74.6944 60.112C74.7058 60.0559 74.7285 60.0026 74.7611 59.9555C74.7967 59.9112 74.8417 59.8755 74.8929 59.8511C74.9442 59.8267 75.0002 59.8141 75.0569 59.8145H78.91C79.0094 59.8177 79.1041 59.8573 79.1763 59.9258C79.5493 60.267 79.8462 60.6836 80.0476 61.1481C80.249 61.6126 80.3502 62.1147 80.3448 62.6212C80.2516 63.5136 79.8231 64.3368 79.1467 64.9231C79.0874 64.9706 79.0153 64.9991 78.9396 65.0048ZM75.6634 64.2623H78.7917C79.2548 63.813 79.5433 63.2128 79.6052 62.5693C79.6069 62.1935 79.5323 61.8213 79.3861 61.4753C79.2399 61.1294 79.0251 60.8169 78.7547 60.557H75.5302C75.842 61.7677 75.8874 63.0321 75.6634 64.2623Z" fill="#231F20"/>
<path d="M76.8467 63.1634C76.9026 62.7304 76.8561 62.2903 76.7109 61.8787C76.5657 61.4672 76.3259 61.0958 76.011 60.7947C75.7284 60.4257 75.4032 60.0917 75.0421 59.7997C74.3486 59.3469 73.5714 59.0388 72.7569 58.8938C70.9597 58.4557 68.8594 59.0126 67.0252 59.0497C65.0551 59.0873 63.0977 58.7235 61.2714 57.9805C60.6439 57.7677 60.0812 57.397 59.637 56.9038C59.1785 59.5992 59.2376 62.5694 60.7833 64.8341C62.093 66.5436 63.9036 67.7979 65.9603 68.4206C67.3276 68.9743 68.8167 69.1541 70.2757 68.9415C71.7348 68.7288 73.1115 68.1314 74.2656 67.2102C75.3202 66.4107 76.1342 65.3339 76.6174 64.099C76.7246 63.7955 76.8014 63.4821 76.8467 63.1634Z" fill="white"/>
<path d="M69.1626 69.3859C68.0165 69.3744 66.8809 69.166 65.805 68.7696C63.6794 68.1245 61.8092 66.8259 60.4579 65.0569C59.0749 63.0297 58.6755 60.2749 59.2598 56.889C59.2728 56.8185 59.3054 56.7533 59.3538 56.7007C59.4022 56.6481 59.4645 56.6104 59.5334 56.5919C59.6024 56.5746 59.675 56.578 59.7421 56.6018C59.8091 56.6256 59.8678 56.6686 59.9106 56.7256C60.3167 57.165 60.8249 57.4967 61.3898 57.6909C63.1889 58.3826 65.107 58.7082 67.0326 58.6488C67.6391 58.6488 68.2677 58.5671 68.9333 58.4928C70.2326 58.2662 71.5611 58.2662 72.8604 58.4928C73.7256 58.6471 74.5507 58.9754 75.2862 59.4581C75.6636 59.7737 76.008 60.127 76.3142 60.5125C76.6631 60.8544 76.9271 61.2737 77.0851 61.7367C77.2431 62.1997 77.2906 62.6934 77.2238 63.1782C77.1685 63.5236 77.0767 63.8621 76.9502 64.1881C76.44 65.4856 75.5857 66.618 74.4801 67.4627C72.9778 68.6936 71.1016 69.3721 69.1626 69.3859ZM59.881 57.6612C59.4965 60.5571 59.881 62.859 61.0717 64.6188C62.3303 66.2674 64.0745 67.4756 66.0564 68.0716C67.3663 68.6002 68.792 68.7722 70.1894 68.5701C71.5867 68.368 72.9061 67.799 74.0141 66.9206C75.0107 66.1533 75.7782 65.1259 76.2328 63.9505C76.3421 63.6721 76.4238 63.3836 76.4769 63.0891C76.5242 62.7087 76.482 62.3223 76.3535 61.9612C76.2251 61.6001 76.014 61.2743 75.7373 61.01C75.4631 60.6865 75.1557 60.3928 74.8203 60.1338C74.1647 59.715 73.4334 59.4299 72.6681 59.2948C71.4445 59.0835 70.1939 59.0835 68.9703 59.2948C68.3195 59.3616 67.6391 59.4359 67.0031 59.4507C64.9784 59.4833 62.9674 59.1123 61.0865 58.3592C60.6584 58.1756 60.2537 57.9413 59.881 57.6612Z" fill="#231F20"/>
<path d="M153.902 43.8052H122.5V64.6259H153.902V43.8052Z" fill="white"/>
<path d="M153.902 65.0049H122.5C122.402 65.0049 122.308 64.9658 122.239 64.8961C122.169 64.8265 122.13 64.7321 122.13 64.6336V43.798C122.13 43.6996 122.169 43.6051 122.239 43.5355C122.308 43.4659 122.402 43.4268 122.5 43.4268H153.902C153.999 43.4287 154.092 43.4684 154.161 43.5376C154.23 43.6068 154.27 43.7002 154.272 43.798V64.6336C154.27 64.7315 154.23 64.8248 154.161 64.894C154.092 64.9632 153.999 65.003 153.902 65.0049ZM122.84 64.2623H153.562V44.1767H122.87L122.84 64.2623Z" fill="#D1D3D4"/>
<path d="M153.902 64.6333H122.5V68.7544H153.902V64.6333Z" fill="white"/>
<path d="M153.902 69.1258H122.5C122.402 69.1258 122.308 69.0867 122.239 69.0171C122.169 68.9475 122.13 68.853 122.13 68.7546V64.6335C122.13 64.535 122.169 64.4406 122.239 64.3709C122.308 64.3013 122.402 64.2622 122.5 64.2622H153.902C154 64.2622 154.094 64.3013 154.163 64.3709C154.233 64.4406 154.272 64.535 154.272 64.6335V68.7546C154.272 68.853 154.233 68.9475 154.163 69.0171C154.094 69.0867 154 69.1258 153.902 69.1258ZM122.84 68.3833H153.562V65.0047H122.87L122.84 68.3833Z" fill="#D1D3D4"/>
<path d="M126.094 59.7848C126.024 59.7876 125.954 59.7696 125.893 59.7331C125.833 59.6965 125.784 59.643 125.754 59.5791C125.723 59.5152 125.712 59.4437 125.721 59.3734C125.73 59.3031 125.76 59.237 125.806 59.1834C126.161 58.7379 134.681 48.2458 142.624 48.877C145.789 49.1294 147.948 50.7927 148.407 53.3322C148.614 54.4194 148.457 55.5448 147.961 56.5331C147.464 57.5215 146.657 58.3175 145.663 58.7973C143.444 59.8294 141.388 59.8145 139.954 58.7527C139.331 58.2538 138.859 57.5911 138.59 56.8385C138.321 56.0858 138.266 55.273 138.43 54.4906C138.46 53.815 138.699 53.1657 139.114 52.6332C139.529 52.1007 140.099 51.7116 140.745 51.5204C141.414 51.3433 142.119 51.3497 142.785 51.5391C143.451 51.7285 144.054 52.0938 144.532 52.5971C144.751 52.8399 144.892 53.1438 144.935 53.4686C144.979 53.7934 144.923 54.1239 144.776 54.4163C144.214 55.5078 143.548 56.0796 142.794 56.1093C141.588 56.1093 140.701 54.7356 140.664 54.6762C140.638 54.6343 140.621 54.5878 140.614 54.5393C140.606 54.4908 140.608 54.4413 140.62 54.3937C140.632 54.346 140.653 54.3012 140.682 54.2617C140.711 54.2223 140.747 54.189 140.789 54.1638C140.831 54.1384 140.876 54.1215 140.924 54.1141C140.972 54.1067 141.02 54.1089 141.067 54.1207C141.114 54.1324 141.158 54.1535 141.197 54.1826C141.236 54.2117 141.268 54.2482 141.292 54.2901C141.485 54.5945 142.098 55.4039 142.771 55.3667C143.444 55.3296 143.822 54.6242 144.117 54.0747C144.199 53.9105 144.227 53.7247 144.198 53.5435C144.169 53.3623 144.084 53.1949 143.955 53.0649C143.57 52.6725 143.09 52.3889 142.561 52.2429C142.033 52.0969 141.475 52.0936 140.945 52.2332C140.44 52.3896 139.997 52.7007 139.677 53.1229C139.358 53.545 139.177 54.057 139.162 54.5871C139.02 55.2359 139.06 55.9116 139.277 56.5393C139.493 57.167 139.879 57.7224 140.39 58.1438C141.596 59.0423 143.407 59.0349 145.353 58.1438C146.199 57.7282 146.884 57.0414 147.299 56.1917C147.715 55.342 147.836 54.3778 147.645 53.451C147.253 51.2754 145.345 49.8423 142.535 49.6195C135.013 48.9958 126.464 59.5398 126.383 59.6512C126.347 59.6932 126.303 59.7269 126.253 59.75C126.203 59.7731 126.149 59.785 126.094 59.7848Z" fill="#D1D3D4"/>
<path d="M138.356 83.9912H126.257C126.159 83.9912 126.065 83.9521 125.995 83.8825C125.926 83.8128 125.887 83.7184 125.887 83.6199V73.967C125.887 73.8685 125.926 73.7741 125.995 73.7044C126.065 73.6348 126.159 73.5957 126.257 73.5957H138.356C138.454 73.5957 138.548 73.6348 138.618 73.7044C138.687 73.7741 138.726 73.8685 138.726 73.967V83.6199C138.726 83.7184 138.687 83.8128 138.618 83.8825C138.548 83.9521 138.454 83.9912 138.356 83.9912ZM126.627 83.2487H137.986V74.3382H126.627V83.2487Z" fill="#D1D3D4"/>
<path d="M132.307 75.7271C132.209 75.7271 132.114 75.688 132.045 75.6184C131.976 75.5488 131.937 75.4543 131.937 75.3559V73.0466C131.937 72.9481 131.976 72.8537 132.045 72.784C132.114 72.7144 132.209 72.6753 132.307 72.6753C132.405 72.6753 132.499 72.7144 132.568 72.784C132.637 72.8537 132.676 72.9481 132.676 73.0466V75.341C132.678 75.391 132.67 75.4409 132.653 75.4876C132.635 75.5344 132.608 75.5771 132.573 75.6132C132.539 75.6493 132.497 75.6779 132.452 75.6975C132.406 75.7171 132.356 75.7272 132.307 75.7271Z" fill="#D1D3D4"/>
</svg>
