<svg width="245" height="245" viewBox="0 0 245 245" fill="none" xmlns="http://www.w3.org/2000/svg">
<circle cx="122.5" cy="122.5" r="122.5" fill="#6C63FF" fill-opacity="0.2"/>
<path d="M147.698 122.309V81.473C147.698 80.5961 147.522 79.7282 147.179 78.9207C146.837 78.1133 146.335 77.3828 145.704 76.7727C145.072 76.1627 144.325 75.6856 143.505 75.3697C142.685 75.0538 141.81 74.9057 140.932 74.9341L105.058 76.0105C104.168 76.037 103.292 76.2442 102.485 76.6192C101.677 76.9943 100.955 77.5295 100.362 78.1923C99.7683 78.855 99.3164 79.6313 99.0336 80.4739C98.7507 81.3165 98.6429 82.2078 98.7165 83.0934L102.269 125.533L147.698 122.309Z" fill="#231F20"/>
<path d="M102.286 125.814C102.214 125.815 102.145 125.79 102.091 125.742C102.038 125.694 102.005 125.627 101.999 125.556L98.464 83.1162C98.3873 82.1935 98.4993 81.2649 98.7934 80.3868C99.0875 79.5086 99.5575 78.6993 100.175 78.0079C100.792 77.3165 101.544 76.7576 102.384 76.365C103.225 75.9724 104.136 75.7544 105.064 75.7242L140.932 74.6535C141.847 74.6259 142.758 74.7819 143.612 75.1121C144.465 75.4424 145.244 75.9403 145.901 76.5762C146.558 77.2121 147.08 77.9732 147.437 78.8143C147.794 79.6555 147.979 80.5595 147.979 81.4729V122.309C147.979 122.382 147.952 122.451 147.903 122.504C147.854 122.557 147.787 122.59 147.715 122.596L102.298 125.814H102.286ZM141.15 75.2204H140.932L105.058 76.2968C104.21 76.3272 103.377 76.5289 102.61 76.89C101.842 77.251 101.157 77.7637 100.594 78.397C100.031 79.0304 99.6026 79.7712 99.3352 80.5745C99.0678 81.3778 98.9666 82.227 99.0379 83.0704L102.562 125.23L147.434 122.046V81.4729C147.434 79.8147 146.773 78.2243 145.598 77.0517C144.423 75.8791 142.829 75.2204 141.167 75.2204H141.15Z" fill="#231F20"/>
<path d="M182.911 96.0508C182.911 96.0508 177.689 98.009 178.016 104.914C178.343 111.82 176.57 119.286 182.55 118.719L182.911 122.785L195.537 124.124C195.537 124.124 196.857 103.008 194.487 99.5035C192.116 95.9993 182.911 96.0508 182.911 96.0508Z" fill="white"/>
<path d="M195.548 124.405H195.52L182.894 123.065C182.828 123.059 182.766 123.03 182.719 122.983C182.671 122.936 182.642 122.874 182.636 122.808L182.303 119.029C181.773 119.093 181.236 119.047 180.725 118.894C180.215 118.74 179.741 118.482 179.336 118.135C177.614 116.555 177.689 113.217 177.758 109.352C177.758 107.903 177.809 106.403 177.758 104.932C177.586 101.262 178.969 98.9769 180.162 97.7001C180.91 96.8817 181.821 96.2283 182.837 95.7819C182.871 95.7765 182.906 95.7765 182.94 95.7819C183.325 95.7819 192.335 95.822 194.762 99.3835C197.19 102.945 195.91 123.289 195.864 124.159C195.861 124.198 195.851 124.235 195.833 124.27C195.815 124.304 195.791 124.335 195.761 124.359C195.698 124.401 195.622 124.417 195.548 124.405ZM183.175 122.51L195.284 123.793C195.428 121.216 196.398 102.813 194.257 99.6697C192.116 96.5263 183.72 96.3259 182.963 96.3202C182.423 96.5377 178.005 98.5532 178.297 104.909C178.372 106.403 178.343 107.909 178.297 109.369C178.234 112.942 178.177 116.32 179.698 117.723C180.346 118.324 181.264 118.559 182.504 118.445C182.58 118.438 182.656 118.461 182.716 118.508C182.774 118.557 182.811 118.627 182.819 118.702L183.175 122.51Z" fill="#231F20"/>
<path d="M191.594 118.296C198.336 118.296 203.801 112.305 203.801 104.914C203.801 97.5242 198.336 91.5332 191.594 91.5332C184.853 91.5332 179.388 97.5242 179.388 104.914C179.388 112.305 184.853 118.296 191.594 118.296Z" fill="white"/>
<path d="M191.594 118.582C184.708 118.582 179.101 112.449 179.101 104.914C179.101 97.379 184.708 91.2524 191.594 91.2524C198.481 91.2524 204.059 97.379 204.059 104.914C204.059 112.449 198.481 118.582 191.594 118.582ZM191.594 91.8193C185.023 91.8193 179.675 97.694 179.675 104.914C179.675 112.134 185.023 118.015 191.594 118.015C198.165 118.015 203.514 112.14 203.514 104.914C203.514 97.6882 198.165 91.8193 191.594 91.8193Z" fill="#231F20"/>
<path d="M134.01 60.2188C128.639 52.7009 117.19 54.3842 111.83 61.1464C109.006 64.7079 107.778 69.466 104.369 72.4835C102.562 74.0925 100.283 75.0659 98.1483 76.2167C96.0135 77.3676 93.9016 78.8277 92.8284 80.9978C91.7553 83.1679 92.0939 86.1968 94.1426 87.4966C95.9446 88.6417 98.4238 88.1665 100.249 89.283C97.9532 89.5865 96.4209 92.478 97.4769 94.545C98.3722 96.3029 100.473 97.0243 102.389 97.4996C109.15 99.2173 116.363 99.8242 123.049 97.8317C128.042 96.3487 133.138 93.0449 135.939 88.5558C138.596 84.2958 137.632 76.2625 137.259 71.3784C136.989 67.8227 136.421 64.1926 134.607 61.1235C134.424 60.8201 134.223 60.5109 134.01 60.2188Z" fill="white"/>
<path d="M114.102 99.3433C110.129 99.3026 106.176 98.7757 102.332 97.7745C100.341 97.282 98.1771 96.5205 97.2359 94.6768C96.9722 94.1167 96.8462 93.5021 96.8681 92.8837C96.8901 92.2653 97.0594 91.6611 97.3621 91.1211C97.804 90.25 98.5456 89.567 99.4511 89.1972C98.718 88.9478 97.9598 88.7789 97.19 88.6933C96.0708 88.6019 94.9836 88.2761 93.9992 87.7371C91.7381 86.2999 91.5028 83.0534 92.5817 80.8662C93.7639 78.4899 96.1111 76.9955 98.0279 75.9649C98.5099 75.7015 98.9977 75.4495 99.4913 75.1976C101.178 74.4227 102.761 73.4397 104.203 72.2717C106.137 70.554 107.388 68.1892 108.599 65.9046C109.457 64.1734 110.467 62.5217 111.617 60.969C113.155 59.0668 115.108 57.5403 117.327 56.5063C119.546 55.4722 121.972 54.9579 124.421 55.0027C126.343 55.0071 128.236 55.4674 129.944 56.3454C131.652 57.2235 133.127 58.4943 134.246 60.0529C134.458 60.3506 134.665 60.6712 134.86 60.9976C136.782 64.2499 137.299 68.069 137.551 71.3728C137.586 71.8194 137.626 72.2946 137.666 72.7928C138.062 77.8487 138.636 84.7597 136.186 88.7277C133.546 92.9705 128.668 96.4804 123.135 98.1295C120.199 98.9685 117.156 99.3774 114.102 99.3433ZM124.048 55.5695C121.749 55.5788 119.48 56.0973 117.406 57.0874C115.332 58.0776 113.504 59.5148 112.054 61.2954C110.922 62.8195 109.931 64.4427 109.092 66.1451C107.859 68.4755 106.579 70.8804 104.57 72.6668C103.098 73.8709 101.478 74.8829 99.7495 75.6786C99.2617 75.9305 98.7739 76.1824 98.2976 76.4401C96.4554 77.4364 94.2 78.8621 93.0982 81.0952C92.1226 83.0591 92.3119 85.9621 94.3033 87.2332C95.2196 87.7425 96.2319 88.0565 97.2761 88.1551C98.3705 88.2494 99.4354 88.5588 100.409 89.0655C100.46 89.0964 100.499 89.1418 100.522 89.1958C100.545 89.2497 100.552 89.3094 100.54 89.3669C100.528 89.4244 100.498 89.4769 100.456 89.5172C100.413 89.5575 100.359 89.5837 100.3 89.5923C99.7851 89.6964 99.2995 89.9137 98.8789 90.2284C98.4582 90.5431 98.1131 90.9473 97.8685 91.4117C97.624 91.8761 97.4862 92.389 97.4651 92.9132C97.444 93.4373 97.5402 93.9596 97.7466 94.442C98.5845 96.0911 100.616 96.7896 102.47 97.2534C110.28 99.2002 117.178 99.3147 122.975 97.5912C128.375 95.9823 133.132 92.5583 135.703 88.4299C138.062 84.6395 137.505 77.8315 137.098 72.8615C137.058 72.3633 137.018 71.8881 136.983 71.4415C136.736 68.2007 136.231 64.4617 134.366 61.3068C134.183 60.9976 133.982 60.6941 133.792 60.4079C132.723 58.9219 131.316 57.7109 129.685 56.8746C128.055 56.0384 126.248 55.6009 124.415 55.5982L124.048 55.5695Z" fill="#231F20"/>
<path d="M141.046 82.1719C140.909 81.3073 119.089 77.5912 108.128 82.7444C104.203 97.7403 106.372 127.091 106.372 127.091L145.35 126.793C145.35 126.793 145.712 110.623 141.046 82.1719Z" fill="#6C63FF"/>
<path d="M116.972 83.1279C116.972 83.1279 116.289 126.386 116.283 126.69C116.277 126.993 128.019 126.69 128.335 126.18C128.65 125.671 128.335 88.4987 128.335 88.4987L118.642 86.4374" fill="#231F20"/>
<path d="M118.504 127.091C117.755 127.117 117.004 127.084 116.26 126.993C116.186 126.981 116.118 126.943 116.07 126.885C116.021 126.827 115.995 126.754 115.996 126.678C115.996 126.381 116.679 83.5517 116.685 83.1166C116.685 83.0792 116.692 83.0423 116.707 83.0079C116.721 82.9734 116.743 82.9423 116.769 82.9161C116.796 82.89 116.828 82.8694 116.862 82.8557C116.897 82.8419 116.934 82.8352 116.972 82.836C117.01 82.8367 117.047 82.8449 117.081 82.86C117.116 82.875 117.147 82.8968 117.173 82.9239C117.199 82.951 117.22 82.983 117.233 83.018C117.247 83.053 117.254 83.0904 117.253 83.128C117.253 83.5403 116.622 123.157 116.57 126.472C118.016 126.638 127.038 126.381 128.048 125.991C128.237 124.514 128.082 98.8912 128.002 88.7278L118.55 86.678C118.512 86.6701 118.477 86.6549 118.445 86.6332C118.413 86.6115 118.386 86.5838 118.365 86.5516C118.344 86.5195 118.329 86.4835 118.322 86.4457C118.315 86.408 118.315 86.3692 118.323 86.3316C118.331 86.294 118.347 86.2583 118.368 86.2266C118.39 86.1949 118.418 86.1678 118.45 86.1468C118.482 86.1258 118.518 86.1113 118.556 86.1042C118.594 86.0971 118.633 86.0975 118.671 86.1054L128.346 88.2011C128.41 88.2142 128.466 88.2488 128.507 88.2988C128.548 88.3489 128.57 88.4114 128.57 88.4759C128.662 99.6756 128.834 125.78 128.536 126.301C128.438 126.467 128.254 126.782 122.533 126.993C121.19 127.091 119.698 127.091 118.504 127.091Z" fill="#231F20"/>
<path d="M127.99 82.4638L128.277 89.5752C128.277 89.5752 127.48 92.8618 122.665 91.9457C117.85 91.0296 116.989 87.7888 116.989 87.7888L116.937 74.5049C116.937 74.5049 124.209 70.1876 122.797 62.5952C122.797 62.5952 125.976 68.4699 133.006 67.2274C133.006 67.2274 133.437 74.0468 133.041 77.7514C132.645 81.456 127.99 82.4638 127.99 82.4638Z" fill="white"/>
<path d="M124.249 92.3922C123.7 92.3881 123.152 92.3325 122.613 92.2262C117.672 91.2871 116.748 88.0005 116.708 87.8631C116.705 87.8384 116.705 87.8134 116.708 87.7887L116.656 74.5048C116.656 74.4555 116.669 74.4071 116.693 74.364C116.717 74.321 116.752 74.2847 116.794 74.2586C116.863 74.2185 123.876 69.9528 122.533 62.6467C122.521 62.5798 122.533 62.5109 122.567 62.4522C122.601 62.3935 122.655 62.3488 122.719 62.3261C122.783 62.3033 122.853 62.3041 122.917 62.3282C122.981 62.3524 123.034 62.3982 123.066 62.4577C124.044 64.1397 125.521 65.4772 127.293 66.2855C129.066 67.0937 131.046 67.3328 132.96 66.9696C133 66.9616 133.04 66.9626 133.079 66.9725C133.118 66.9825 133.154 67.0011 133.184 67.0269C133.216 67.0512 133.243 67.0822 133.262 67.1179C133.28 67.1535 133.291 67.1928 133.293 67.233C133.293 67.3017 133.718 74.104 133.328 77.8086C132.96 81.2441 129.276 82.4408 128.289 82.7042L128.564 89.5751C128.567 89.5999 128.567 89.6248 128.564 89.6496C128.547 89.6725 127.841 92.3922 124.249 92.3922ZM117.276 87.7486C117.379 88.0979 118.355 90.8291 122.716 91.6593C126.957 92.4724 127.881 89.8671 127.985 89.5408L127.732 82.4751C127.729 82.4072 127.751 82.3405 127.793 82.287C127.835 82.2335 127.895 82.1967 127.962 82.1831C128.002 82.1831 132.415 81.1754 132.782 77.7227C133.121 74.5334 132.846 68.945 132.782 67.5594C130.998 67.8423 129.17 67.6352 127.495 66.9604C125.82 66.2856 124.36 65.1684 123.273 63.7288C123.755 70.1303 118.223 74.0353 117.265 74.6651L117.276 87.7486Z" fill="#231F20"/>
<path d="M119.17 74.0179C118.973 73.3711 118.57 72.8062 118.022 72.4089C117.496 72.0606 116.913 71.8049 116.3 71.6531C115.978 71.5331 115.633 71.4881 115.29 71.5214C115.052 71.5714 114.826 71.6667 114.625 71.802C114.123 72.0772 113.737 72.5218 113.534 73.0559C113.422 73.5033 113.422 73.9713 113.534 74.4187C113.616 74.9111 113.762 75.3905 113.97 75.8444C114.189 76.2933 114.494 76.6945 114.869 77.0246C115.244 77.3546 115.681 77.6069 116.155 77.7667C116.629 77.9266 117.13 77.9908 117.629 77.9557C118.127 77.9206 118.614 77.7868 119.061 77.5621" fill="white"/>
<path d="M117.402 78.2495C116.639 78.2533 115.89 78.0399 115.243 77.6343C114.597 77.2287 114.08 76.6476 113.752 75.9592C113.532 75.4821 113.378 74.9774 113.293 74.459C113.173 73.9681 113.173 73.4554 113.293 72.9646C113.512 72.3642 113.94 71.8622 114.498 71.5503C114.732 71.3966 114.993 71.2896 115.267 71.2354C115.656 71.192 116.048 71.2391 116.415 71.3728C117.057 71.5355 117.667 71.8066 118.217 72.1744C118.811 72.6104 119.246 73.2275 119.457 73.9322C119.478 74.0082 119.468 74.0894 119.43 74.1581C119.391 74.2269 119.326 74.2774 119.25 74.2987C119.174 74.3199 119.093 74.3102 119.024 74.2715C118.955 74.2329 118.904 74.1685 118.883 74.0926C118.706 73.5071 118.344 72.9947 117.85 72.6325C117.36 72.3127 116.821 72.0748 116.254 71.9282C115.973 71.8217 115.671 71.7787 115.371 71.8022C115.165 71.8442 114.971 71.9259 114.797 72.0427C114.358 72.2877 114.018 72.676 113.833 73.1421C113.735 73.5447 113.735 73.9647 113.833 74.3674C113.908 74.8345 114.047 75.2892 114.246 75.7187C114.448 76.1325 114.731 76.5022 115.077 76.8065C115.423 77.1108 115.827 77.3436 116.264 77.4916C116.701 77.6396 117.163 77.6998 117.623 77.6687C118.083 77.6376 118.533 77.5158 118.946 77.3105C119.013 77.2827 119.088 77.2812 119.156 77.3062C119.224 77.3313 119.28 77.3811 119.312 77.4456C119.345 77.5101 119.352 77.5845 119.332 77.654C119.312 77.7235 119.266 77.7828 119.204 77.8201C118.645 78.0997 118.028 78.2467 117.402 78.2495Z" fill="#231F20"/>
<path d="M128.249 71.3154C128.249 71.3154 131.049 74.8139 130.51 75.5067C129.97 76.1995 128.283 75.9133 128.283 75.9133" fill="white"/>
<path d="M129.058 76.2627C128.783 76.262 128.509 76.2409 128.237 76.1997C128.162 76.1857 128.096 76.1433 128.052 76.0813C128.008 76.0193 127.99 75.9426 128.002 75.8676C128.007 75.8306 128.02 75.795 128.04 75.763C128.06 75.731 128.085 75.7033 128.116 75.6814C128.146 75.6595 128.181 75.6439 128.218 75.6356C128.254 75.6273 128.292 75.6263 128.329 75.6329C128.725 75.7016 129.936 75.7875 130.286 75.3351C130.464 75.0202 129.408 73.2223 128.025 71.4988C128.001 71.4693 127.983 71.4352 127.972 71.3987C127.961 71.3621 127.958 71.3238 127.962 71.2859C127.966 71.2481 127.978 71.2114 127.997 71.1782C128.016 71.1449 128.041 71.1157 128.071 71.0923C128.13 71.0455 128.206 71.024 128.281 71.0326C128.356 71.0412 128.425 71.0791 128.473 71.1381C129.356 72.2432 131.342 74.8942 130.768 75.6844C130.543 75.8999 130.273 76.0635 129.977 76.1634C129.682 76.2633 129.368 76.2972 129.058 76.2627Z" fill="#231F20"/>
<path d="M126.148 69.9493C126.168 69.4722 125.909 69.0741 125.571 69.0602C125.232 69.0463 124.941 69.4217 124.921 69.8988C124.902 70.3759 125.16 70.774 125.499 70.7879C125.838 70.8019 126.129 70.4264 126.148 69.9493Z" fill="#231F20"/>
<path d="M130.643 69.8888C130.716 69.4168 130.502 68.9927 130.167 68.9415C129.832 68.8903 129.502 69.2314 129.429 69.7035C129.357 70.1755 129.57 70.5996 129.905 70.6508C130.24 70.702 130.571 70.3608 130.643 69.8888Z" fill="#231F20"/>
<path d="M130.498 77.4537C130.498 77.4537 124.427 81.1239 123.348 75.4897L130.498 77.4537Z" fill="white"/>
<path d="M126.676 78.9134C126.15 78.9206 125.629 78.8192 125.144 78.6157C124.065 78.1347 123.365 77.1041 123.066 75.5409C123.059 75.504 123.059 75.466 123.067 75.4291C123.074 75.3923 123.089 75.3573 123.111 75.3263C123.132 75.2953 123.16 75.269 123.191 75.2488C123.223 75.2286 123.259 75.215 123.296 75.2088C123.37 75.1953 123.446 75.2111 123.508 75.2528C123.57 75.2945 123.614 75.3589 123.629 75.4321C123.893 76.8006 124.478 77.7225 125.379 78.0889C127.382 78.9821 130.32 77.23 130.349 77.2071C130.415 77.1676 130.493 77.1557 130.567 77.174C130.642 77.1922 130.706 77.2392 130.745 77.3045C130.785 77.3698 130.797 77.4481 130.778 77.5222C130.76 77.5963 130.713 77.6601 130.648 77.6996C129.439 78.4124 128.078 78.8284 126.676 78.9134Z" fill="#231F20"/>
<path d="M127.99 82.4635C127.99 82.4635 124.289 82.5265 122.544 81.5474C122.544 81.5474 124.048 85.7444 128.094 86.7407L127.99 82.4635Z" fill="#231F20"/>
<path d="M128.094 87.01H128.025C123.881 85.9851 122.343 81.811 122.286 81.6335C122.264 81.5788 122.26 81.5187 122.274 81.4616C122.289 81.4045 122.321 81.3533 122.366 81.3153C122.411 81.2773 122.467 81.2544 122.525 81.2499C122.584 81.2453 122.643 81.2593 122.693 81.29C124.346 82.2175 127.956 82.166 127.99 82.166C128.067 82.1625 128.141 82.1876 128.2 82.2364C128.258 82.2851 128.296 82.354 128.306 82.4294L128.409 86.7123C128.41 86.7504 128.403 86.7882 128.389 86.8236C128.375 86.859 128.354 86.8912 128.327 86.9184C128.301 86.9456 128.269 86.9672 128.234 86.982C128.198 86.9967 128.161 87.0043 128.122 87.0043L128.094 87.01ZM123.141 82.1145C123.715 83.2596 125.173 85.55 127.83 86.363L127.732 82.7443C126.179 82.7613 124.632 82.549 123.141 82.1145Z" fill="#231F20"/>
<path d="M176.553 85.7505C175.48 84.7943 168.518 89.186 168.518 89.186C168.817 86.4433 169.178 84.3591 168.518 84.2961C167.858 84.2332 165.172 91.6137 165.172 91.6137C165.172 91.6137 156.266 104.588 155.548 104.949C154.831 105.31 141.046 82.1719 141.046 82.1719C133.207 90.7033 139.078 102.687 139.078 102.687C139.078 102.687 153.603 120.936 156.65 120.758C159.112 120.615 167.319 105.963 170.372 100.357C170.372 100.357 172.49 96.9215 173.35 95.6504C174.211 94.3793 177.029 91.7168 178.286 90.2224C179.543 88.7279 177.66 86.7067 176.553 85.7505Z" fill="white"/>
<path d="M156.61 121.021C153.425 121.021 140.358 104.72 138.871 102.853C138.779 102.681 132.983 90.554 140.857 81.9939C140.884 81.9645 140.919 81.9419 140.956 81.928C140.994 81.9141 141.035 81.9092 141.075 81.9138C141.116 81.9167 141.155 81.9297 141.189 81.9517C141.223 81.9738 141.251 82.004 141.27 82.0397C146.406 90.6285 154.292 103.523 155.543 104.662C156.438 103.775 161.58 96.4344 164.96 91.493C167.709 83.9636 168.346 84.0151 168.57 84.0495C168.643 84.0554 168.713 84.0762 168.777 84.1107C168.842 84.1452 168.898 84.1926 168.943 84.2499C169.31 84.7022 169.201 85.8016 168.943 88.0518C168.943 88.258 168.897 88.4698 168.868 88.6874C170.917 87.4105 175.686 84.6164 176.736 85.5439C178.888 87.4564 179.508 89.1741 178.492 90.3822C177.964 91.0121 177.178 91.8309 176.346 92.6726C175.36 93.6463 174.435 94.6789 173.574 95.7645C172.725 96.9955 170.624 100.425 170.601 100.46C166.464 108.052 159.124 120.838 156.668 120.987L156.61 121.021ZM141.006 82.6123C133.735 90.8918 139.284 102.458 139.313 102.572C145.052 109.776 154.389 120.5 156.593 120.5H156.633C158.211 120.403 163.388 112.638 170.142 100.231C170.171 100.185 172.277 96.7493 173.138 95.5011C174.005 94.3929 174.941 93.3393 175.939 92.3462C176.765 91.4873 177.545 90.6743 178.062 90.0559C179.152 88.7618 177.459 86.9239 176.34 85.9447C175.766 85.4351 171.898 87.359 168.645 89.4318C168.602 89.457 168.553 89.4703 168.504 89.4703C168.454 89.4703 168.406 89.457 168.363 89.4318C168.321 89.4058 168.287 89.3682 168.266 89.3235C168.245 89.2788 168.236 89.2289 168.243 89.1798C168.289 88.7733 168.335 88.3782 168.375 88.006C168.53 86.6719 168.742 84.8568 168.513 84.6049C168.025 85.0515 166.573 88.5156 165.402 91.7221C165.403 91.7431 165.403 91.7641 165.402 91.7851C163.904 93.9609 156.421 104.834 155.68 105.201C155.359 105.367 155.02 105.538 147.807 93.8406C144.777 88.905 141.764 83.8835 141.006 82.6123Z" fill="#231F20"/>
<path d="M170.274 93.5888C170.242 93.5961 170.209 93.5961 170.177 93.5888C170.114 93.5621 170.063 93.512 170.036 93.4489C170.01 93.3858 170.008 93.3148 170.033 93.251C170.894 91.0981 168.501 89.5177 168.403 89.4547C168.37 89.4388 168.339 89.4158 168.315 89.3874C168.291 89.3589 168.273 89.3257 168.262 89.2897C168.252 89.2538 168.249 89.2161 168.255 89.1791C168.26 89.1421 168.273 89.1066 168.293 89.0751C168.313 89.0436 168.34 89.0167 168.371 88.9962C168.403 88.9757 168.438 88.9621 168.475 88.9563C168.512 88.9505 168.55 88.9526 168.586 88.9626C168.622 88.9725 168.656 88.99 168.685 89.0139C168.713 89.0139 171.554 90.8919 170.521 93.4456C170.498 93.4906 170.463 93.528 170.419 93.5534C170.375 93.5787 170.325 93.591 170.274 93.5888Z" fill="#231F20"/>
<path d="M168.777 116.543H75.2044V189.736H168.777V116.543Z" fill="white"/>
<path d="M168.777 190H75.2331C75.1631 190 75.0959 189.972 75.0464 189.923C74.9969 189.874 74.9691 189.807 74.9691 189.737V116.544C74.9691 116.51 74.976 116.476 74.9893 116.444C75.0026 116.412 75.0222 116.384 75.0468 116.36C75.0714 116.336 75.1005 116.317 75.1325 116.304C75.1645 116.292 75.1987 116.285 75.2331 116.286H168.777C168.846 116.286 168.912 116.313 168.961 116.361C169.011 116.409 169.039 116.475 169.041 116.544V189.737C169.039 189.806 169.011 189.872 168.962 189.921C168.912 189.971 168.846 189.999 168.777 190ZM75.4627 189.502H168.513V116.784H75.4627V189.502Z" fill="#231F20"/>
<path d="M118.751 170.332L88.8055 169.141C88.7678 169.14 88.7308 169.131 88.6965 169.115C88.6623 169.099 88.6315 169.077 88.6059 169.049C88.5803 169.022 88.5604 168.989 88.5474 168.954C88.5344 168.919 88.5285 168.881 88.53 168.843L89.3449 148.442C89.3498 148.367 89.3825 148.295 89.4368 148.242C89.4939 148.192 89.5676 148.166 89.6434 148.168L119.589 149.353C119.664 149.357 119.735 149.391 119.787 149.446C119.838 149.502 119.866 149.575 119.864 149.651L119.038 170.034C119.034 170.109 119.001 170.179 118.946 170.229C118.922 170.259 118.893 170.283 118.859 170.301C118.826 170.319 118.789 170.329 118.751 170.332ZM89.1039 168.58L118.475 169.725L119.267 149.891L89.8959 148.746L89.1039 168.58Z" fill="#D1D3D4"/>
<path d="M123.187 143.867L102.797 143.38C102.721 143.379 102.649 143.348 102.596 143.294C102.545 143.238 102.516 143.165 102.516 143.088L102.992 123.437C102.993 123.4 103.001 123.363 103.016 123.328C103.031 123.294 103.053 123.263 103.08 123.237C103.107 123.211 103.139 123.19 103.174 123.176C103.209 123.163 103.247 123.156 103.285 123.157L123.675 123.643C123.712 123.645 123.75 123.654 123.784 123.67C123.818 123.685 123.849 123.708 123.874 123.735C123.9 123.763 123.92 123.795 123.933 123.831C123.946 123.866 123.952 123.904 123.95 123.941L123.48 143.592C123.477 143.667 123.446 143.739 123.394 143.793C123.336 143.841 123.262 143.867 123.187 143.867ZM103.101 142.813L122.912 143.289L123.371 124.21L103.56 123.741L103.101 142.813Z" fill="#D1D3D4"/>
<path d="M143.422 144.354L123.032 143.867C122.994 143.866 122.957 143.857 122.923 143.841C122.889 143.825 122.858 143.803 122.832 143.775C122.807 143.748 122.787 143.715 122.774 143.68C122.761 143.645 122.755 143.607 122.757 143.57L123.227 123.924C123.227 123.887 123.235 123.85 123.25 123.815C123.265 123.781 123.286 123.75 123.313 123.724C123.34 123.697 123.373 123.676 123.408 123.662C123.444 123.648 123.482 123.642 123.52 123.644L143.91 124.131C143.948 124.132 143.985 124.141 144.02 124.156C144.054 124.172 144.085 124.194 144.111 124.222C144.137 124.248 144.157 124.28 144.17 124.314C144.183 124.349 144.188 124.386 144.185 124.423L143.715 144.073C143.712 144.149 143.68 144.22 143.625 144.273C143.571 144.325 143.498 144.354 143.422 144.354ZM123.336 143.301L143.147 143.776L143.606 124.697L123.79 124.228L123.336 143.301Z" fill="#D1D3D4"/>
<path d="M119.864 140.415L107.813 140.128C107.736 140.128 107.663 140.098 107.61 140.044C107.556 139.991 107.526 139.918 107.526 139.842C107.526 139.766 107.556 139.693 107.61 139.64C107.663 139.586 107.736 139.556 107.813 139.556L119.864 139.842C119.94 139.845 120.011 139.877 120.064 139.931C120.116 139.986 120.145 140.058 120.145 140.134C120.144 140.208 120.114 140.278 120.061 140.331C120.009 140.383 119.938 140.413 119.864 140.415Z" fill="#D1D3D4"/>
<path d="M119.945 137.094L107.893 136.802C107.855 136.802 107.818 136.794 107.783 136.779C107.748 136.764 107.716 136.743 107.69 136.715C107.664 136.688 107.643 136.656 107.63 136.621C107.616 136.585 107.61 136.547 107.612 136.51C107.612 136.472 107.621 136.435 107.636 136.4C107.651 136.366 107.673 136.335 107.7 136.309C107.727 136.283 107.759 136.262 107.794 136.249C107.829 136.235 107.867 136.228 107.904 136.229L119.956 136.521C120.032 136.521 120.105 136.551 120.159 136.605C120.213 136.659 120.243 136.731 120.243 136.807C120.243 136.883 120.213 136.956 120.159 137.01C120.105 137.063 120.032 137.094 119.956 137.094H119.945Z" fill="#D1D3D4"/>
<path d="M120.025 133.767L107.973 133.481C107.936 133.48 107.898 133.472 107.864 133.457C107.829 133.442 107.798 133.42 107.772 133.393C107.746 133.366 107.725 133.334 107.712 133.299C107.698 133.264 107.691 133.226 107.692 133.189C107.698 133.114 107.731 133.044 107.785 132.993C107.839 132.941 107.91 132.911 107.985 132.908L120.036 133.194C120.112 133.199 120.184 133.232 120.236 133.288C120.289 133.343 120.318 133.416 120.318 133.492C120.315 133.567 120.282 133.638 120.228 133.689C120.173 133.741 120.1 133.769 120.025 133.767Z" fill="#D1D3D4"/>
<path d="M120.1 130.446L108.048 130.154C108.01 130.154 107.972 130.146 107.938 130.131C107.903 130.116 107.871 130.095 107.845 130.067C107.819 130.04 107.798 130.008 107.785 129.973C107.771 129.937 107.765 129.899 107.767 129.862C107.774 129.788 107.807 129.718 107.861 129.667C107.914 129.615 107.985 129.585 108.059 129.581L120.111 129.873C120.148 129.874 120.185 129.882 120.22 129.897C120.254 129.912 120.285 129.934 120.31 129.961C120.336 129.988 120.356 130.021 120.369 130.056C120.382 130.091 120.388 130.128 120.386 130.165C120.385 130.24 120.354 130.311 120.3 130.364C120.247 130.416 120.175 130.446 120.1 130.446Z" fill="#D1D3D4"/>
<path d="M120.18 127.119L108.128 126.833C108.053 126.83 107.982 126.798 107.931 126.743C107.879 126.688 107.851 126.616 107.853 126.541C107.858 126.466 107.891 126.396 107.945 126.345C107.999 126.293 108.071 126.263 108.145 126.26L120.197 126.547C120.235 126.548 120.272 126.557 120.306 126.573C120.34 126.588 120.371 126.611 120.397 126.638C120.422 126.666 120.442 126.698 120.455 126.734C120.468 126.769 120.474 126.807 120.473 126.844C120.472 126.882 120.464 126.918 120.448 126.953C120.433 126.987 120.411 127.018 120.384 127.043C120.357 127.069 120.325 127.089 120.29 127.102C120.255 127.115 120.217 127.121 120.18 127.119Z" fill="#D1D3D4"/>
<path d="M139.342 130.904L127.29 130.618C127.253 130.617 127.215 130.609 127.181 130.594C127.146 130.578 127.115 130.557 127.089 130.53C127.063 130.503 127.042 130.471 127.029 130.436C127.015 130.401 127.008 130.363 127.009 130.326C127.008 130.287 127.015 130.25 127.03 130.214C127.044 130.179 127.066 130.147 127.094 130.121C127.121 130.095 127.154 130.074 127.19 130.061C127.226 130.048 127.264 130.043 127.302 130.045L139.353 130.331C139.428 130.334 139.499 130.367 139.551 130.421C139.602 130.476 139.63 130.548 139.629 130.623C139.629 130.661 139.621 130.698 139.607 130.732C139.592 130.766 139.571 130.798 139.544 130.824C139.518 130.85 139.486 130.87 139.451 130.884C139.417 130.898 139.379 130.905 139.342 130.904Z" fill="#D1D3D4"/>
<path d="M139.422 127.583L127.371 127.291C127.333 127.29 127.296 127.282 127.262 127.267C127.228 127.252 127.197 127.23 127.171 127.203C127.146 127.175 127.126 127.143 127.113 127.108C127.1 127.073 127.094 127.036 127.095 126.999C127.096 126.961 127.104 126.924 127.119 126.89C127.134 126.855 127.156 126.824 127.183 126.798C127.21 126.772 127.243 126.752 127.278 126.738C127.313 126.724 127.35 126.718 127.388 126.718L139.439 127.01C139.516 127.01 139.589 127.04 139.642 127.094C139.696 127.148 139.726 127.221 139.726 127.297C139.726 127.373 139.696 127.445 139.642 127.499C139.589 127.553 139.516 127.583 139.439 127.583H139.422Z" fill="#D1D3D4"/>
<path d="M139.084 141.68L126.693 141.405C126.617 141.402 126.544 141.369 126.492 141.313C126.439 141.258 126.411 141.184 126.412 141.107L126.602 133.32C126.603 133.245 126.634 133.173 126.688 133.12C126.744 133.068 126.818 133.04 126.894 133.04L139.279 133.337C139.316 133.338 139.354 133.346 139.388 133.361C139.423 133.376 139.454 133.398 139.48 133.425C139.506 133.452 139.527 133.484 139.54 133.519C139.554 133.554 139.561 133.592 139.56 133.629L139.371 141.405C139.368 141.48 139.337 141.552 139.285 141.605C139.228 141.652 139.157 141.679 139.084 141.68ZM126.992 140.832L138.802 141.113L138.98 133.898L127.17 133.612L126.992 140.832Z" fill="#D1D3D4"/>
<path d="M108.53 83.002C108.53 83.002 92.4898 102.195 90.4296 108.648C88.3693 115.101 103.572 135.336 103.572 135.336C103.572 135.336 108.53 141.772 110.9 140.403C113.27 139.035 110.9 131.935 110.9 131.935C110.9 131.935 115.072 134.299 114.171 132.364C113.27 130.429 107.772 128.843 107.772 128.843L100.983 108.591L106.498 101.771" fill="white"/>
<path d="M110.166 140.832C107.595 140.832 103.853 136.074 103.382 135.467C102.757 134.637 88.1341 115.043 90.1828 108.556C92.2316 102.069 107.663 83.6259 108.318 82.8415C108.338 82.8111 108.365 82.7855 108.397 82.7662C108.428 82.7469 108.463 82.7344 108.5 82.7294C108.536 82.7245 108.574 82.7272 108.609 82.7375C108.644 82.7478 108.677 82.7653 108.705 82.789C108.734 82.8128 108.757 82.8421 108.773 82.8752C108.789 82.9082 108.798 82.9443 108.799 82.9811C108.8 83.0179 108.794 83.0545 108.78 83.0886C108.767 83.1228 108.746 83.1536 108.719 83.1793C108.559 83.3682 92.6907 102.389 90.6821 108.711C88.6735 115.032 103.64 134.963 103.79 135.164C105.127 136.882 108.995 141.199 110.774 140.163C112.553 139.126 111.296 133.921 110.653 132.009C110.638 131.958 110.638 131.904 110.653 131.853C110.668 131.802 110.698 131.757 110.739 131.723C110.78 131.689 110.829 131.669 110.881 131.664C110.934 131.659 110.986 131.669 111.032 131.694C112.386 132.461 113.821 133.005 114.039 132.839C114.039 132.839 114.068 132.748 113.936 132.473C113.242 130.973 109.201 129.524 107.704 129.089C107.663 129.078 107.627 129.056 107.597 129.027C107.566 128.998 107.544 128.962 107.531 128.923L100.76 108.676C100.746 108.635 100.742 108.59 100.751 108.547C100.759 108.504 100.777 108.464 100.805 108.43L106.28 101.611C106.302 101.584 106.328 101.561 106.358 101.544C106.388 101.528 106.421 101.517 106.456 101.513C106.49 101.51 106.524 101.513 106.557 101.523C106.59 101.532 106.621 101.549 106.648 101.571C106.701 101.614 106.735 101.677 106.743 101.746C106.75 101.814 106.73 101.883 106.688 101.937L101.305 108.642L108.002 128.631C108.874 128.894 113.557 130.389 114.43 132.255C114.636 132.702 114.63 133.028 114.43 133.229C113.936 133.681 112.404 133.005 111.382 132.473C111.91 134.276 113.19 139.401 111.072 140.626C110.795 140.777 110.481 140.848 110.166 140.832Z" fill="#231F20"/>
<path d="M79.0552 99.5264C79.0552 99.5264 78.3723 94.814 74.5617 93.6345C70.7511 92.455 59.7784 92.6726 58.6134 101.078C57.4484 109.484 61.5804 115.484 65.0294 117.253L73.4483 116.389L79.0552 99.5264Z" fill="white"/>
<path d="M65.0294 117.557C64.9858 117.566 64.941 117.566 64.8974 117.557C61.7066 115.92 57.0983 109.999 58.3322 101.084C58.4767 99.8185 58.9105 98.6028 59.5999 97.5308C60.2894 96.4587 61.2163 95.5587 62.3092 94.9002C66.1944 92.4381 71.9849 92.524 74.6707 93.36C78.6076 94.5853 79.3306 99.2862 79.3593 99.4866C79.3705 99.5298 79.3705 99.5751 79.3593 99.6183L73.7525 116.498C73.7352 116.55 73.7033 116.596 73.6606 116.631C73.6179 116.665 73.5661 116.687 73.5114 116.693L65.0925 117.557H65.0294ZM70.4641 93.3944C67.8988 93.3944 64.8974 93.9211 62.5961 95.3812C61.5859 95.9942 60.7283 96.8281 60.0881 97.82C59.4479 98.8118 59.0418 99.9358 58.9003 101.107C57.7181 109.656 62.0395 115.33 65.0868 116.95L73.213 116.143L78.7395 99.5038C78.642 98.9312 77.8098 94.9231 74.4641 93.9097C73.1623 93.5483 71.8153 93.3747 70.4641 93.3944Z" fill="#231F20"/>
<path d="M73.5057 101.371L74.246 105.774C74.246 105.774 72.5875 102.424 70.9519 105.298C69.3163 108.173 74.0165 111.94 74.0165 111.94L73.0351 116.017L64.358 116.882L63.2102 125.47C63.2102 125.47 76.0882 127.343 75.8759 127.016C75.8013 126.908 76.7482 118.536 76.7482 118.536C76.7482 118.536 79.1011 119.481 80.4096 115.748C81.718 112.015 79.0724 99.5039 79.0724 99.5039L73.5057 101.371Z" fill="white"/>
<path d="M75.5774 127.337C74.6247 127.337 71.8184 127.033 63.1528 125.773C63.0785 125.762 63.0117 125.722 62.9666 125.662C62.9216 125.602 62.9019 125.527 62.9117 125.453L64.0595 116.864C64.0671 116.8 64.0963 116.741 64.1422 116.696C64.1881 116.652 64.2481 116.624 64.312 116.618L72.7883 115.776L73.6836 112.072C72.8744 111.39 69.0925 107.972 70.6821 105.201C71.1872 104.313 71.7897 103.878 72.4038 103.895C72.6617 103.921 72.9118 103.999 73.1394 104.123C73.367 104.247 73.5676 104.414 73.7295 104.617L73.2015 101.467C73.1896 101.4 73.2021 101.331 73.2369 101.272C73.2716 101.213 73.3262 101.169 73.3909 101.147L78.9404 99.303C78.9769 99.2848 79.0172 99.2754 79.058 99.2754C79.0988 99.2754 79.1391 99.2848 79.1757 99.303C79.2104 99.3233 79.2406 99.3506 79.2643 99.3831C79.288 99.4156 79.3047 99.4527 79.3134 99.4919C79.4224 100.002 81.959 112.089 80.6391 115.885C80.1283 117.351 79.388 118.313 78.4526 118.748C77.9845 118.962 77.4629 119.032 76.9547 118.948C76.5989 122.103 76.1111 126.615 76.1168 127.027C76.1299 127.1 76.1156 127.176 76.0767 127.239C76.0824 127.268 76.0193 127.337 75.5774 127.337ZM63.5258 125.252C67.8012 125.871 74.3321 126.758 75.5774 126.793C75.5774 126.111 75.7897 124.199 76.4325 118.525C76.4385 118.481 76.4539 118.44 76.4777 118.403C76.5015 118.367 76.5331 118.336 76.5702 118.313C76.6094 118.293 76.6526 118.283 76.6965 118.283C76.7403 118.283 76.7836 118.293 76.8227 118.313C77.2891 118.46 77.7946 118.424 78.2345 118.21C79.0207 117.849 79.652 117.001 80.1111 115.696C81.2589 112.404 79.2216 101.88 78.8256 99.9214L73.8156 101.588L74.5214 105.75C74.5313 105.817 74.517 105.886 74.481 105.943C74.4449 106.001 74.3896 106.044 74.3248 106.065C74.26 106.085 74.1899 106.082 74.1272 106.056C74.0644 106.03 74.0129 105.982 73.982 105.922C73.7811 105.515 73.1039 104.462 72.3981 104.445C71.9849 104.445 71.5774 104.771 71.1872 105.464C69.6893 108.092 74.1427 111.705 74.1886 111.762C74.2316 111.796 74.2638 111.842 74.2811 111.894C74.2984 111.946 74.3002 112.002 74.2862 112.054L73.3048 116.131C73.2899 116.189 73.2578 116.24 73.2127 116.279C73.1675 116.318 73.1116 116.342 73.0523 116.349L64.6047 117.145L63.5258 125.252Z" fill="#231F20"/>
<path d="M79.4512 106.071C79.4512 106.071 82.7453 110.348 82.2517 110.995C81.7582 111.642 80.0595 111.665 80.0595 111.665" fill="white"/>
<path d="M80.0595 111.952C79.9844 111.952 79.9122 111.922 79.8586 111.87C79.8049 111.817 79.774 111.746 79.7725 111.671C79.7739 111.596 79.8036 111.524 79.8557 111.47C79.9079 111.416 79.9786 111.383 80.0537 111.379C80.6276 111.379 81.7238 111.207 82.0222 110.807C82.1312 110.406 80.6678 108.11 79.2216 106.226C79.1774 106.165 79.1587 106.089 79.1694 106.014C79.1801 105.939 79.2194 105.872 79.279 105.825C79.3402 105.782 79.4155 105.763 79.49 105.772C79.5644 105.782 79.6325 105.819 79.6807 105.877C81.2417 107.909 82.9978 110.457 82.4755 111.15C81.9533 111.843 80.2546 111.935 80.0652 111.935L80.0595 111.952Z" fill="#231F20"/>
<path d="M77.5997 105.689C77.8303 105.632 77.8835 105.048 77.7183 104.385C77.5532 103.722 77.2323 103.231 77.0016 103.288C76.7709 103.346 76.7177 103.929 76.8829 104.592C77.0481 105.255 77.369 105.746 77.5997 105.689Z" fill="#231F20"/>
<path d="M79.6004 115.937C79.5115 115.938 79.4228 115.929 79.3364 115.908C78.4583 115.696 78.4411 113.858 78.4583 113.303C78.4592 113.26 78.4701 113.218 78.49 113.181C78.5099 113.143 78.5384 113.11 78.5731 113.085C78.6061 113.058 78.6452 113.039 78.6872 113.03C78.7292 113.021 78.7728 113.022 78.8142 113.034L80.7769 113.503C80.851 113.522 80.9147 113.569 80.9544 113.635C80.9941 113.7 81.0066 113.778 80.9892 113.853C80.9805 113.89 80.9644 113.925 80.942 113.955C80.9196 113.986 80.8913 114.012 80.8587 114.032C80.8261 114.052 80.7899 114.065 80.7522 114.07C80.7145 114.076 80.6761 114.074 80.6391 114.064L79.0322 113.675C79.0322 114.482 79.2274 115.29 79.4741 115.353C79.5347 115.369 79.5981 115.373 79.6603 115.364C79.7225 115.356 79.7822 115.334 79.8357 115.301C80.0737 115.095 80.2388 114.818 80.3063 114.511C80.3144 114.474 80.3298 114.439 80.3515 114.408C80.3733 114.377 80.401 114.351 80.433 114.331C80.465 114.31 80.5007 114.297 80.5381 114.29C80.5754 114.284 80.6137 114.285 80.6506 114.293C80.7235 114.312 80.7863 114.359 80.8258 114.423C80.8654 114.487 80.8787 114.564 80.8629 114.637C80.7655 115.092 80.5093 115.498 80.1398 115.782C79.9787 115.884 79.7914 115.938 79.6004 115.937Z" fill="#231F20"/>
<path d="M94.6132 157.472C94.6132 157.472 97.8155 160.209 100.255 158.915C102.694 157.621 103.376 156.252 103.376 156.252C103.376 156.252 104.214 159.831 105.133 158.84C105.256 158.712 105.352 158.56 105.415 158.394C105.478 158.228 105.507 158.05 105.499 157.873C105.492 157.695 105.448 157.521 105.371 157.36C105.295 157.2 105.186 157.057 105.052 156.939C105.052 156.939 106.728 159.602 106.883 158.153C107.038 156.704 105.89 155.187 105.89 155.187C105.89 155.187 110.848 158.84 110.619 156.636C110.389 154.431 106.028 151.614 102.768 151.614C99.5085 151.614 93.3909 153.366 93.3909 153.366" fill="white"/>
<path d="M98.7911 159.55C96.6333 159.55 94.5329 157.781 94.4239 157.689C94.3669 157.639 94.332 157.568 94.3267 157.492C94.3213 157.416 94.3459 157.341 94.3952 157.283C94.4213 157.256 94.4526 157.235 94.4871 157.221C94.5216 157.206 94.5586 157.199 94.596 157.199C94.6334 157.199 94.6705 157.206 94.705 157.221C94.7395 157.235 94.7707 157.256 94.7969 157.283C94.8313 157.283 97.8787 159.877 100.117 158.691C102.355 157.506 103.112 156.166 103.118 156.155C103.146 156.103 103.188 156.06 103.241 156.032C103.293 156.005 103.352 155.994 103.411 156C103.47 156.006 103.525 156.03 103.57 156.069C103.614 156.108 103.645 156.16 103.658 156.218C103.927 157.363 104.444 158.663 104.805 158.754C104.805 158.754 104.88 158.754 104.937 158.674C105.074 158.548 105.171 158.385 105.216 158.205C105.261 158.025 105.252 157.836 105.19 157.661C105.058 157.472 104.932 157.283 104.828 157.088C104.794 157.03 104.781 156.961 104.793 156.894C104.805 156.827 104.84 156.766 104.893 156.723C104.945 156.679 105.011 156.656 105.079 156.657C105.148 156.658 105.213 156.683 105.265 156.728C105.45 156.901 105.597 157.112 105.695 157.346C105.931 157.711 106.232 158.029 106.584 158.285C106.592 158.232 106.592 158.178 106.584 158.125C106.722 156.813 105.661 155.376 105.649 155.359C105.607 155.304 105.587 155.236 105.592 155.168C105.598 155.099 105.628 155.035 105.678 154.987C105.727 154.939 105.791 154.911 105.859 154.905C105.927 154.9 105.995 154.919 106.051 154.958C107.686 156.166 109.752 157.3 110.24 157.02C110.332 156.968 110.338 156.796 110.321 156.665C110.102 154.575 105.861 151.901 102.757 151.901C99.5544 151.901 93.5229 153.618 93.4597 153.618C93.3859 153.638 93.3074 153.628 93.241 153.59C93.1745 153.553 93.1253 153.491 93.1039 153.418C93.0843 153.346 93.0938 153.269 93.1302 153.204C93.1667 153.138 93.2273 153.09 93.299 153.069C93.5516 152.994 99.4741 151.305 102.757 151.305C106.16 151.305 110.648 154.214 110.889 156.584C110.93 156.755 110.918 156.934 110.853 157.097C110.788 157.26 110.674 157.399 110.527 157.495C109.77 157.924 107.991 156.922 106.757 156.126C107.063 156.76 107.201 157.462 107.158 158.165C107.118 158.548 106.963 158.777 106.711 158.835C106.458 158.892 106.074 158.663 105.741 158.319C105.658 158.579 105.517 158.816 105.328 159.012C105.247 159.116 105.138 159.194 105.013 159.236C104.889 159.279 104.755 159.285 104.628 159.253C103.979 159.081 103.48 157.781 103.244 156.911C102.448 157.84 101.472 158.599 100.375 159.144C99.8891 159.408 99.3447 159.548 98.7911 159.55Z" fill="#231F20"/>
<path d="M75.2044 179.768C75.2044 179.768 75.2044 168.809 75.8758 156.716C76.5473 144.623 81.1211 139.779 77.2359 127.915C73.3507 116.051 62.1083 117.54 56.5301 122.155C45.1844 131.539 34.7225 160.197 40.6507 180.506C40.6507 180.478 53.6148 185.952 75.2044 179.768Z" fill="#6C63FF"/>
<path d="M63.457 131.007C63.457 131.614 57.2074 161.119 61.3221 163.856C65.4369 166.593 95.6176 160.363 95.6176 160.363L95.3134 152.147L77.477 150.171C77.477 150.171 82.51 127.841 73.6722 121.892C64.8343 115.942 63.457 131.007 63.457 131.007Z" fill="#6C63FF"/>
<path d="M66.137 165.562C62.8486 165.562 59.6062 164.841 58.3034 162.316C55.3938 156.659 63.279 126.73 63.6176 125.459C63.6271 125.421 63.6438 125.386 63.6669 125.355C63.6901 125.324 63.7191 125.297 63.7524 125.277C63.7857 125.257 63.8226 125.244 63.861 125.239C63.8995 125.233 63.9386 125.235 63.9763 125.244C64.014 125.254 64.0495 125.27 64.0807 125.293C64.1119 125.316 64.1382 125.345 64.1582 125.379C64.1782 125.412 64.1914 125.449 64.1971 125.487C64.2028 125.525 64.2009 125.564 64.1915 125.602C64.1054 125.911 56.0194 156.59 58.8314 162.052C61.5861 167.412 74.6764 163.77 74.8084 163.736C74.8845 163.715 74.966 163.724 75.0348 163.763C75.1037 163.802 75.1544 163.866 75.1757 163.942C75.197 164.018 75.1872 164.099 75.1485 164.168C75.1097 164.237 75.0452 164.287 74.9691 164.308C72.0876 165.085 69.1214 165.507 66.137 165.562Z" fill="#231F20"/>
<path d="M77.4598 150.457C76.708 150.429 72.9548 150.228 72.6162 148.871C72.3063 147.635 76.3751 135.702 77.2073 133.349C77.2316 133.277 77.2837 133.217 77.352 133.183C77.4204 133.149 77.4994 133.144 77.5717 133.168C77.644 133.193 77.7036 133.245 77.7375 133.313C77.7714 133.381 77.7768 133.46 77.7525 133.532C75.8758 138.971 72.9777 147.904 73.1614 148.734C73.3335 149.427 75.784 149.822 77.4655 149.879C77.5416 149.879 77.6146 149.909 77.6684 149.963C77.7222 150.017 77.7525 150.089 77.7525 150.165C77.7525 150.241 77.7222 150.314 77.6684 150.368C77.6146 150.421 77.5416 150.452 77.4655 150.452L77.4598 150.457Z" fill="#231F20"/>
<path d="M36.9778 133.068C41.2476 133.246 46.4757 133.492 50.3609 133.681C51.9059 133.755 53.3725 134.382 54.4918 135.447C55.6111 136.513 56.3083 137.945 56.4555 139.481L59.6636 172.433H75.2044V185.436L35.6694 184.257L30.3208 140.26C30.2095 139.336 30.3007 138.398 30.5881 137.513C30.8754 136.627 31.3521 135.814 31.9851 135.13C32.6181 134.447 33.3923 133.908 34.2544 133.552C35.1164 133.196 36.0456 133.031 36.9778 133.068Z" fill="#231F20"/>
<path d="M75.2044 185.723L35.6694 184.538C35.6014 184.537 35.536 184.511 35.4854 184.466C35.4347 184.421 35.4022 184.359 35.3939 184.291L30.0453 140.306C29.9328 139.343 30.0305 138.367 30.3317 137.446C30.6328 136.524 31.1304 135.679 31.7901 134.967C32.4499 134.255 33.2562 133.695 34.1537 133.324C35.0511 132.952 36.0185 132.779 36.9893 132.816C41.3279 132.994 46.665 133.246 50.3723 133.423C51.9837 133.509 53.5113 134.167 54.6794 135.278C55.8475 136.389 56.5792 137.88 56.7425 139.481L59.9218 172.176H75.2044C75.2418 172.176 75.2788 172.183 75.3133 172.198C75.3478 172.212 75.3791 172.233 75.4053 172.26C75.4315 172.286 75.4521 172.318 75.4659 172.353C75.4797 172.388 75.4864 172.425 75.4856 172.462V185.437C75.4865 185.475 75.4793 185.513 75.4645 185.549C75.4497 185.584 75.4275 185.616 75.3995 185.643C75.3474 185.694 75.2774 185.722 75.2044 185.723ZM35.9219 184.005L74.9174 185.15V172.725H59.6636C59.5932 172.724 59.5256 172.697 59.4738 172.65C59.4219 172.602 59.3894 172.538 59.3824 172.468L56.1743 139.516C56.0284 138.048 55.3608 136.682 54.2923 135.663C53.2239 134.644 51.8252 134.041 50.3494 133.962C46.6364 133.778 41.3049 133.526 36.9664 133.349C36.0754 133.313 35.1872 133.47 34.3631 133.81C33.539 134.15 32.7988 134.664 32.1936 135.318C31.5883 135.971 31.1326 136.748 30.8578 137.594C30.583 138.441 30.4957 139.337 30.602 140.22L35.9219 184.005Z" fill="#231F20"/>
<path d="M173.528 124.285C167.468 126.432 147.703 157.707 151.147 163.284C154.59 168.86 169.052 165.648 169.052 165.648L168.782 175.708L206.085 175.096C206.085 175.096 214.481 138.29 208.954 128.957C203.405 119.733 179.583 122.132 173.528 124.285Z" fill="#6C63FF"/>
<path d="M207.187 133.063C202.831 133.24 197.431 133.492 193.454 133.687C191.95 133.76 190.522 134.37 189.433 135.407C188.343 136.444 187.664 137.837 187.52 139.332L184.3 172.433H168.759V185.437L208.294 184.257L213.666 140.071C213.776 139.171 213.688 138.258 213.409 137.395C213.13 136.532 212.666 135.739 212.05 135.073C211.434 134.406 210.68 133.881 209.84 133.534C209 133.187 208.095 133.026 207.187 133.063Z" fill="#231F20"/>
<path d="M168.759 185.723C168.686 185.722 168.616 185.694 168.564 185.643C168.536 185.616 168.514 185.584 168.499 185.549C168.484 185.513 168.477 185.475 168.478 185.437V172.433C168.477 172.396 168.484 172.359 168.498 172.324C168.512 172.289 168.532 172.258 168.558 172.231C168.585 172.205 168.616 172.183 168.65 172.169C168.685 172.154 168.722 172.147 168.759 172.147H184.042L187.233 139.309C187.39 137.746 188.103 136.29 189.241 135.205C190.38 134.119 191.87 133.475 193.442 133.389C197.287 133.206 202.791 132.942 207.175 132.765C208.125 132.727 209.071 132.896 209.949 133.259C210.827 133.622 211.615 134.171 212.26 134.868C212.904 135.565 213.39 136.393 213.682 137.296C213.974 138.198 214.067 139.153 213.953 140.094L208.581 184.28C208.573 184.347 208.54 184.409 208.49 184.455C208.439 184.5 208.374 184.525 208.306 184.526L168.771 185.711L168.759 185.723ZM169.046 172.72V185.145L208.042 183.999L213.385 140.06C213.49 139.2 213.407 138.328 213.141 137.504C212.875 136.679 212.432 135.923 211.844 135.286C211.255 134.65 210.535 134.149 209.732 133.818C208.93 133.488 208.065 133.335 207.198 133.372C202.819 133.549 197.316 133.807 193.471 133.996C192.037 134.073 190.679 134.658 189.639 135.646C188.6 136.634 187.948 137.959 187.801 139.384L184.581 172.485C184.574 172.555 184.542 172.62 184.49 172.667C184.438 172.715 184.371 172.741 184.3 172.742L169.046 172.72Z" fill="#231F20"/>
<path d="M169.052 165.935C169.014 165.93 168.978 165.919 168.944 165.9C168.911 165.882 168.882 165.857 168.858 165.827C168.835 165.797 168.818 165.763 168.808 165.726C168.797 165.69 168.795 165.652 168.799 165.614C169.035 163.541 171.52 140.604 171.543 140.375C171.551 140.299 171.589 140.229 171.649 140.181C171.709 140.134 171.785 140.112 171.861 140.12C171.937 140.128 172.007 140.166 172.055 140.226C172.103 140.286 172.125 140.362 172.117 140.438C172.088 140.667 169.609 163.604 169.368 165.683C169.358 165.757 169.319 165.825 169.26 165.872C169.202 165.919 169.127 165.941 169.052 165.935Z" fill="#231F20"/>
<path d="M179.474 109.627C179.358 109.103 179.378 108.559 179.532 108.045C179.686 107.531 179.968 107.064 180.352 106.689C180.555 106.469 180.829 106.327 181.127 106.289C181.302 106.288 181.476 106.332 181.63 106.417C181.784 106.501 181.915 106.622 182.01 106.77C182.196 107.066 182.321 107.397 182.378 107.743C182.605 108.681 182.637 109.655 182.469 110.606C182.299 111.569 181.795 112.442 181.046 113.074" fill="white"/>
<path d="M181.046 113.383C181.003 113.384 180.96 113.375 180.921 113.356C180.882 113.337 180.848 113.309 180.822 113.274C180.775 113.215 180.752 113.14 180.76 113.065C180.767 112.99 180.804 112.921 180.863 112.873C181.562 112.29 182.031 111.479 182.188 110.583C182.352 109.663 182.323 108.719 182.102 107.812C182.05 107.505 181.939 107.212 181.775 106.947C181.708 106.84 181.615 106.75 181.505 106.687C181.395 106.625 181.271 106.59 181.144 106.586C180.92 106.622 180.717 106.735 180.57 106.907C180.219 107.247 179.962 107.67 179.821 108.137C179.68 108.604 179.662 109.099 179.766 109.575C179.776 109.611 179.778 109.649 179.772 109.686C179.766 109.723 179.753 109.758 179.733 109.79C179.713 109.821 179.687 109.848 179.656 109.87C179.626 109.891 179.591 109.906 179.554 109.913C179.48 109.93 179.403 109.918 179.338 109.878C179.274 109.838 179.227 109.775 179.21 109.701C179.083 109.129 179.105 108.534 179.274 107.973C179.443 107.412 179.752 106.903 180.174 106.495C180.424 106.227 180.762 106.056 181.127 106.014C181.351 106.005 181.573 106.053 181.774 106.153C181.975 106.253 182.147 106.402 182.274 106.586C182.486 106.913 182.628 107.279 182.693 107.663C182.933 108.647 182.964 109.671 182.785 110.669C182.601 111.698 182.061 112.63 181.259 113.303C181.231 113.33 181.197 113.351 181.161 113.365C181.124 113.379 181.085 113.385 181.046 113.383Z" fill="#231F20"/>
<path d="M189.62 97.1502C190.162 98.7809 191.157 100.225 192.489 101.313C193.971 102.632 195.876 103.381 197.861 103.426C199.411 103.426 201.161 102.561 201.413 101.032C201.586 100.013 201.04 99.0111 200.426 98.1694C198.574 95.5719 195.9 93.672 192.834 92.7757C191.904 92.5352 190.601 92.289 189.838 93.0448C188.897 94.0125 189.264 96.0165 189.62 97.1502Z" fill="#231F20"/>
<path d="M197.792 103.712C195.771 103.645 193.838 102.873 192.329 101.531C190.944 100.413 189.908 98.9226 189.345 97.2362C189.115 96.509 188.461 94.0412 189.66 92.8503C190.504 92.0143 191.847 92.2261 192.931 92.5067C196.058 93.4245 198.787 95.3594 200.685 98.0035C201.224 98.7478 201.924 99.8701 201.718 101.084C201.436 102.802 199.577 103.689 197.884 103.712H197.792ZM191.313 92.8331C191.086 92.8188 190.859 92.8494 190.644 92.9231C190.43 92.9968 190.232 93.1122 190.062 93.2625C189.293 94.0298 189.488 95.7303 189.89 97.0702C190.427 98.6438 191.4 100.033 192.696 101.078C194.122 102.347 195.951 103.071 197.861 103.122C199.279 103.122 200.908 102.344 201.138 100.969C201.264 100.214 200.972 99.372 200.203 98.3241C198.384 95.7864 195.768 93.9266 192.771 93.0392C192.295 92.9099 191.806 92.8387 191.313 92.8274V92.8331Z" fill="#231F20"/>
<path d="M205.981 98.8008C208.13 95.0873 206.479 90.1221 202.293 87.7109C198.107 85.2997 192.972 86.3554 190.823 90.069C188.674 93.7825 190.325 98.7477 194.511 101.159C198.697 103.57 203.832 102.514 205.981 98.8008Z" fill="white"/>
<path d="M199.244 102.744C197.529 102.733 195.847 102.273 194.366 101.41C192.326 100.261 190.778 98.4049 190.016 96.1941C189.659 95.1694 189.525 94.0805 189.624 93.0002C189.723 91.9199 190.053 90.8731 190.59 89.93C192.817 86.088 198.137 84.9829 202.452 87.4679C206.768 89.9529 208.466 95.1004 206.246 98.9196C205.693 99.8545 204.946 100.661 204.055 101.284C203.164 101.907 202.15 102.333 201.081 102.533C200.477 102.665 199.862 102.736 199.244 102.744ZM197.551 86.7121C196.256 86.674 194.974 86.9786 193.835 87.5951C192.696 88.2116 191.74 89.118 191.066 90.2221C190.571 91.0965 190.27 92.0669 190.183 93.0675C190.095 94.0681 190.225 95.0757 190.561 96.0223C191.297 98.0888 192.747 99.8262 194.65 100.923C196.554 102.019 198.787 102.403 200.949 102.006C201.938 101.822 202.876 101.429 203.701 100.853C204.526 100.277 205.217 99.5321 205.729 98.6676C207.801 95.0947 206.194 90.2908 202.148 87.9661C200.754 87.1497 199.168 86.7152 197.551 86.7064V86.7121Z" fill="#231F20"/>
<path d="M155.566 181.572H130.389C130.313 181.572 130.24 181.541 130.186 181.488C130.133 181.434 130.102 181.361 130.102 181.285V166.736C130.102 166.66 130.133 166.587 130.186 166.534C130.24 166.48 130.313 166.45 130.389 166.45H155.566C155.642 166.45 155.715 166.48 155.769 166.534C155.822 166.587 155.853 166.66 155.853 166.736V181.285C155.853 181.361 155.822 181.434 155.769 181.488C155.715 181.541 155.642 181.572 155.566 181.572ZM130.676 180.999H155.279V167.022H130.676V180.999Z" fill="#D1D3D4"/>
<path d="M155.566 184.148H130.389C130.313 184.148 130.24 184.118 130.186 184.064C130.133 184.011 130.102 183.938 130.102 183.862V181.285C130.102 181.209 130.133 181.137 130.186 181.083C130.24 181.029 130.313 180.999 130.389 180.999H155.566C155.642 180.999 155.715 181.029 155.769 181.083C155.822 181.137 155.853 181.209 155.853 181.285V183.862C155.853 183.938 155.822 184.011 155.769 184.064C155.715 184.118 155.642 184.148 155.566 184.148ZM130.676 183.576H155.279V181.572H130.676V183.576Z" fill="#D1D3D4"/>
<path d="M137.683 178.623H133.471C133.395 178.623 133.322 178.593 133.268 178.539C133.214 178.485 133.184 178.413 133.184 178.337V169.21C133.184 169.134 133.214 169.061 133.268 169.007C133.322 168.954 133.395 168.923 133.471 168.923H137.689C137.765 168.923 137.838 168.954 137.892 169.007C137.946 169.061 137.976 169.134 137.976 169.21V178.342C137.975 178.38 137.967 178.417 137.952 178.451C137.937 178.486 137.915 178.517 137.888 178.543C137.861 178.569 137.829 178.59 137.794 178.603C137.759 178.617 137.721 178.624 137.683 178.623ZM133.752 178.05H137.396V169.496H133.752V178.05Z" fill="#D1D3D4"/>
<path d="M141.023 159.55H131.749C131.674 159.549 131.602 159.518 131.548 159.465C131.495 159.411 131.464 159.339 131.462 159.264V153.028C131.462 152.953 131.493 152.88 131.547 152.826C131.6 152.772 131.673 152.742 131.749 152.742H141.018C141.094 152.742 141.167 152.772 141.221 152.826C141.274 152.88 141.305 152.953 141.305 153.028V159.264C141.303 159.338 141.273 159.41 141.221 159.463C141.169 159.516 141.098 159.547 141.023 159.55ZM132.042 158.978H140.736V153.315H132.042V158.978Z" fill="#D1D3D4"/>
</svg>
