<svg width="290" height="270" viewBox="0 0 290 270" fill="none" xmlns="http://www.w3.org/2000/svg">
<path d="M108.452 270C168.348 270 216.903 266.021 216.903 261.114C216.903 256.206 168.348 252.227 108.452 252.227C48.5555 252.227 0 256.206 0 261.114C0 266.021 48.5555 270 108.452 270Z" fill="#E6E7E8"/>
<path d="M289.391 177.689H212.275V240.75H289.391V177.689Z" fill="white"/>
<path d="M289.391 241.373H212.275C212.114 241.373 211.959 241.309 211.845 241.194C211.731 241.079 211.667 240.924 211.667 240.762V177.689C211.667 177.527 211.731 177.372 211.845 177.257C211.959 177.143 212.114 177.078 212.275 177.078H289.391C289.552 177.081 289.705 177.147 289.818 177.261C289.932 177.375 289.997 177.528 290 177.689V240.762C289.997 240.923 289.932 241.077 289.818 241.19C289.705 241.304 289.552 241.37 289.391 241.373V241.373ZM212.884 240.151H288.782V178.301H212.897L212.884 240.151Z" fill="#D1D3D4"/>
<path d="M289.391 186.405H212.275C212.114 186.405 211.959 186.34 211.845 186.226C211.731 186.111 211.667 185.956 211.667 185.793C211.667 185.631 211.731 185.476 211.845 185.361C211.959 185.247 212.114 185.182 212.275 185.182H289.391C289.553 185.182 289.708 185.247 289.822 185.361C289.936 185.476 290 185.631 290 185.793C289.997 185.955 289.932 186.108 289.818 186.222C289.705 186.336 289.552 186.402 289.391 186.405V186.405Z" fill="#D1D3D4"/>
<path d="M76.9088 59.8688C75.2456 59.981 73.5861 59.6014 72.1356 58.7769C70.6852 57.9524 69.5074 56.7192 68.7479 55.2299C67.9885 53.7406 67.6807 52.0605 67.8628 50.3974C68.0448 48.7344 68.7086 47.1614 69.772 45.8731C65.1197 43.7218 62.6596 38.1968 63.0006 33.0752C63.3416 27.9537 66.0331 23.2966 69.3945 19.3607C72.159 16.1459 75.63 13.249 79.7829 12.4545C80.569 12.3759 81.3355 12.1608 82.0482 11.8189C82.609 11.4229 83.0955 10.9305 83.4853 10.3643C86.5178 6.47729 90.2567 2.90808 94.9333 1.3435C99.6099 -0.221091 105.334 0.67121 108.464 4.49711C110.028 3.13389 111.969 2.27959 114.027 2.04726C116.086 1.81493 118.167 2.21551 119.994 3.196C121.821 4.17649 123.309 5.69068 124.259 7.53818C125.21 9.38569 125.58 11.4794 125.319 13.5424C128.614 14.0306 131.704 15.446 134.23 17.6245C136.756 19.803 138.616 22.6555 139.593 25.8513C141.334 32.2807 138.375 39.8347 132.468 42.8784C131.786 43.2328 130.97 43.6973 130.995 44.4552C131.062 44.9126 131.266 45.3388 131.579 45.6775C133.479 48.4033 132.529 52.3514 130.361 54.8205C128.193 57.2897 124.954 58.5976 121.836 59.8443C122.53 60.5423 122.992 61.4379 123.16 62.4092C123.327 63.3804 123.193 64.3799 122.774 65.2715C121.87 67.0563 120.464 68.5354 118.731 69.5252C111.959 73.9134 103.58 72.5444 95.9928 72.7033C88.9901 72.8499 82.036 68.364 77.3959 63.2791C76.4947 62.3134 75.7761 60.5533 76.9088 59.8688Z" fill="white"/>
<path d="M104.384 73.4C103.166 73.4 101.948 73.4 100.828 73.4C99.2445 73.4 97.5882 73.3267 96.0293 73.4C89.672 73.51 82.6327 69.9286 76.9574 63.7803C76.5581 63.3783 76.2442 62.899 76.0348 62.3717C75.8255 61.8443 75.725 61.2797 75.7396 60.7122C75.7327 60.6676 75.7327 60.6223 75.7396 60.5777C74.0999 60.4987 72.5122 59.9752 71.1452 59.063C69.7783 58.1508 68.6831 56.884 67.9761 55.397C67.269 53.9101 66.9766 52.2587 67.1299 50.6184C67.2831 48.978 67.8763 47.41 68.8464 46.0809C64.6447 43.7584 62.0263 38.5146 62.3917 33.0386C62.6961 28.357 64.9005 23.6266 68.9316 18.9573C72.4391 14.8992 75.9466 12.5767 79.6733 11.8556L80.0874 11.7822C80.6733 11.7591 81.2439 11.5879 81.7464 11.2845C82.2488 10.9811 82.6668 10.5552 82.9616 10.0465C86.7857 5.15717 90.622 2.15023 94.7384 0.768999C99.8169 -0.930043 105.383 0.255617 108.537 3.64148C110.197 2.35512 112.193 1.57916 114.283 1.40746C116.373 1.23577 118.468 1.6757 120.315 2.67404C122.161 3.67237 123.68 5.18632 124.687 7.03273C125.694 8.87913 126.146 10.9789 125.989 13.0779C129.28 13.6747 132.344 15.1666 134.848 17.3909C137.352 19.6153 139.199 22.4867 140.189 25.6924C142.041 32.5252 138.765 40.3604 132.748 43.4284C132.139 43.734 131.591 44.0763 131.603 44.443C131.664 44.6966 131.785 44.9316 131.957 45.1275L132.066 45.2864C134.234 48.3666 133.004 52.6815 130.751 55.175C128.522 57.3705 125.835 59.0406 122.883 60.0644C123.417 60.8653 123.739 61.7888 123.82 62.7486C123.901 63.7084 123.738 64.6732 123.346 65.5526C122.414 67.437 120.943 68.9991 119.12 70.0386C114.602 72.9722 109.487 73.4 104.384 73.4ZM97.3812 72.0799C98.5382 72.0799 99.7073 72.0799 100.852 72.0799C106.941 72.2021 113.214 72.3366 118.414 68.9629C120.053 68.0467 121.38 66.6587 122.226 64.9781C122.604 64.1995 122.73 63.322 122.589 62.4677C122.447 61.6134 122.043 60.8246 121.434 60.211C121.354 60.1431 121.294 60.0556 121.257 59.9571C121.221 59.8586 121.211 59.7524 121.227 59.6488C121.244 59.5435 121.288 59.4445 121.354 59.361C121.42 59.2775 121.506 59.2125 121.605 59.1721C124.455 58.0231 127.694 56.7274 129.85 54.2827C131.786 52.1436 132.87 48.4766 131.068 45.9097L130.958 45.7753C130.626 45.3911 130.422 44.9125 130.373 44.4063C130.373 43.1839 131.53 42.5972 132.176 42.2672C137.705 39.4069 140.701 32.2441 138.996 25.9368C138.032 22.8715 136.228 20.1405 133.79 18.0565C131.352 15.9726 128.378 14.6199 125.21 14.1535C125.052 14.1293 124.91 14.0441 124.815 13.9161C124.719 13.7881 124.677 13.6276 124.698 13.469C124.937 11.5327 124.588 9.56891 123.696 7.83527C122.804 6.10163 121.411 4.67901 119.699 3.75395C117.987 2.82888 116.037 2.44454 114.104 2.65132C112.171 2.8581 110.345 3.64634 108.866 4.91271C108.805 4.96673 108.733 5.00762 108.656 5.03284C108.578 5.05807 108.496 5.0671 108.415 5.05938C108.335 5.05336 108.256 5.0307 108.185 4.99283C108.114 4.95497 108.051 4.90272 108.001 4.83936C105.261 1.49017 99.9631 0.26784 95.1403 1.89354C91.2553 3.18922 87.6017 6.07392 83.9724 10.7066C83.5424 11.3336 83.0017 11.8763 82.377 12.3078C81.734 12.6514 81.031 12.8672 80.3066 12.9434L79.9169 13.0168C76.4703 13.6891 73.182 15.877 69.8572 19.7152C66.0088 24.1767 63.914 28.6749 63.6217 33.0753C63.2685 38.3557 65.8991 43.3673 70.0399 45.2986C70.1241 45.3379 70.1984 45.3956 70.2574 45.4675C70.3164 45.5394 70.3586 45.6237 70.3809 45.7142C70.4004 45.8062 70.3985 45.9015 70.3752 45.9927C70.352 46.0839 70.3081 46.1684 70.247 46.2398C69.2427 47.4309 68.6119 48.8936 68.4341 50.4438C68.2562 51.9939 68.5393 53.5622 69.2475 54.9513C69.9558 56.3403 71.0576 57.4881 72.4144 58.25C73.7711 59.0119 75.3222 59.354 76.8722 59.2332C77.0109 59.219 77.1502 59.254 77.2659 59.3322C77.3816 59.4103 77.4664 59.5266 77.5055 59.661C77.5469 59.7922 77.5429 59.9335 77.4943 60.0622C77.4457 60.1909 77.3552 60.2993 77.2376 60.3699C77.1623 60.4118 77.0985 60.4716 77.0518 60.5441C77.0051 60.6166 76.9768 60.6995 76.9696 60.7855C76.9904 61.5657 77.3137 62.3069 77.8709 62.8513C83.2539 68.7429 90.0496 72.1899 96.005 72.0677L97.3812 72.0799Z" fill="#231F20"/>
<path d="M163.889 238.879C166.678 238.879 187.467 241.141 197.198 245.993C206.929 250.846 209.036 251.225 207.063 257.777C205.09 264.328 187.954 265.942 174.911 263.473C166.51 261.739 158.407 258.783 150.858 254.696L163.889 238.879Z" fill="white"/>
<path d="M187.212 265.221C183.05 265.204 178.899 264.795 174.814 263.998C166.355 262.252 158.195 259.279 150.59 255.173C150.519 255.13 150.458 255.074 150.41 255.006C150.362 254.939 150.328 254.863 150.31 254.782C150.296 254.702 150.299 254.62 150.32 254.542C150.342 254.464 150.38 254.391 150.432 254.33L163.463 238.513C163.511 238.448 163.573 238.395 163.645 238.359C163.717 238.323 163.797 238.304 163.877 238.305H163.999C167.397 238.305 187.699 240.627 197.442 245.48L199.634 246.568C207.44 250.406 209.547 251.457 207.599 257.936C206.369 262.043 198.355 265.221 187.212 265.221ZM151.723 254.525C159.056 258.411 166.9 261.238 175.021 262.923C188.113 265.367 204.725 263.632 206.539 257.618C208.208 252.044 207.002 251.445 199.147 247.582L196.955 246.494C187.662 241.862 167.786 239.503 164.145 239.429L151.723 254.525Z" fill="#231F20"/>
<path d="M166.678 238.818C168.517 239.27 170.118 240.403 171.159 241.99C172.2 243.577 172.605 245.501 172.293 247.375C171.379 254.33 156.728 254.623 155.888 254.709C155.047 254.794 166.678 238.818 166.678 238.818Z" fill="white"/>
<path d="M155.888 255.1C155.779 255.096 155.673 255.065 155.579 255.01C155.485 254.954 155.407 254.876 155.352 254.782C155.169 254.415 154.877 253.853 166.227 238.439C166.293 238.35 166.383 238.282 166.488 238.245C166.592 238.207 166.705 238.203 166.812 238.232C166.873 238.232 173.815 239.98 172.901 247.35C171.976 254.427 158.628 255.051 155.961 255.1H155.888ZM166.849 239.417C163.28 244.307 157.97 251.641 156.643 253.963C159.98 253.804 170.953 252.863 171.696 247.203C171.982 245.547 171.651 243.844 170.766 242.417C169.881 240.99 168.504 239.94 166.897 239.466L166.849 239.417Z" fill="#231F20"/>
<path d="M58.0925 254.745C57.6663 254.965 53.6838 260.16 36.3169 262.238C18.9501 264.316 12.5075 268.069 8.63469 258.913C4.76185 249.758 7.41682 243.842 15.9419 241.226C24.467 238.61 48.0816 236.447 52.7095 240.823C57.3374 245.199 58.0925 254.745 58.0925 254.745Z" fill="white"/>
<path d="M17.2085 265.343C12.9094 265.343 10.1449 263.901 8.1232 259.133C6.10153 254.366 5.79707 250.272 7.27069 247.106C8.63471 244.172 11.5089 242.009 15.7958 240.701C23.8094 238.256 48.1547 235.738 53.0993 240.42C57.8368 244.893 58.5919 254.305 58.6284 254.696C58.634 254.8 58.6122 254.903 58.5651 254.995C58.518 255.088 58.4474 255.166 58.3605 255.222L58.19 255.369C53.1845 259.94 43.5755 261.933 36.3657 262.788C32.6268 263.24 29.4116 263.766 26.6227 264.231C23.5163 264.834 20.3696 265.206 17.2085 265.343V265.343ZM39.6905 238.867C31.348 238.867 21.2397 240.2 16.149 241.764C12.1544 242.986 9.49939 244.942 8.28152 247.582C6.94186 250.443 7.23415 254.183 9.14621 258.693C12.0082 265.477 16.2342 264.805 26.4157 263.13C29.2655 262.666 32.505 262.14 36.2561 261.688C43.2954 260.845 52.6852 258.913 57.4714 254.537C57.3009 252.936 56.2536 245.028 52.3198 241.263C50.5661 239.527 45.5606 238.867 39.6905 238.867Z" fill="#231F20"/>
<path d="M63.6339 251.005C63.6339 251.005 55.7542 257.606 50.5052 256.823C45.2562 256.041 37.9977 253.156 40.9206 247.472C43.8434 241.789 62.6596 238.366 62.6596 238.366L63.6339 251.005Z" fill="white"/>
<path d="M51.4064 257.447C51.0762 257.447 50.7465 257.422 50.4199 257.373C46.4862 256.787 41.7365 255.1 40.2141 252.105C39.8383 251.338 39.6603 250.488 39.6965 249.634C39.7327 248.78 39.9818 247.948 40.4212 247.216C43.4415 241.324 61.7827 237.963 62.5621 237.816C62.6388 237.803 62.7174 237.806 62.7929 237.825C62.8684 237.844 62.9391 237.878 63.0005 237.926C63.0622 237.975 63.1135 238.036 63.1511 238.105C63.1888 238.174 63.2122 238.251 63.2198 238.329L64.1941 250.956C64.2008 251.045 64.1867 251.135 64.1529 251.218C64.119 251.3 64.0664 251.374 63.9992 251.433C63.6826 251.689 56.7529 257.447 51.4064 257.447ZM62.1602 239.038C58.9328 239.674 43.8921 242.889 41.4564 247.729C41.0971 248.304 40.8885 248.961 40.8502 249.638C40.8119 250.316 40.945 250.992 41.2372 251.604C42.5768 254.207 46.9612 255.723 50.627 256.273C55.0966 256.945 61.807 251.787 63.098 250.76L62.1602 239.038Z" fill="#231F20"/>
<path d="M158.287 195.56C158.287 195.56 149.981 228.074 119.668 234.283C89.3553 240.493 73.6691 238.855 62.9275 218.32C52.1859 197.785 59.2739 185.219 59.2739 185.219L154.938 183.312L158.287 195.56Z" fill="#231F20"/>
<path d="M94.6653 238.085C80.0508 238.085 69.906 232.976 62.3795 218.601C51.6135 198.005 58.4701 185.439 58.7259 184.913C58.779 184.821 58.8553 184.744 58.9472 184.691C59.039 184.637 59.1433 184.608 59.2495 184.608L154.914 182.701C155.052 182.694 155.188 182.735 155.299 182.818C155.41 182.9 155.489 183.019 155.522 183.153L158.835 195.377C158.859 195.481 158.859 195.59 158.835 195.694C158.75 196.024 150.091 228.697 119.741 234.87C110.157 236.863 101.863 238.085 94.6653 238.085ZM59.6758 185.818C58.7259 187.835 53.9274 199.789 63.4634 218.039C74.3634 238.818 90.2566 239.698 119.486 233.684C148.02 227.842 156.923 197.956 157.593 195.56L154.439 183.936L59.6758 185.818Z" fill="#231F20"/>
<path d="M52.1372 195.853C52.1372 195.853 36.4631 145.004 38.5213 113.138C40.5795 81.2718 52.3807 80.1351 68.481 78.3382C75.6299 77.5315 113.713 71.8721 127.974 88.7158C142.235 105.56 167.336 184.449 167.336 184.449L52.1372 195.853Z" fill="#6C63FF"/>
<path d="M108.707 78.4238L106.272 95.4386C106.272 95.4386 100.937 104.227 90.2566 99.7779C79.5759 95.3286 79.3688 87.1268 79.3688 87.1268L84.4352 55.6884C84.4352 55.6884 95.7005 45.543 100.438 26.1568C100.438 26.1568 109.877 42.6828 123.578 46.3987C123.578 46.3987 122.664 60.1254 120.216 68.6329C117.781 76.8592 108.878 78.326 108.707 78.4238Z" fill="white"/>
<path d="M95.9805 101.636C93.9091 101.611 91.8636 101.17 89.9642 100.34C79.0034 95.7931 78.7111 87.4935 78.6989 87.139L83.8018 55.5906C83.8265 55.4508 83.8948 55.3224 83.9967 55.2239C84.1063 55.1261 95.1768 44.9808 99.829 26.0102C99.8624 25.8937 99.9283 25.7892 100.019 25.7091C100.11 25.6289 100.221 25.5765 100.341 25.5579C100.46 25.541 100.581 25.5599 100.689 25.6121C100.798 25.6643 100.888 25.7475 100.949 25.8513C101.047 26.0224 110.437 42.2061 123.699 45.7997C123.836 45.8364 123.957 45.9199 124.039 46.036C124.121 46.152 124.16 46.2933 124.15 46.4353C124.15 46.5698 123.2 60.3333 120.764 68.804C118.755 75.7835 112.239 78.1793 109.268 78.9127L106.832 95.5242C106.821 95.6052 106.796 95.6837 106.759 95.7565C105.559 97.5271 103.954 98.9845 102.08 100.007C100.205 101.03 98.1138 101.588 95.9805 101.636V101.636ZM85.0197 55.9818L79.9777 87.2246C79.9777 87.4202 80.343 94.9742 90.5001 99.2157C99.9874 103.164 105.115 96.1354 105.699 95.2186L108.135 78.3382C108.146 78.2456 108.18 78.1571 108.233 78.0804C108.286 78.0037 108.357 77.9412 108.439 77.8982C108.552 77.8328 108.676 77.7912 108.805 77.776C111.423 77.1526 117.732 74.989 119.607 68.4618C121.751 61.0178 122.725 49.3812 122.908 46.8509C111.46 43.4773 103.154 31.6329 100.669 27.7092C96.0414 44.9197 86.335 54.6372 85.0197 55.9818Z" fill="#231F20"/>
<path d="M90.9995 56.1651C90.8627 54.5749 90.2128 53.0728 89.1483 51.887C88.1133 50.8216 86.9018 49.9448 85.5678 49.2956C84.8759 48.8662 84.0984 48.595 83.2903 48.5011C82.7186 48.5067 82.1529 48.6186 81.6218 48.8311C80.3251 49.2463 79.2191 50.1134 78.5041 51.2758C78.0333 52.2619 77.8116 53.3492 77.8586 54.4416C77.8105 55.6239 77.9169 56.8074 78.1753 57.962C78.4613 59.1147 78.9738 60.1986 79.6827 61.1499C80.3916 62.1013 81.2826 62.901 82.3036 63.5021C83.3245 64.1033 84.4547 64.4937 85.628 64.6506C86.8013 64.8075 87.994 64.7277 89.1361 64.4159" fill="white"/>
<path d="M86.8222 65.2837C84.7029 65.2857 82.6436 64.5772 80.9712 63.2707C79.2988 61.9641 78.109 60.1345 77.5907 58.072C77.3083 56.8714 77.1935 55.6372 77.2497 54.405C77.2067 53.2144 77.4534 52.0313 77.9683 50.958C78.7442 49.6801 79.9491 48.7222 81.3661 48.2566C81.9721 48.0202 82.6158 47.896 83.266 47.8899C84.1683 47.9853 85.0379 48.2818 85.8113 48.7578C87.2037 49.44 88.4686 50.3579 89.5502 51.4714C90.7054 52.7592 91.4108 54.3898 91.5597 56.1162C91.5699 56.2777 91.5172 56.4369 91.4127 56.56C91.3081 56.6832 91.16 56.7607 90.9995 56.7763C90.8393 56.7835 90.6824 56.7295 90.5603 56.6252C90.4383 56.5208 90.3602 56.3739 90.3418 56.214C90.2223 54.7596 89.6369 53.3832 88.6734 52.2903C87.6834 51.2813 86.5252 50.4539 85.2511 49.8457C84.6437 49.4548 83.9573 49.2043 83.2416 49.1123C82.7483 49.1164 82.2603 49.216 81.8046 49.4056C80.6542 49.7621 79.6637 50.5099 79.0034 51.5202C78.5898 52.4231 78.3978 53.4123 78.4432 54.405C78.3848 55.5343 78.4873 56.6662 78.7477 57.7664C79.0156 58.8364 79.4928 59.8423 80.1515 60.7255C80.8102 61.6088 81.6373 62.3518 82.5847 62.9114C83.5321 63.471 84.5808 63.836 85.67 63.9851C86.7591 64.1343 87.867 64.0647 88.9291 63.7803C89.0841 63.739 89.2491 63.7608 89.3882 63.8409C89.5272 63.921 89.6293 64.053 89.672 64.2081C89.6922 64.2859 89.6968 64.367 89.6856 64.4467C89.6745 64.5263 89.6477 64.603 89.607 64.6722C89.5663 64.7415 89.5123 64.802 89.4483 64.8503C89.3842 64.8986 89.3112 64.9338 89.2336 64.9537C88.4481 65.1715 87.6371 65.2825 86.8222 65.2837V65.2837Z" fill="#231F20"/>
<path d="M106.308 51.3124C106.308 51.3124 111.094 60.7855 109.523 62.1423C107.952 63.4991 104.177 62.0079 104.177 62.0079" fill="white"/>
<path d="M107.563 63.328C106.311 63.2893 105.076 63.0371 103.909 62.5824C103.835 62.5527 103.767 62.5086 103.709 62.4527C103.652 62.3967 103.606 62.3299 103.574 62.2561C103.543 62.1823 103.526 62.1029 103.525 62.0226C103.524 61.9423 103.538 61.8625 103.568 61.7878C103.63 61.6391 103.747 61.5203 103.895 61.4565C104.043 61.3926 104.209 61.3887 104.36 61.4456C105.249 61.7878 108.013 62.5824 109.073 61.6778C109.718 61.14 108.111 56.324 105.724 51.5814C105.686 51.5102 105.663 51.4322 105.657 51.3521C105.65 51.2719 105.659 51.1912 105.684 51.1148C105.709 51.0383 105.749 50.9677 105.802 50.9072C105.855 50.8467 105.919 50.7974 105.992 50.7624C106.136 50.6931 106.301 50.6824 106.453 50.7325C106.605 50.7826 106.732 50.8896 106.808 51.0313C108.306 54.0138 111.618 61.1033 109.877 62.6068C109.209 63.1044 108.393 63.3588 107.563 63.328V63.328Z" fill="#231F20"/>
<path d="M100.363 49.1713C100.454 48.0409 99.8766 47.0712 99.0722 47.0054C98.2677 46.9396 97.5411 47.8026 97.4493 48.9329C97.3575 50.0633 97.9352 51.033 98.7397 51.0988C99.5442 51.1647 100.271 50.3016 100.363 49.1713Z" fill="#231F20"/>
<path d="M115.451 51.2637C115.535 50.1327 114.95 49.1671 114.145 49.1069C113.341 49.0467 112.62 49.9148 112.536 51.0458C112.452 52.1768 113.037 53.1424 113.841 53.2026C114.646 53.2627 115.367 52.3947 115.451 51.2637Z" fill="#231F20"/>
<path d="M105.066 70.9065C103.204 70.9393 101.361 70.52 99.6951 69.6841C96.7844 68.1562 94.921 65.2348 94.1538 61.0056C94.1398 60.9261 94.1417 60.8446 94.1593 60.7658C94.1768 60.687 94.2098 60.6125 94.2562 60.5466C94.3026 60.4807 94.3616 60.4247 94.4297 60.3818C94.4979 60.3388 94.5738 60.3099 94.6531 60.2966C94.8109 60.2712 94.9724 60.3079 95.1039 60.399C95.2355 60.49 95.327 60.6285 95.3595 60.7855C96.0415 64.6237 97.6978 67.2517 100.231 68.5963C105.346 71.2854 112.544 68.034 112.617 67.9973C112.764 67.9312 112.931 67.9262 113.082 67.9835C113.232 68.0407 113.354 68.1556 113.421 68.3029C113.455 68.3757 113.474 68.4547 113.477 68.5352C113.481 68.6156 113.468 68.6959 113.439 68.7712C113.411 68.8465 113.368 68.9153 113.312 68.9735C113.256 69.0316 113.19 69.0779 113.116 69.1096C110.573 70.2218 107.839 70.8319 105.066 70.9065V70.9065Z" fill="#231F20"/>
<path d="M108.707 78.4238C108.707 78.4238 97.7465 79.3283 92.0956 74.8546C92.0956 74.8546 96.9062 90.1338 107.015 90.0849L108.707 78.4238Z" fill="#231F20"/>
<path d="M106.941 90.696C96.5408 90.696 91.6936 75.6735 91.4866 75.0379C91.4508 74.9126 91.455 74.7791 91.4987 74.6564C91.5424 74.5336 91.6234 74.4276 91.7302 74.3534C91.8329 74.2731 91.9593 74.2295 92.0894 74.2295C92.2196 74.2295 92.3461 74.2731 92.4487 74.3534C97.8926 78.6194 108.525 77.8004 108.634 77.7882C108.725 77.7818 108.816 77.7958 108.9 77.8293C108.985 77.8628 109.061 77.9148 109.123 77.9817C109.185 78.0485 109.231 78.1284 109.258 78.2154C109.285 78.3025 109.293 78.3946 109.28 78.4849L107.587 90.1582C107.561 90.3103 107.481 90.4481 107.363 90.5467C107.245 90.6453 107.095 90.6983 106.941 90.696V90.696ZM93.3012 76.3947C94.8479 80.2206 99.2323 89.0825 106.466 89.4615L107.964 79.0838C105.626 79.1816 98.4163 79.255 93.3256 76.3947H93.3012Z" fill="#231F20"/>
<path d="M56.4119 81.174C33.9178 78.3627 12.7999 174.206 25.076 183.312C44.221 197.528 102.655 178.117 102.655 178.117L96.8088 152.827C96.8088 152.827 54.6338 154.844 53.8666 146.153C53.0993 137.462 77.4324 96.7221 74.0224 90.7816C70.6123 84.841 56.4119 81.174 56.4119 81.174Z" fill="#6C63FF"/>
<path d="M134.953 153.536C134.818 153.54 134.687 153.493 134.586 153.405C134.484 153.317 134.42 153.193 134.405 153.059C131.506 132.622 125.149 98.3967 123.09 96.3921C122.99 96.287 122.935 96.147 122.935 96.0015C122.936 95.856 122.992 95.7164 123.093 95.612C123.194 95.5076 123.331 95.4465 123.476 95.4415C123.621 95.4365 123.762 95.4881 123.87 95.5853C126.513 98.1645 133.308 137.426 135.501 152.901C135.521 153.048 135.483 153.198 135.394 153.317C135.305 153.436 135.173 153.515 135.026 153.536H134.953Z" fill="#231F20"/>
<path d="M113.433 201.892L74.6069 190.976L145.913 177.518L184.508 193.751L113.433 201.892Z" fill="white"/>
<path d="M113.433 202.539C113.381 202.551 113.327 202.551 113.274 202.539L74.4486 191.538C74.2871 191.538 74.1322 191.474 74.018 191.359C73.9038 191.245 73.8397 191.089 73.8397 190.927C73.8397 190.765 73.9038 190.61 74.018 190.495C74.1322 190.381 74.2871 190.316 74.4486 190.316L145.755 176.87C145.866 176.834 145.985 176.834 146.096 176.87L184.69 193.103C184.814 193.156 184.917 193.248 184.983 193.365C185.049 193.482 185.075 193.618 185.056 193.751C185.038 193.886 184.975 194.011 184.878 194.106C184.781 194.201 184.655 194.261 184.52 194.277L113.506 202.539H113.433ZM77.2862 191.135L113.481 201.317L182.121 193.458L145.84 178.203L77.2862 191.135Z" fill="#231F20"/>
<path d="M90.5244 161.567C99.0496 162.508 106.954 163.119 114.882 166.456C119.412 168.366 123.691 170.829 127.621 173.79C129.623 175.216 131.494 176.82 133.211 178.582C134.575 180.073 134.137 181.528 131.847 180.806C129.184 179.969 126.663 178.733 124.369 177.139C129.855 181.631 134.717 186.84 138.825 192.626C139.288 193.286 139.739 194.228 139.191 194.814C138.643 195.401 137.425 194.814 136.755 194.203L124.71 182.738C127.899 185.499 130.611 188.77 132.736 192.418C133.04 192.944 133.333 193.641 133.016 194.118C132.48 195.01 131.116 194.338 130.385 193.592C126.778 189.936 123.497 185.968 120.582 181.735L127.085 191.514C127.023 191.694 126.927 191.861 126.801 192.003C126.675 192.146 126.522 192.262 126.351 192.345C126.18 192.428 125.994 192.476 125.805 192.487C125.615 192.497 125.425 192.47 125.246 192.406C124.53 192.109 123.91 191.619 123.456 190.988L115.576 181.906L120.228 188.336C120.959 189.338 121.69 190.781 120.85 191.722C120.009 192.663 118.109 191.722 117.038 190.768C112.727 186.82 107.993 183.364 102.922 180.464C101.083 179.376 99.5124 177.897 97.4785 177.274C94.5556 176.369 90.902 176.492 87.8573 176.149" fill="white"/>
<path d="M138.606 195.646C137.792 195.553 137.035 195.182 136.463 194.594L132.565 190.927C132.821 191.331 133.077 191.746 133.308 192.15C133.555 192.468 133.711 192.847 133.76 193.248C133.81 193.648 133.75 194.054 133.589 194.423C133.479 194.612 133.328 194.772 133.146 194.89C132.964 195.009 132.757 195.084 132.541 195.108C132.081 195.102 131.626 195 131.207 194.808C130.788 194.617 130.412 194.34 130.105 193.995C129.302 193.189 128.522 192.37 127.755 191.551C127.76 191.595 127.76 191.641 127.755 191.685C127.709 191.911 127.615 192.125 127.481 192.313C127.347 192.5 127.174 192.657 126.975 192.773C126.713 192.931 126.42 193.033 126.116 193.073C125.813 193.113 125.504 193.09 125.21 193.005C124.39 192.683 123.68 192.131 123.164 191.416L121.726 189.766C121.906 190.164 121.969 190.605 121.909 191.038C121.848 191.471 121.667 191.877 121.385 192.211C121.21 192.408 120.996 192.567 120.758 192.678C120.519 192.79 120.26 192.851 119.997 192.859C118.725 192.719 117.548 192.12 116.684 191.172C112.416 187.245 107.717 183.817 102.679 180.953C102.058 180.586 101.461 180.171 100.876 179.731C99.8125 178.898 98.6248 178.238 97.3568 177.775C95.2332 177.236 93.0555 176.94 90.8655 176.895C89.8181 176.834 88.7951 176.773 87.833 176.675C87.6863 176.657 87.5527 176.581 87.4615 176.464C87.3702 176.347 87.3286 176.199 87.3458 176.052C87.3534 175.979 87.3752 175.909 87.41 175.845C87.4448 175.781 87.4919 175.725 87.5485 175.679C87.6052 175.634 87.6703 175.6 87.74 175.58C87.8097 175.56 87.8827 175.554 87.9548 175.563C88.9047 175.66 89.9034 175.721 90.9264 175.783C93.2071 175.826 95.4751 176.134 97.6856 176.699C99.0584 177.203 100.348 177.912 101.51 178.802C102.07 179.205 102.642 179.596 103.239 179.951C108.347 182.864 113.114 186.34 117.452 190.316C118.11 190.988 118.962 191.437 119.887 191.6C120.001 191.596 120.112 191.569 120.214 191.52C120.317 191.472 120.409 191.403 120.484 191.318C121.142 190.597 120.241 189.192 119.827 188.617L115.174 182.2C115.131 182.144 115.099 182.08 115.08 182.011C115.061 181.943 115.057 181.871 115.066 181.801C115.075 181.73 115.098 181.662 115.133 181.601C115.168 181.539 115.215 181.485 115.272 181.442C115.374 181.341 115.512 181.285 115.655 181.285C115.799 181.285 115.937 181.341 116.039 181.442L123.931 190.524C124.316 191.065 124.843 191.488 125.453 191.746C125.597 191.787 125.748 191.798 125.897 191.779C126.045 191.76 126.188 191.712 126.318 191.636C126.395 191.596 126.462 191.537 126.513 191.465L120.168 181.894C120.085 181.773 120.054 181.623 120.082 181.479C120.109 181.334 120.193 181.207 120.314 181.124C120.435 181.042 120.584 181.011 120.728 181.038C120.871 181.066 120.999 181.149 121.081 181.271C123.983 185.474 127.243 189.416 130.824 193.054C131.22 193.491 131.761 193.769 132.346 193.836C132.394 193.835 132.441 193.821 132.482 193.795C132.523 193.769 132.556 193.733 132.578 193.69C132.712 193.482 132.578 193.091 132.298 192.553C130.832 190.035 129.078 187.697 127.073 185.586L124.357 182.994C124.269 182.89 124.222 182.756 124.226 182.619C124.229 182.482 124.282 182.351 124.375 182.251C124.467 182.15 124.593 182.087 124.729 182.073C124.865 182.059 125.001 182.096 125.112 182.175C126.074 183.007 126.988 183.874 127.865 184.791L137.169 193.653C137.531 194.066 138.028 194.335 138.57 194.411C138.619 194.413 138.668 194.403 138.713 194.382C138.757 194.36 138.796 194.328 138.825 194.289C139.105 193.995 138.825 193.335 138.423 192.797C134.345 187.053 129.52 181.882 124.077 177.421C123.977 177.325 123.916 177.197 123.905 177.059C123.893 176.922 123.933 176.785 124.015 176.675C124.098 176.564 124.218 176.489 124.353 176.462C124.488 176.435 124.628 176.458 124.747 176.528C126.986 178.093 129.45 179.304 132.054 180.122C132.907 180.391 133.357 180.281 133.442 180.122C133.528 179.963 133.442 179.425 132.846 178.79C131.156 177.049 129.309 175.47 127.329 174.071C123.437 171.141 119.199 168.707 114.711 166.823C107.563 163.828 100.414 163.058 92.7897 162.239L90.4149 161.97C90.3427 161.963 90.2728 161.941 90.2092 161.906C90.1455 161.871 90.0894 161.824 90.0441 161.767C89.9988 161.71 89.9652 161.645 89.9452 161.575C89.9252 161.505 89.9193 161.431 89.9277 161.359C89.9353 161.287 89.9571 161.216 89.9919 161.153C90.0267 161.089 90.0738 161.032 90.1304 160.987C90.1871 160.941 90.2522 160.908 90.3219 160.888C90.3916 160.868 90.4646 160.862 90.5367 160.87L92.9724 161.127C100.633 161.958 107.855 162.74 115.15 165.796C119.723 167.697 124.043 170.161 128.011 173.13C130.046 174.584 131.946 176.22 133.686 178.019C134.563 178.973 134.831 180.012 134.392 180.709C134.137 181.1 133.455 181.686 131.737 181.149C130.746 180.845 129.774 180.481 128.827 180.061C132.721 183.718 136.241 187.755 139.337 192.113C140.177 193.335 140.287 194.325 139.666 195.01C139.533 195.157 139.371 195.275 139.191 195.357C139.011 195.439 138.816 195.483 138.618 195.487L138.606 195.646Z" fill="#231F20"/>
<path d="M184.508 193.751L202.277 146.019L129.704 147.461L113.433 201.892L184.508 193.751Z" fill="white"/>
<path d="M113.433 202.539C113.344 202.54 113.256 202.521 113.176 202.483C113.096 202.445 113.025 202.389 112.97 202.319C112.906 202.242 112.862 202.151 112.84 202.053C112.819 201.955 112.822 201.854 112.848 201.757L129.119 147.327C129.158 147.204 129.234 147.096 129.337 147.017C129.439 146.938 129.563 146.893 129.691 146.887L202.264 145.444C202.364 145.443 202.462 145.465 202.551 145.51C202.64 145.555 202.717 145.62 202.776 145.701C202.829 145.783 202.863 145.877 202.876 145.974C202.888 146.071 202.879 146.17 202.849 146.263L185.08 193.934C185.04 194.042 184.972 194.137 184.881 194.208C184.791 194.28 184.683 194.324 184.569 194.338L113.506 202.539H113.433ZM130.166 148.097L114.334 201.219L184.118 193.225L201.436 146.679L130.166 148.097Z" fill="#231F20"/>
<path d="M180.635 194.191C180.635 194.191 200.328 210.24 193.411 224.957C186.493 239.674 60.6623 256.493 60.6623 256.493L54.9992 237.254C54.9992 237.254 153.708 186.649 180.635 194.191Z" fill="#231F20"/>
<path d="M60.6623 257.104C60.531 257.102 60.4037 257.059 60.2987 256.98C60.1937 256.901 60.1163 256.79 60.0777 256.664L54.4146 237.425C54.3713 237.29 54.3783 237.143 54.4343 237.013C54.4903 236.883 54.5914 236.777 54.7191 236.716C54.9626 236.581 79.722 223.93 107.465 212.343C144.793 196.758 169.455 190.451 180.757 193.604C180.842 193.628 180.921 193.669 180.988 193.726C184.425 196.657 187.477 200.012 190.073 203.713C195.505 211.56 196.821 218.992 193.873 225.226C186.834 240.065 65.887 256.408 60.7475 257.092L60.6623 257.104ZM55.7177 237.547L61.1007 255.784C69.8938 254.562 186.237 238.452 192.777 224.676C199.208 211.084 181.816 195.963 180.306 194.729C154.706 187.871 63.098 233.88 55.7908 237.571L55.7177 237.547Z" fill="#231F20"/>
<path d="M48.4835 186.82C48.4835 186.82 146.194 226.473 170.417 236.936L156.338 258.767C156.338 258.767 66.1184 256.994 40.2507 234.247C14.3831 211.499 16.1003 173.631 48.4835 186.82Z" fill="#231F20"/>
<path d="M156.338 259.402C156.119 259.402 133.455 258.926 107.928 255.674C73.5839 251.286 50.6879 244.245 39.861 234.723C26.3182 222.818 16.831 201.916 24.2844 189.778C26.7201 185.745 33.2236 179.939 48.7393 186.246C49.7136 186.649 146.729 226.033 170.685 236.361C170.767 236.395 170.84 236.446 170.899 236.512C170.958 236.577 171.001 236.655 171.026 236.74C171.05 236.826 171.057 236.916 171.044 237.005C171.031 237.093 171 237.178 170.953 237.254L156.874 259.121C156.817 259.211 156.738 259.284 156.644 259.333C156.55 259.383 156.444 259.406 156.338 259.402ZM36.4875 184.693C31.482 184.693 27.6457 186.625 25.3074 190.414C19.559 199.789 24.3453 219.469 40.6526 233.807C65.2658 255.454 149.932 258.021 156.01 258.168L169.528 237.205C144.513 226.448 49.2386 187.774 48.2643 187.383C44.5447 185.743 40.5477 184.83 36.4875 184.693Z" fill="#231F20"/>
<path d="M184.885 174.695C184.99 175.259 185.233 175.788 185.592 176.235L187.492 179.083C187.422 178.789 187.289 178.513 187.102 178.276C186.915 178.039 186.679 177.846 186.409 177.711C186.14 177.576 185.844 177.501 185.543 177.494C185.242 177.486 184.942 177.544 184.666 177.665C184.127 177.958 183.678 178.395 183.371 178.928C183.064 179.461 182.909 180.069 182.925 180.684C182.979 181.914 183.269 183.121 183.777 184.241C185.129 187.761 188.186 192.907 192.607 190.243C195.603 188.434 196.431 182.053 196.857 178.875C197.697 172.617 195.785 164.574 187.772 165.796C188.003 168.878 189.148 171.82 191.06 174.242C189.757 172.971 184.484 171.003 184.885 174.695Z" fill="white"/>
<path d="M190.159 191.538C189.669 191.542 189.183 191.459 188.722 191.294C185.835 190.304 184.033 186.576 183.217 184.437C182.685 183.25 182.384 181.972 182.328 180.672C182.308 179.949 182.493 179.236 182.862 178.615C183.231 177.993 183.768 177.49 184.41 177.164C184.709 177.027 185.032 176.957 185.36 176.956L185.092 176.553C184.676 176.027 184.4 175.405 184.289 174.744C184.192 174.258 184.259 173.754 184.479 173.311C184.7 172.869 185.061 172.512 185.506 172.299C186.755 171.912 188.104 172.012 189.282 172.58C188.112 170.528 187.413 168.239 187.236 165.882C187.228 165.741 187.272 165.602 187.359 165.491C187.447 165.381 187.572 165.307 187.711 165.283C188.93 165.015 190.195 165.049 191.398 165.381C192.601 165.713 193.705 166.334 194.616 167.19C197.478 170.025 197.953 175.135 197.429 178.985C196.954 182.505 196.102 188.825 192.911 190.756C192.086 191.272 191.131 191.544 190.159 191.538V191.538ZM185.433 178.093C185.237 178.09 185.042 178.128 184.861 178.203C184.418 178.452 184.051 178.818 183.802 179.263C183.553 179.707 183.43 180.211 183.448 180.721C183.496 181.879 183.769 183.017 184.252 184.07C184.861 185.635 186.542 189.387 189.123 190.267C189.656 190.438 190.221 190.484 190.774 190.401C191.327 190.319 191.854 190.11 192.314 189.791C195.055 188.14 195.883 181.931 196.285 178.948C196.784 175.281 196.382 170.514 193.849 167.947C193.13 167.268 192.265 166.764 191.321 166.474C190.377 166.183 189.38 166.115 188.405 166.273C188.718 169.055 189.803 171.693 191.535 173.888C191.624 173.998 191.667 174.138 191.656 174.279C191.645 174.42 191.579 174.552 191.474 174.646C191.37 174.744 191.233 174.798 191.09 174.798C190.948 174.798 190.811 174.744 190.707 174.646C189.891 173.839 187.199 172.69 185.994 173.277C185.726 173.399 185.385 173.68 185.47 174.634C185.576 175.105 185.784 175.547 186.079 175.929L187.102 177.445C187.37 177.619 187.596 177.851 187.765 178.124C187.933 178.396 188.04 178.703 188.076 179.022C188.089 179.146 188.06 179.272 187.994 179.378C187.928 179.484 187.828 179.566 187.711 179.608C187.594 179.65 187.467 179.651 187.35 179.611C187.233 179.571 187.132 179.493 187.065 179.388L186.31 178.264C186.038 178.131 185.735 178.072 185.433 178.093Z" fill="#231F20"/>
<path d="M157.447 232.413C157.37 232.425 157.292 232.425 157.215 232.413C155.084 231.582 104.713 212.013 93.3622 205.033C93.221 204.945 93.1201 204.804 93.0814 204.642C93.0426 204.479 93.0691 204.308 93.1551 204.165C93.1976 204.094 93.2539 204.032 93.3206 203.982C93.3874 203.933 93.4633 203.898 93.5438 203.878C93.6244 203.859 93.708 203.856 93.7898 203.87C93.8715 203.883 93.9497 203.913 94.0198 203.957C105.273 210.876 157.142 231.032 157.666 231.228C157.822 231.288 157.949 231.408 158.017 231.561C158.086 231.715 158.091 231.889 158.031 232.047C157.981 232.159 157.898 232.253 157.794 232.319C157.69 232.384 157.569 232.417 157.447 232.413Z" fill="white"/>
<path d="M98.6964 152.595C109.801 152.595 118.804 144.041 118.804 133.49C118.804 122.938 109.801 114.385 98.6964 114.385C87.5916 114.385 78.5894 122.938 78.5894 133.49C78.5894 144.041 87.5916 152.595 98.6964 152.595Z" fill="#231F20"/>
<path d="M98.6965 153.194C87.2728 153.194 77.9926 144.356 77.9926 133.49C77.9926 122.623 87.285 113.774 98.6965 113.774C110.108 113.774 119.4 122.623 119.4 133.49C119.4 144.356 110.12 153.194 98.6965 153.194ZM98.6965 114.996C87.9427 114.996 79.2105 123.296 79.2105 133.49C79.2105 143.684 87.9548 151.972 98.6965 151.972C109.438 151.972 118.182 143.684 118.182 133.49C118.182 123.296 109.45 114.996 98.6965 114.996Z" fill="#231F20"/>
<path d="M88.0888 139.699L83.2173 136.839V133.062L88.0888 130.202C89.7126 129.265 91.3365 128.311 92.9603 127.342V131.913C92.0956 132.451 91.2309 132.977 90.3662 133.478C89.5015 133.979 88.649 134.492 87.7721 135.042L90.3662 136.485L92.9603 137.939V142.56L88.0888 139.699Z" fill="white"/>
<path d="M94.3364 143.77L100.073 121.865L103.069 123.222L97.3081 145.09L94.3364 143.77Z" fill="white"/>
<path d="M109.377 130.202L114.249 133.062V136.839L109.377 139.699L104.506 142.56V137.939L107.1 136.485L109.694 135.042C108.829 134.492 107.965 133.967 107.1 133.478C106.235 132.989 105.383 132.451 104.506 131.913V127.342L109.377 130.202Z" fill="white"/>
<path d="M57.0086 186.649C56.8471 186.659 56.6884 186.604 56.5674 186.496C56.4463 186.388 56.3729 186.237 56.3632 186.075C56.3535 185.913 56.4083 185.753 56.5157 185.632C56.623 185.51 56.7741 185.437 56.9356 185.427L86.1645 181.87L90.8046 158.389L53.355 155.211C53.2655 155.205 53.1785 155.178 53.1005 155.134C53.0225 155.09 52.9555 155.028 52.9044 154.954C52.8497 154.882 52.8125 154.798 52.7956 154.709C52.7787 154.62 52.7826 154.528 52.807 154.441L68.2009 96.9177C68.2429 96.7556 68.3473 96.6169 68.4912 96.5321C68.6351 96.4472 68.8067 96.4233 68.9682 96.4654C69.1297 96.5076 69.2679 96.6124 69.3524 96.7568C69.4369 96.9012 69.4608 97.0734 69.4188 97.2355L54.2075 154.062L91.5597 157.166C91.6453 157.176 91.7282 157.202 91.8035 157.244C91.8788 157.286 91.945 157.343 91.9981 157.411C92.0491 157.48 92.0852 157.56 92.1041 157.644C92.1229 157.728 92.1242 157.815 92.1078 157.9L87.2363 182.481C87.2098 182.607 87.1453 182.721 87.0516 182.809C86.9578 182.896 86.8394 182.953 86.7126 182.97L57.0086 186.576V186.649Z" fill="#231F20"/>
<path d="M217.963 20.6564H157.24V26.9636H217.963V20.6564Z" fill="#E6E7E8"/>
<path d="M285.75 20.6564H225.026V26.9636H285.75V20.6564Z" fill="#E6E7E8"/>
<path d="M217.963 31.4618H182.316V37.769H217.963V31.4618Z" fill="#6C63FF"/>
<path d="M278.966 31.4618H225.026V37.769H278.966V31.4618Z" fill="#E6E7E8"/>
<path d="M217.963 42.2794H173.035V48.5866H217.963V42.2794Z" fill="#E6E7E8"/>
<path d="M250.358 42.2794H225.026V48.5866H250.358V42.2794Z" fill="#E6E7E8"/>
<path d="M217.975 53.0848H191.766V59.3921H217.975V53.0848Z" fill="#E6E7E8"/>
<path d="M274.643 53.0848H225.026V59.3921H274.643V53.0848Z" fill="#6C63FF"/>
<path d="M217.963 63.9025H209.62V70.2097H217.963V63.9025Z" fill="#6C63FF"/>
<path d="M258.36 63.9025H225.026V70.2097H258.36V63.9025Z" fill="#E6E7E8"/>
<path d="M216.915 108.346H161.112V115.57H216.915V108.346Z" fill="#6C63FF"/>
<path d="M260.15 108.346H225.879V115.57H260.15V108.346Z" fill="#E6E7E8"/>
<path d="M216.903 120.716H171.598V127.94H216.903V120.716Z" fill="#E6E7E8"/>
<path d="M275.775 120.716H225.879V127.94H275.775V120.716Z" fill="#E6E7E8"/>
<path d="M216.903 133.099H194.251V140.323H216.903V133.099Z" fill="#E6E7E8"/>
<path d="M285.214 133.099H225.879V140.323H285.214V133.099Z" fill="#E6E7E8"/>
<path d="M216.903 145.481H208.415V152.705H216.903V145.481Z" fill="#E6E7E8"/>
<path d="M288.94 145.481H225.879V152.705H288.94V145.481Z" fill="#6C63FF"/>
<path d="M268.237 157.851H225.879V165.075H268.237V157.851Z" fill="#E6E7E8"/>
<path d="M247.35 92.6762L242.771 90.8427V88.398L247.35 86.5645L251.929 84.731V87.6402C251.101 87.9947 250.285 88.3247 249.494 88.6425C248.702 88.9603 247.862 89.2903 247.058 89.6448L249.494 90.5738L251.929 91.5027V94.4608L247.35 92.6762Z" fill="#E6E7E8"/>
<path d="M253.281 95.2798L258.713 81.2596L261.563 82.1152L256.094 96.1965L253.281 95.2798Z" fill="#E6E7E8"/>
<path d="M267.482 86.6012C269.004 87.2124 270.538 87.8235 272.061 88.4347V90.8794L267.482 92.7128L262.902 94.5463V91.5516L265.338 90.6227L267.774 89.6937C266.946 89.3392 266.13 89.0092 265.338 88.6914C264.546 88.3736 263.706 88.0435 262.902 87.6891V84.7677L267.482 86.6012Z" fill="#E6E7E8"/>
<path d="M158.835 5.62164C158.833 5.33829 158.896 5.05825 159.018 4.80268C159.124 4.54232 159.286 4.30863 159.493 4.11817C159.695 3.93005 159.931 3.7809 160.187 3.67813C160.461 3.56513 160.755 3.50699 161.052 3.507C161.332 3.50958 161.609 3.56774 161.868 3.67813C162.119 3.78384 162.35 3.93275 162.55 4.11817C162.744 4.31584 162.901 4.54789 163.012 4.80268C163.125 5.06092 163.183 5.33977 163.183 5.62164C163.183 5.90746 163.125 6.19028 163.012 6.45283C162.898 6.69484 162.741 6.91427 162.55 7.10066C162.142 7.48241 161.609 7.70001 161.052 7.71183C160.755 7.71184 160.461 7.65371 160.187 7.5407C159.928 7.44261 159.692 7.29291 159.493 7.10066C159.29 6.92133 159.128 6.7004 159.018 6.45283C158.896 6.19298 158.833 5.90894 158.835 5.62164V5.62164ZM158.835 12.7845C158.841 12.5046 158.902 12.2287 159.015 11.9727C159.128 11.7167 159.29 11.4858 159.493 11.2933C159.691 11.0972 159.928 10.9433 160.187 10.841C160.462 10.7322 160.756 10.6782 161.052 10.6821C161.331 10.6805 161.609 10.7345 161.868 10.841C162.122 10.9464 162.353 11.1 162.55 11.2933C162.744 11.4864 162.901 11.7144 163.012 11.9655C163.125 12.226 163.183 12.5068 163.183 12.7906C163.183 13.0744 163.125 13.3552 163.012 13.6157C162.901 13.8632 162.744 14.0872 162.55 14.2758C162.35 14.4612 162.119 14.6101 161.868 14.7158C161.609 14.8223 161.331 14.8763 161.052 14.8747C160.756 14.8786 160.462 14.8246 160.187 14.7158C159.931 14.613 159.695 14.4639 159.493 14.2758C159.287 14.0942 159.125 13.8687 159.018 13.6157C158.894 13.3563 158.832 13.0719 158.835 12.7845V12.7845Z" fill="#E6E7E8"/>
<path d="M229.947 211.291C230.428 211.316 230.904 211.179 231.299 210.9C231.64 210.643 231.798 210.106 231.798 209.274V205.485C231.797 204.858 231.879 204.233 232.042 203.627C232.193 203.063 232.449 202.532 232.797 202.063C233.151 201.612 233.6 201.244 234.112 200.987C234.721 200.702 235.389 200.564 236.06 200.584H238.801V204.52H237.839C237.619 204.498 237.398 204.536 237.198 204.631C236.999 204.726 236.828 204.873 236.706 205.057C236.495 205.429 236.39 205.852 236.401 206.28V210.142C236.415 210.632 236.328 211.118 236.146 211.572C235.999 211.923 235.793 212.246 235.537 212.526C235.313 212.767 235.044 212.963 234.745 213.1C234.507 213.227 234.246 213.305 233.978 213.333V213.333C234.243 213.382 234.501 213.464 234.745 213.577C235.043 213.706 235.312 213.893 235.537 214.127C236.123 214.778 236.433 215.634 236.401 216.511V220.385C236.386 220.814 236.492 221.237 236.706 221.608C236.827 221.794 236.996 221.944 237.196 222.041C237.396 222.138 237.618 222.178 237.839 222.158H238.801V226.094H236.06C235.389 226.114 234.721 225.976 234.112 225.69C233.6 225.433 233.151 225.066 232.797 224.615C232.452 224.144 232.196 223.614 232.042 223.05C231.88 222.44 231.798 221.811 231.798 221.18V217.391C231.84 217.101 231.817 216.806 231.731 216.527C231.644 216.248 231.497 215.992 231.299 215.777C230.904 215.499 230.428 215.361 229.947 215.386V211.291Z" fill="#E6E7E8"/>
<path d="M272.012 215.362C271.527 215.337 271.047 215.474 270.648 215.753C270.452 215.969 270.306 216.225 270.22 216.504C270.133 216.783 270.109 217.077 270.149 217.366V221.156C270.149 221.787 270.067 222.416 269.905 223.026C269.756 223.591 269.5 224.122 269.15 224.59C268.802 225.047 268.351 225.416 267.835 225.666C267.225 225.951 266.558 226.089 265.886 226.069H263.146V222.097H264.12C264.339 222.115 264.559 222.073 264.756 221.977C264.953 221.88 265.121 221.731 265.241 221.547C265.455 221.176 265.56 220.752 265.545 220.324V216.45C265.533 215.964 265.62 215.482 265.801 215.032C265.95 214.676 266.16 214.349 266.422 214.066C266.643 213.833 266.908 213.646 267.201 213.516C267.451 213.404 267.713 213.322 267.981 213.271V213.271C267.709 213.243 267.445 213.164 267.201 213.039C266.906 212.902 266.641 212.707 266.422 212.465C266.158 212.189 265.947 211.865 265.801 211.511C265.619 211.057 265.532 210.57 265.545 210.081V206.206C265.557 205.779 265.451 205.356 265.241 204.984C265.119 204.802 264.951 204.656 264.754 204.561C264.557 204.466 264.338 204.427 264.12 204.446H263.146V200.584H265.886C266.558 200.564 267.225 200.702 267.835 200.987C268.351 201.237 268.802 201.606 269.15 202.063C269.502 202.529 269.759 203.061 269.905 203.627C270.068 204.233 270.15 204.858 270.149 205.485V209.274C270.108 209.566 270.132 209.862 270.218 210.143C270.304 210.424 270.451 210.683 270.648 210.9C271.047 211.179 271.527 211.316 272.012 211.291V215.362Z" fill="#E6E7E8"/>
</svg>
